Playwrite-Th18LongSlow.ufo
<glyph name="dollar" format="2">
  <advance width="1066"/>
  <unicode hex="0024"/>
  <outline>
    <contour>
      <point x="509" y="-19" type="curve" smooth="yes"/>
      <point x="810" y="-19"/>
      <point x="1000" y="180"/>
      <point x="1000" y="435" type="curve" smooth="yes"/>
      <point x="1000" y="635"/>
      <point x="838" y="728"/>
      <point x="700" y="801" type="curve" smooth="yes"/>
      <point x="568" y="873"/>
      <point x="435" y="946"/>
      <point x="435" y="1099" type="curve" smooth="yes"/>
      <point x="435" y="1313"/>
      <point x="591" y="1478"/>
      <point x="806" y="1478" type="curve" smooth="yes"/>
      <point x="915" y="1478"/>
      <point x="1055" y="1435"/>
      <point x="1170" y="1321" type="curve" smooth="yes"/>
      <point x="1178" y="1314"/>
      <point x="1184" y="1310"/>
      <point x="1195" y="1320" type="curve" smooth="yes"/>
      <point x="1205" y="1329"/>
      <point x="1205" y="1334"/>
      <point x="1195" y="1345" type="curve" smooth="yes"/>
      <point x="1093" y="1455"/>
      <point x="943" y="1515"/>
      <point x="806" y="1515" type="curve" smooth="yes"/>
      <point x="566" y="1515"/>
      <point x="395" y="1341"/>
      <point x="395" y="1099" type="curve" smooth="yes"/>
      <point x="395" y="929"/>
      <point x="539" y="843"/>
      <point x="681" y="766" type="curve" smooth="yes"/>
      <point x="828" y="689"/>
      <point x="960" y="616"/>
      <point x="960" y="425" type="curve" smooth="yes"/>
      <point x="960" y="206"/>
      <point x="791" y="19"/>
      <point x="516" y="19" type="curve" smooth="yes"/>
      <point x="345" y="19"/>
      <point x="229" y="86"/>
      <point x="150" y="178" type="curve" smooth="yes"/>
      <point x="141" y="188"/>
      <point x="135" y="193"/>
      <point x="123" y="183" type="curve" smooth="yes"/>
      <point x="111" y="174"/>
      <point x="114" y="166"/>
      <point x="120" y="158" type="curve" smooth="yes"/>
      <point x="168" y="91"/>
      <point x="301" y="-19"/>
    </contour>
    <contour>
      <point x="383" y="-126" type="curve" smooth="yes"/>
      <point x="396" y="-126"/>
      <point x="403" y="-122"/>
      <point x="406" y="-111" type="curve" smooth="yes"/>
      <point x="969" y="1621" type="line" smooth="yes"/>
      <point x="973" y="1633"/>
      <point x="968" y="1636"/>
      <point x="955" y="1636" type="curve" smooth="yes"/>
      <point x="941" y="1636"/>
      <point x="935" y="1633"/>
      <point x="931" y="1621" type="curve" smooth="yes"/>
      <point x="369" y="-111" type="line" smooth="yes"/>
      <point x="365" y="-122"/>
      <point x="369" y="-126"/>
    </contour>
  </outline>
</glyph>
<glyph name="seven" format="2">
  <advance width="914"/>
  <unicode hex="0037"/>
  <outline>
    <contour>
      <point x="153" y="-12" type="curve" smooth="yes"/>
      <point x="169" y="-17"/>
      <point x="175" y="-12"/>
      <point x="185" y="3" type="curve" smooth="yes"/>
      <point x="1216" y="1469" type="line" smooth="yes"/>
      <point x="1225" y="1481"/>
      <point x="1216" y="1488"/>
      <point x="1208" y="1488" type="curve" smooth="yes"/>
      <point x="466" y="1488" type="line" smooth="yes"/>
      <point x="460" y="1488"/>
      <point x="451" y="1484"/>
      <point x="448" y="1471" type="curve" smooth="yes"/>
      <point x="444" y="1459"/>
      <point x="449" y="1453"/>
      <point x="455" y="1453" type="curve" smooth="yes"/>
      <point x="1161" y="1453" type="line"/>
      <point x="149" y="13" type="line" smooth="yes"/>
      <point x="140" y="0"/>
      <point x="140" y="-9"/>
    </contour>
  </outline>
</glyph>
<glyph name="question" format="2">
  <advance width="846"/>
  <unicode hex="003F"/>
  <guideline x="168" y="327" angle="252.78"/>
  <guideline y="339"/>
  <guideline x="201" y="327" angle="252.78"/>
  <outline>
    <contour>
      <point x="314" y="216" type="curve" smooth="yes"/>
      <point x="328" y="216"/>
      <point x="334" y="220"/>
      <point x="338" y="231" type="curve" smooth="yes"/>
      <point x="473" y="645" type="line"/>
      <point x="818" y="645"/>
      <point x="1091" y="879"/>
      <point x="1091" y="1203" type="curve" smooth="yes"/>
      <point x="1091" y="1396"/>
      <point x="970" y="1515"/>
      <point x="770" y="1515" type="curve" smooth="yes"/>
      <point x="645" y="1515"/>
      <point x="498" y="1455"/>
      <point x="381" y="1358" type="curve" smooth="yes"/>
      <point x="374" y="1351"/>
      <point x="374" y="1345"/>
      <point x="378" y="1336" type="curve" smooth="yes"/>
      <point x="381" y="1328"/>
      <point x="390" y="1321"/>
      <point x="399" y="1328" type="curve" smooth="yes"/>
      <point x="515" y="1411"/>
      <point x="646" y="1478"/>
      <point x="765" y="1478" type="curve" smooth="yes"/>
      <point x="943" y="1478"/>
      <point x="1050" y="1374"/>
      <point x="1050" y="1203" type="curve" smooth="yes"/>
      <point x="1050" y="893"/>
      <point x="790" y="680"/>
      <point x="461" y="680" type="curve" smooth="yes"/>
      <point x="455" y="680"/>
      <point x="444" y="676"/>
      <point x="440" y="664" type="curve" smooth="yes"/>
      <point x="299" y="231" type="line" smooth="yes"/>
      <point x="295" y="220"/>
      <point x="300" y="216"/>
    </contour>
    <contour>
      <point x="246" y="-14" type="curve" smooth="yes"/>
      <point x="276" y="-14"/>
      <point x="298" y="11"/>
      <point x="298" y="46" type="curve" smooth="yes"/>
      <point x="298" y="65"/>
      <point x="284" y="76"/>
      <point x="261" y="76" type="curve" smooth="yes"/>
      <point x="231" y="76"/>
      <point x="210" y="51"/>
      <point x="210" y="16" type="curve" smooth="yes"/>
      <point x="210" y="-2"/>
      <point x="224" y="-14"/>
    </contour>
  </outline>
</glyph>
<glyph name="C" format="2">
  <advance width="1200"/>
  <unicode hex="0043"/>
  <anchor x="594" y="0" name="bottom"/>
  <anchor x="1037" y="1424" name="top"/>
  <outline>
    <contour>
      <point x="634" y="-19" type="curve" smooth="yes"/>
      <point x="810" y="-19"/>
      <point x="984" y="73"/>
      <point x="1119" y="216" type="curve" smooth="yes"/>
      <point x="1134" y="233"/>
      <point x="1138" y="238"/>
      <point x="1127" y="249" type="curve" smooth="yes"/>
      <point x="1115" y="260"/>
      <point x="1108" y="258"/>
      <point x="1094" y="243" type="curve" smooth="yes"/>
      <point x="955" y="95"/>
      <point x="792" y="19"/>
      <point x="638" y="19" type="curve" smooth="yes"/>
      <point x="425" y="19"/>
      <point x="300" y="169"/>
      <point x="300" y="421" type="curve" smooth="yes"/>
      <point x="300" y="931"/>
      <point x="619" y="1478"/>
      <point x="1082" y="1478" type="curve" smooth="yes"/>
      <point x="1205" y="1478"/>
      <point x="1298" y="1426"/>
      <point x="1367" y="1326" type="curve" smooth="yes"/>
      <point x="1379" y="1308"/>
      <point x="1387" y="1304"/>
      <point x="1398" y="1311" type="curve" smooth="yes"/>
      <point x="1410" y="1319"/>
      <point x="1409" y="1328"/>
      <point x="1397" y="1348" type="curve" smooth="yes"/>
      <point x="1332" y="1453"/>
      <point x="1214" y="1515"/>
      <point x="1083" y="1515" type="curve" smooth="yes"/>
      <point x="600" y="1515"/>
      <point x="259" y="960"/>
      <point x="259" y="426" type="curve" smooth="yes"/>
      <point x="259" y="146"/>
      <point x="398" y="-19"/>
    </contour>
  </outline>
</glyph>
<glyph name="Q" format="2">
  <advance width="1434"/>
  <unicode hex="0051"/>
  <anchor x="635" y="0" name="bottom"/>
  <anchor x="878" y="744" name="center"/>
  <anchor x="1215" y="21" name="ogonek"/>
  <anchor x="1063" y="1424" name="top"/>
  <anchor x="1364" y="1424" name="topright"/>
  <outline>
    <contour>
      <point x="941" y="-276" type="curve" smooth="yes"/>
      <point x="953" y="-274"/>
      <point x="956" y="-267"/>
      <point x="953" y="-254" type="curve" smooth="yes"/>
      <point x="808" y="274" type="line" smooth="yes"/>
      <point x="804" y="286"/>
      <point x="799" y="291"/>
      <point x="785" y="288" type="curve" smooth="yes"/>
      <point x="773" y="284"/>
      <point x="769" y="279"/>
      <point x="773" y="265" type="curve" smooth="yes"/>
      <point x="918" y="-262" type="line" smooth="yes"/>
      <point x="921" y="-275"/>
      <point x="928" y="-280"/>
    </contour>
    <component base="O"/>
  </outline>
</glyph>
<glyph name="R" format="2">
  <advance width="1076"/>
  <unicode hex="0052"/>
  <anchor x="516" y="0" name="bottom"/>
  <anchor x="920" y="1424" name="top"/>
  <outline>
    <contour>
      <point x="175" y="-14" type="curve" smooth="yes"/>
      <point x="191" y="-14"/>
      <point x="195" y="-10"/>
      <point x="199" y="1" type="curve" smooth="yes"/>
      <point x="429" y="706" type="line"/>
      <point x="542" y="471"/>
      <point x="659" y="233"/>
      <point x="852" y="0" type="curve" smooth="yes"/>
      <point x="865" y="-15"/>
      <point x="872" y="-20"/>
      <point x="885" y="-11" type="curve" smooth="yes"/>
      <point x="896" y="-2"/>
      <point x="896" y="5"/>
      <point x="887" y="15" type="curve" smooth="yes"/>
      <point x="720" y="205"/>
      <point x="595" y="443"/>
      <point x="472" y="703" type="curve"/>
      <point x="826" y="723"/>
      <point x="1245" y="835"/>
      <point x="1245" y="1226" type="curve" smooth="yes"/>
      <point x="1245" y="1424"/>
      <point x="1129" y="1488"/>
      <point x="917" y="1488" type="curve" smooth="yes"/>
      <point x="662" y="1488" type="line" smooth="yes"/>
      <point x="644" y="1488"/>
      <point x="641" y="1484"/>
      <point x="636" y="1468" type="curve" smooth="yes"/>
      <point x="160" y="1" type="line" smooth="yes"/>
      <point x="156" y="-10"/>
      <point x="162" y="-14"/>
    </contour>
    <contour>
      <point x="439" y="738" type="curve"/>
      <point x="670" y="1453" type="line"/>
      <point x="922" y="1453" type="line" smooth="yes"/>
      <point x="1095" y="1453"/>
      <point x="1205" y="1398"/>
      <point x="1205" y="1228" type="curve" smooth="yes"/>
      <point x="1205" y="799"/>
      <point x="637" y="738"/>
    </contour>
  </outline>
</glyph>
<glyph name="T" format="2">
  <advance width="1069"/>
  <unicode hex="0054"/>
  <anchor x="451" y="0" name="bottom"/>
  <anchor x="706" y="744" name="center"/>
  <anchor x="911" y="1424" name="top"/>
  <outline>
    <contour>
      <point x="464" y="-14" type="curve" smooth="yes"/>
      <point x="480" y="-14"/>
      <point x="484" y="-10"/>
      <point x="488" y="1" type="curve" smooth="yes"/>
      <point x="959" y="1453" type="line"/>
      <point x="1400" y="1453" type="line" smooth="yes"/>
      <point x="1413" y="1453"/>
      <point x="1418" y="1456"/>
      <point x="1421" y="1470" type="curve" smooth="yes"/>
      <point x="1424" y="1481"/>
      <point x="1424" y="1488"/>
      <point x="1410" y="1488" type="curve" smooth="yes"/>
      <point x="463" y="1488" type="line" smooth="yes"/>
      <point x="450" y="1488"/>
      <point x="445" y="1484"/>
      <point x="441" y="1471" type="curve" smooth="yes"/>
      <point x="438" y="1459"/>
      <point x="439" y="1453"/>
      <point x="453" y="1453" type="curve" smooth="yes"/>
      <point x="920" y="1453" type="line"/>
      <point x="449" y="1" type="line" smooth="yes"/>
      <point x="445" y="-10"/>
      <point x="451" y="-14"/>
    </contour>
  </outline>
</glyph>
<glyph name="V" format="2">
  <advance width="1124"/>
  <unicode hex="0056"/>
  <outline>
    <contour>
      <point x="529" y="-14" type="curve" smooth="yes"/>
      <point x="541" y="-14"/>
      <point x="545" y="-10"/>
      <point x="551" y="-1" type="curve" smooth="yes"/>
      <point x="1468" y="1491" type="line" smooth="yes"/>
      <point x="1474" y="1503"/>
      <point x="1470" y="1515"/>
      <point x="1454" y="1515" type="curve" smooth="yes"/>
      <point x="1441" y="1515"/>
      <point x="1436" y="1511"/>
      <point x="1430" y="1500" type="curve" smooth="yes"/>
      <point x="543" y="46" type="line"/>
      <point x="503" y="1498" type="line" smooth="yes"/>
      <point x="503" y="1511"/>
      <point x="498" y="1515"/>
      <point x="484" y="1515" type="curve" smooth="yes"/>
      <point x="470" y="1515"/>
      <point x="466" y="1511"/>
      <point x="466" y="1496" type="curve" smooth="yes"/>
      <point x="511" y="1" type="line" smooth="yes"/>
      <point x="511" y="-10"/>
      <point x="516" y="-14"/>
    </contour>
  </outline>
</glyph>
<glyph name="X" format="2">
  <advance width="1063"/>
  <unicode hex="0058"/>
  <guideline x="514" y="712" angle="0"/>
  <outline>
    <contour>
      <point x="908" y="-12" type="curve" smooth="yes"/>
      <point x="919" y="-9"/>
      <point x="923" y="-4"/>
      <point x="918" y="13" type="curve" smooth="yes"/>
      <point x="710" y="761" type="line"/>
      <point x="1354" y="1481" type="line" smooth="yes"/>
      <point x="1364" y="1493"/>
      <point x="1368" y="1498"/>
      <point x="1356" y="1509" type="curve" smooth="yes"/>
      <point x="1348" y="1518"/>
      <point x="1343" y="1518"/>
      <point x="1334" y="1508" type="curve" smooth="yes"/>
      <point x="699" y="799" type="line"/>
      <point x="505" y="1499" type="line" smooth="yes"/>
      <point x="501" y="1514"/>
      <point x="496" y="1519"/>
      <point x="481" y="1515" type="curve" smooth="yes"/>
      <point x="471" y="1513"/>
      <point x="466" y="1506"/>
      <point x="470" y="1494" type="curve" smooth="yes"/>
      <point x="670" y="773" type="line"/>
      <point x="1" y="19" type="line" smooth="yes"/>
      <point x="-9" y="8"/>
      <point x="-12" y="3"/>
      <point x="-2" y="-7" type="curve" smooth="yes"/>
      <point x="8" y="-17"/>
      <point x="14" y="-16"/>
      <point x="21" y="-7" type="curve" smooth="yes"/>
      <point x="681" y="735" type="line"/>
      <point x="884" y="5" type="line" smooth="yes"/>
      <point x="888" y="-10"/>
      <point x="893" y="-17"/>
    </contour>
  </outline>
</glyph>
<glyph name="Z" format="2">
  <advance width="950"/>
  <unicode hex="005A"/>
  <anchor x="413" y="0" name="bottom"/>
  <anchor x="636" y="784" name="center"/>
  <anchor x="796" y="1424" name="top"/>
  <outline>
    <contour>
      <point x="-21" y="0" type="curve" smooth="yes"/>
      <point x="808" y="0" type="line" smooth="yes"/>
      <point x="820" y="0"/>
      <point x="825" y="4"/>
      <point x="829" y="18" type="curve" smooth="yes"/>
      <point x="831" y="29"/>
      <point x="831" y="35"/>
      <point x="818" y="35" type="curve" smooth="yes"/>
      <point x="28" y="35" type="line"/>
      <point x="1229" y="1461" type="line" smooth="yes"/>
      <point x="1238" y="1471"/>
      <point x="1233" y="1488"/>
      <point x="1223" y="1488" type="curve" smooth="yes"/>
      <point x="465" y="1488" type="line" smooth="yes"/>
      <point x="453" y="1488"/>
      <point x="448" y="1484"/>
      <point x="444" y="1471" type="curve" smooth="yes"/>
      <point x="440" y="1459"/>
      <point x="441" y="1453"/>
      <point x="455" y="1453" type="curve" smooth="yes"/>
      <point x="1174" y="1453" type="line"/>
      <point x="-29" y="25" type="line" smooth="yes"/>
      <point x="-37" y="15"/>
      <point x="-31" y="0"/>
    </contour>
  </outline>
</glyph>
<glyph name="backslash" format="2">
  <advance width="525"/>
  <unicode hex="005C"/>
  <outline>
    <contour>
      <point x="486" y="-76" type="curve" smooth="yes"/>
      <point x="500" y="-75"/>
      <point x="501" y="-67"/>
      <point x="500" y="-56" type="curve" smooth="yes"/>
      <point x="384" y="1560" type="line" smooth="yes"/>
      <point x="383" y="1576"/>
      <point x="376" y="1578"/>
      <point x="364" y="1576" type="curve" smooth="yes"/>
      <point x="350" y="1575"/>
      <point x="349" y="1568"/>
      <point x="350" y="1556" type="curve" smooth="yes"/>
      <point x="466" y="-60" type="line" smooth="yes"/>
      <point x="468" y="-76"/>
      <point x="474" y="-77"/>
    </contour>
  </outline>
</glyph>
<glyph name="a" format="2">
  <advance width="623"/>
  <unicode hex="0061"/>
  <anchor x="233" y="0" name="bottom"/>
  <anchor x="546" y="13" name="ogonek"/>
  <anchor x="375" y="500" name="top"/>
  <outline>
    <contour>
      <point x="200" y="-17" type="curve" smooth="yes"/>
      <point x="246" y="-17"/>
      <point x="324" y="1"/>
      <point x="394" y="90" type="curve"/>
      <point x="393" y="84"/>
      <point x="391" y="78"/>
      <point x="391" y="73" type="curve" smooth="yes"/>
      <point x="386" y="15"/>
      <point x="418" y="-17"/>
      <point x="466" y="-17" type="curve" smooth="yes"/>
      <point x="528" y="-17"/>
      <point x="563" y="24"/>
      <point x="588" y="66" type="curve" smooth="yes"/>
      <point x="594" y="75"/>
      <point x="593" y="85"/>
      <point x="581" y="90" type="curve" smooth="yes"/>
      <point x="569" y="96"/>
      <point x="561" y="89"/>
      <point x="556" y="81" type="curve" smooth="yes"/>
      <point x="536" y="46"/>
      <point x="508" y="16"/>
      <point x="471" y="16" type="curve" smooth="yes"/>
      <point x="438" y="16"/>
      <point x="416" y="46"/>
      <point x="439" y="115" type="curve" smooth="yes"/>
      <point x="563" y="494" type="line" smooth="yes"/>
      <point x="566" y="505"/>
      <point x="564" y="515"/>
      <point x="548" y="515" type="curve" smooth="yes"/>
      <point x="534" y="515"/>
      <point x="529" y="511"/>
      <point x="525" y="500" type="curve" smooth="yes"/>
      <point x="516" y="474" type="line"/>
      <point x="478" y="503"/>
      <point x="425" y="519"/>
      <point x="381" y="519" type="curve" smooth="yes"/>
      <point x="160" y="519"/>
      <point x="60" y="306"/>
      <point x="60" y="151" type="curve" smooth="yes"/>
      <point x="60" y="48"/>
      <point x="111" y="-17"/>
    </contour>
    <contour>
      <point x="103" y="153" type="curve" smooth="yes"/>
      <point x="103" y="291"/>
      <point x="185" y="485"/>
      <point x="375" y="485" type="curve" smooth="yes"/>
      <point x="413" y="485"/>
      <point x="454" y="476"/>
      <point x="506" y="441" type="curve"/>
      <point x="424" y="186" type="line"/>
      <point x="354" y="60"/>
      <point x="275" y="18"/>
      <point x="208" y="18" type="curve" smooth="yes"/>
      <point x="134" y="18"/>
      <point x="103" y="73"/>
    </contour>
  </outline>
</glyph>
<glyph name="b" format="2">
  <advance width="598"/>
  <unicode hex="0062"/>
  <anchor x="236" y="0" name="bottom"/>
  <anchor x="318" y="250" name="center"/>
  <anchor x="399" y="500" name="top"/>
  <outline>
    <contour>
      <point x="53" y="-14" type="curve" smooth="yes"/>
      <point x="66" y="-14"/>
      <point x="71" y="-10"/>
      <point x="75" y="1" type="curve" smooth="yes"/>
      <point x="84" y="30" type="line"/>
      <point x="125" y="0"/>
      <point x="176" y="-17"/>
      <point x="219" y="-17" type="curve" smooth="yes"/>
      <point x="444" y="-17"/>
      <point x="539" y="205"/>
      <point x="539" y="350" type="curve" smooth="yes"/>
      <point x="539" y="454"/>
      <point x="488" y="519"/>
      <point x="400" y="519" type="curve" smooth="yes"/>
      <point x="354" y="519"/>
      <point x="279" y="500"/>
      <point x="210" y="416" type="curve"/>
      <point x="564" y="1501" type="line" smooth="yes"/>
      <point x="568" y="1511"/>
      <point x="559" y="1516"/>
      <point x="546" y="1516" type="curve" smooth="yes"/>
      <point x="531" y="1516"/>
      <point x="528" y="1513"/>
      <point x="524" y="1501" type="curve" smooth="yes"/>
      <point x="38" y="8" type="line" smooth="yes"/>
      <point x="34" y="-4"/>
      <point x="36" y="-14"/>
    </contour>
    <contour>
      <point x="95" y="61" type="curve"/>
      <point x="179" y="319" type="line"/>
      <point x="248" y="443"/>
      <point x="325" y="484"/>
      <point x="393" y="484" type="curve" smooth="yes"/>
      <point x="464" y="484"/>
      <point x="496" y="430"/>
      <point x="496" y="349" type="curve" smooth="yes"/>
      <point x="496" y="213"/>
      <point x="414" y="16"/>
      <point x="225" y="16" type="curve" smooth="yes"/>
      <point x="189" y="16"/>
      <point x="148" y="26"/>
    </contour>
  </outline>
</glyph>
<glyph name="j" format="2">
  <advance width="268"/>
  <unicode hex="006A"/>
  <guideline x="185" y="489" angle="72"/>
  <outline>
    <contour>
      <point x="-352" y="-1017" type="curve" smooth="yes"/>
      <point x="-285" y="-1017"/>
      <point x="-251" y="-984"/>
      <point x="-219" y="-886" type="curve" smooth="yes"/>
      <point x="235" y="499" type="line" smooth="yes"/>
      <point x="239" y="510"/>
      <point x="230" y="515"/>
      <point x="218" y="515" type="curve" smooth="yes"/>
      <point x="205" y="515"/>
      <point x="199" y="511"/>
      <point x="195" y="500" type="curve" smooth="yes"/>
      <point x="-256" y="-882" type="line" smooth="yes"/>
      <point x="-281" y="-960"/>
      <point x="-302" y="-982"/>
      <point x="-349" y="-982" type="curve" smooth="yes"/>
      <point x="-380" y="-982"/>
      <point x="-402" y="-965"/>
      <point x="-417" y="-929" type="curve" smooth="yes"/>
      <point x="-422" y="-919"/>
      <point x="-430" y="-916"/>
      <point x="-441" y="-922" type="curve" smooth="yes"/>
      <point x="-452" y="-929"/>
      <point x="-455" y="-936"/>
      <point x="-451" y="-946" type="curve" smooth="yes"/>
      <point x="-434" y="-991"/>
      <point x="-396" y="-1017"/>
    </contour>
    <contour>
      <point x="275" y="690" type="curve" smooth="yes"/>
      <point x="306" y="690"/>
      <point x="325" y="718"/>
      <point x="325" y="746" type="curve" smooth="yes"/>
      <point x="325" y="766"/>
      <point x="310" y="775"/>
      <point x="289" y="775" type="curve" smooth="yes"/>
      <point x="258" y="775"/>
      <point x="239" y="748"/>
      <point x="239" y="719" type="curve" smooth="yes"/>
      <point x="239" y="699"/>
      <point x="253" y="690"/>
    </contour>
  </outline>
</glyph>
<glyph name="l" format="2">
  <advance width="301"/>
  <unicode hex="006C"/>
  <anchor x="339" y="750" name="CAT"/>
  <anchor x="128" y="0" name="bottom"/>
  <anchor x="324" y="825" name="center"/>
  <anchor x="517" y="1423" name="top"/>
  <anchor x="556" y="1500" name="topright"/>
  <outline>
    <contour>
      <point x="132" y="-17" type="curve" smooth="yes"/>
      <point x="191" y="-17"/>
      <point x="230" y="24"/>
      <point x="255" y="66" type="curve" smooth="yes"/>
      <point x="261" y="75"/>
      <point x="260" y="85"/>
      <point x="248" y="90" type="curve" smooth="yes"/>
      <point x="236" y="96"/>
      <point x="228" y="89"/>
      <point x="225" y="81" type="curve" smooth="yes"/>
      <point x="206" y="49"/>
      <point x="171" y="16"/>
      <point x="136" y="16" type="curve" smooth="yes"/>
      <point x="101" y="16"/>
      <point x="86" y="48"/>
      <point x="108" y="116" type="curve" smooth="yes"/>
      <point x="561" y="1499" type="line" smooth="yes"/>
      <point x="565" y="1509"/>
      <point x="557" y="1515"/>
      <point x="545" y="1515" type="curve" smooth="yes"/>
      <point x="530" y="1515"/>
      <point x="525" y="1511"/>
      <point x="521" y="1500" type="curve" smooth="yes"/>
      <point x="71" y="124" type="line" smooth="yes"/>
      <point x="38" y="25"/>
      <point x="72" y="-17"/>
    </contour>
  </outline>
</glyph>
<glyph name="n" format="2">
  <advance width="646"/>
  <unicode hex="006E"/>
  <anchor x="250" y="0" name="bottom"/>
  <anchor x="368" y="500" name="top"/>
  <outline>
    <contour>
      <point x="489" y="-17" type="curve" smooth="yes"/>
      <point x="548" y="-17"/>
      <point x="586" y="24"/>
      <point x="611" y="66" type="curve" smooth="yes"/>
      <point x="618" y="75"/>
      <point x="616" y="85"/>
      <point x="605" y="90" type="curve" smooth="yes"/>
      <point x="593" y="96"/>
      <point x="585" y="89"/>
      <point x="581" y="81" type="curve" smooth="yes"/>
      <point x="563" y="49"/>
      <point x="528" y="16"/>
      <point x="493" y="16" type="curve" smooth="yes"/>
      <point x="458" y="16"/>
      <point x="443" y="46"/>
      <point x="465" y="116" type="curve" smooth="yes"/>
      <point x="531" y="321" type="line" smooth="yes"/>
      <point x="575" y="458"/>
      <point x="516" y="519"/>
      <point x="416" y="519" type="curve" smooth="yes"/>
      <point x="359" y="519"/>
      <point x="274" y="500"/>
      <point x="203" y="404" type="curve"/>
      <point x="234" y="499" type="line" smooth="yes"/>
      <point x="238" y="509"/>
      <point x="230" y="515"/>
      <point x="218" y="515" type="curve" smooth="yes"/>
      <point x="203" y="515"/>
      <point x="198" y="511"/>
      <point x="194" y="500" type="curve" smooth="yes"/>
      <point x="31" y="0" type="line" smooth="yes"/>
      <point x="28" y="-10"/>
      <point x="36" y="-15"/>
      <point x="49" y="-15" type="curve" smooth="yes"/>
      <point x="64" y="-15"/>
      <point x="68" y="-11"/>
      <point x="71" y="0" type="curve" smooth="yes"/>
      <point x="173" y="313" type="line"/>
      <point x="239" y="443"/>
      <point x="330" y="484"/>
      <point x="411" y="484" type="curve" smooth="yes"/>
      <point x="503" y="484"/>
      <point x="526" y="424"/>
      <point x="498" y="336" type="curve" smooth="yes"/>
      <point x="429" y="124" type="line" smooth="yes"/>
      <point x="396" y="23"/>
      <point x="429" y="-17"/>
    </contour>
  </outline>
</glyph>
<glyph name="p" format="2">
  <advance width="598"/>
  <unicode hex="0070"/>
  <guideline x="80" y="159" angle="72"/>
  <outline>
    <contour>
      <point x="-272" y="-1015" type="curve" smooth="yes"/>
      <point x="-259" y="-1015"/>
      <point x="-254" y="-1011"/>
      <point x="-250" y="-1000" type="curve" smooth="yes"/>
      <point x="84" y="30" type="line"/>
      <point x="125" y="0"/>
      <point x="176" y="-17"/>
      <point x="219" y="-17" type="curve" smooth="yes"/>
      <point x="443" y="-17"/>
      <point x="539" y="205"/>
      <point x="539" y="350" type="curve" smooth="yes"/>
      <point x="539" y="454"/>
      <point x="488" y="519"/>
      <point x="400" y="519" type="curve" smooth="yes"/>
      <point x="354" y="519"/>
      <point x="279" y="500"/>
      <point x="210" y="416" type="curve"/>
      <point x="238" y="500" type="line" smooth="yes"/>
      <point x="241" y="510"/>
      <point x="233" y="515"/>
      <point x="220" y="515" type="curve" smooth="yes"/>
      <point x="205" y="515"/>
      <point x="201" y="511"/>
      <point x="198" y="500" type="curve" smooth="yes"/>
      <point x="-289" y="-999" type="line" smooth="yes"/>
      <point x="-292" y="-1009"/>
      <point x="-289" y="-1015"/>
    </contour>
    <contour>
      <point x="94" y="61" type="curve"/>
      <point x="178" y="318" type="line"/>
      <point x="248" y="441"/>
      <point x="325" y="484"/>
      <point x="393" y="484" type="curve" smooth="yes"/>
      <point x="464" y="484"/>
      <point x="496" y="430"/>
      <point x="496" y="349" type="curve" smooth="yes"/>
      <point x="496" y="213"/>
      <point x="413" y="16"/>
      <point x="225" y="16" type="curve" smooth="yes"/>
      <point x="189" y="16"/>
      <point x="148" y="26"/>
    </contour>
  </outline>
</glyph>
<glyph name="v" format="2">
  <advance width="509"/>
  <unicode hex="0076"/>
  <outline>
    <contour>
      <point x="160" y="-15" type="curve" smooth="yes"/>
      <point x="173" y="-15"/>
      <point x="178" y="-10"/>
      <point x="185" y="0" type="curve" smooth="yes"/>
      <point x="536" y="491" type="line" smooth="yes"/>
      <point x="545" y="503"/>
      <point x="533" y="515"/>
      <point x="518" y="515" type="curve" smooth="yes"/>
      <point x="508" y="515"/>
      <point x="504" y="513"/>
      <point x="495" y="500" type="curve" smooth="yes"/>
      <point x="178" y="45" type="line"/>
      <point x="144" y="500" type="line" smooth="yes"/>
      <point x="143" y="510"/>
      <point x="141" y="515"/>
      <point x="128" y="515" type="curve" smooth="yes"/>
      <point x="114" y="515"/>
      <point x="105" y="509"/>
      <point x="106" y="496" type="curve" smooth="yes"/>
      <point x="145" y="0" type="line" smooth="yes"/>
      <point x="146" y="-10"/>
      <point x="149" y="-15"/>
    </contour>
  </outline>
</glyph>
<glyph name="x" format="2">
  <advance width="534"/>
  <unicode hex="0078"/>
  <outline>
    <contour>
      <point x="399" y="11" type="curve" smooth="yes"/>
      <point x="290" y="249" type="line"/>
      <point x="554" y="485" type="line" smooth="yes"/>
      <point x="568" y="498"/>
      <point x="555" y="514"/>
      <point x="540" y="514" type="curve" smooth="yes"/>
      <point x="534" y="514"/>
      <point x="528" y="510"/>
      <point x="521" y="504" type="curve" smooth="yes"/>
      <point x="275" y="283" type="line"/>
      <point x="175" y="500" type="line" smooth="yes"/>
      <point x="171" y="510"/>
      <point x="166" y="515"/>
      <point x="159" y="515" type="curve" smooth="yes"/>
      <point x="144" y="515"/>
      <point x="133" y="505"/>
      <point x="140" y="489" type="curve" smooth="yes"/>
      <point x="245" y="258" type="line"/>
      <point x="-21" y="20" type="line" smooth="yes"/>
      <point x="-40" y="5"/>
      <point x="-25" y="-14"/>
      <point x="-11" y="-14" type="curve" smooth="yes"/>
      <point x="-6" y="-14"/>
      <point x="-1" y="-10"/>
      <point x="6" y="-4" type="curve" smooth="yes"/>
      <point x="260" y="223" type="line"/>
      <point x="363" y="-2" type="line" smooth="yes"/>
      <point x="365" y="-7"/>
      <point x="369" y="-14"/>
      <point x="379" y="-14" type="curve" smooth="yes"/>
      <point x="393" y="-14"/>
      <point x="405" y="-4"/>
    </contour>
  </outline>
</glyph>
<glyph name="y" format="2">
  <advance width="615"/>
  <unicode hex="0079"/>
  <anchor x="536" y="0" name="bottom"/>
  <anchor x="371" y="500" name="top"/>
  <outline>
    <contour>
      <point x="200" y="-17" type="curve" smooth="yes"/>
      <point x="255" y="-17"/>
      <point x="340" y="1"/>
      <point x="411" y="95" type="curve"/>
      <point x="125" y="-781" type="line" smooth="yes"/>
      <point x="80" y="-920"/>
      <point x="29" y="-984"/>
      <point x="-75" y="-984" type="curve" smooth="yes"/>
      <point x="-144" y="-984"/>
      <point x="-182" y="-962"/>
      <point x="-207" y="-889" type="curve" smooth="yes"/>
      <point x="-210" y="-880"/>
      <point x="-216" y="-876"/>
      <point x="-229" y="-881" type="curve" smooth="yes"/>
      <point x="-242" y="-886"/>
      <point x="-245" y="-894"/>
      <point x="-242" y="-904" type="curve" smooth="yes"/>
      <point x="-217" y="-980"/>
      <point x="-167" y="-1019"/>
      <point x="-79" y="-1019" type="curve" smooth="yes"/>
      <point x="51" y="-1019"/>
      <point x="111" y="-940"/>
      <point x="163" y="-784" type="curve" smooth="yes"/>
      <point x="580" y="494" type="line" smooth="yes"/>
      <point x="584" y="505"/>
      <point x="581" y="515"/>
      <point x="565" y="515" type="curve" smooth="yes"/>
      <point x="551" y="515"/>
      <point x="546" y="511"/>
      <point x="543" y="500" type="curve" smooth="yes"/>
      <point x="440" y="185" type="line"/>
      <point x="374" y="59"/>
      <point x="284" y="18"/>
      <point x="205" y="18" type="curve" smooth="yes"/>
      <point x="118" y="18"/>
      <point x="94" y="78"/>
      <point x="123" y="165" type="curve" smooth="yes"/>
      <point x="233" y="499" type="line" smooth="yes"/>
      <point x="236" y="509"/>
      <point x="229" y="515"/>
      <point x="216" y="515" type="curve" smooth="yes"/>
      <point x="201" y="515"/>
      <point x="196" y="511"/>
      <point x="193" y="500" type="curve" smooth="yes"/>
      <point x="88" y="180" type="line" smooth="yes"/>
      <point x="43" y="44"/>
      <point x="104" y="-17"/>
    </contour>
  </outline>
</glyph>
<glyph name="section" format="2">
  <advance width="1033"/>
  <unicode hex="00A7"/>
  <outline>
    <contour>
      <point x="328" y="-670" type="curve" smooth="yes"/>
      <point x="558" y="-670"/>
      <point x="725" y="-495"/>
      <point x="725" y="-252" type="curve" smooth="yes"/>
      <point x="725" y="-138"/>
      <point x="691" y="-54"/>
      <point x="642" y="14" type="curve"/>
      <point x="843" y="91"/>
      <point x="986" y="229"/>
      <point x="986" y="426" type="curve" smooth="yes"/>
      <point x="986" y="783"/>
      <point x="536" y="774"/>
      <point x="536" y="1144" type="curve" smooth="yes"/>
      <point x="536" y="1343"/>
      <point x="674" y="1475"/>
      <point x="849" y="1478" type="curve" smooth="yes"/>
      <point x="959" y="1478"/>
      <point x="1051" y="1433"/>
      <point x="1163" y="1323" type="curve" smooth="yes"/>
      <point x="1171" y="1314"/>
      <point x="1178" y="1313"/>
      <point x="1188" y="1321" type="curve" smooth="yes"/>
      <point x="1199" y="1331"/>
      <point x="1195" y="1336"/>
      <point x="1188" y="1346" type="curve"/>
      <point x="1095" y="1459"/>
      <point x="974" y="1515"/>
      <point x="850" y="1515" type="curve" smooth="yes"/>
      <point x="660" y="1513"/>
      <point x="496" y="1378"/>
      <point x="496" y="1144" type="curve" smooth="yes"/>
      <point x="496" y="1034"/>
      <point x="530" y="955"/>
      <point x="580" y="892" type="curve"/>
      <point x="358" y="808"/>
      <point x="238" y="673"/>
      <point x="238" y="483" type="curve" smooth="yes"/>
      <point x="238" y="140"/>
      <point x="685" y="149"/>
      <point x="685" y="-252" type="curve" smooth="yes"/>
      <point x="685" y="-472"/>
      <point x="538" y="-632"/>
      <point x="329" y="-632" type="curve" smooth="yes"/>
      <point x="190" y="-632"/>
      <point x="80" y="-569"/>
      <point x="5" y="-474" type="curve" smooth="yes"/>
      <point x="-4" y="-462"/>
      <point x="-10" y="-459"/>
      <point x="-22" y="-469" type="curve" smooth="yes"/>
      <point x="-34" y="-477"/>
      <point x="-31" y="-485"/>
      <point x="-25" y="-495" type="curve" smooth="yes"/>
      <point x="21" y="-566"/>
      <point x="148" y="-670"/>
    </contour>
    <contour>
      <point x="620" y="42" type="curve"/>
      <point x="488" y="200"/>
      <point x="278" y="271"/>
      <point x="278" y="483" type="curve" smooth="yes"/>
      <point x="278" y="674"/>
      <point x="403" y="786"/>
      <point x="605" y="864" type="curve"/>
      <point x="738" y="719"/>
      <point x="946" y="653"/>
      <point x="946" y="426" type="curve" smooth="yes"/>
      <point x="946" y="232"/>
      <point x="806" y="115"/>
    </contour>
  </outline>
</glyph>
<glyph name="copyright" format="2">
  <advance width="1406"/>
  <unicode hex="00A9"/>
  <outline>
    <contour>
      <point x="860" y="126" type="curve" smooth="yes"/>
      <point x="1181" y="126"/>
      <point x="1414" y="381"/>
      <point x="1414" y="734" type="curve" smooth="yes"/>
      <point x="1414" y="1085"/>
      <point x="1181" y="1340"/>
      <point x="860" y="1340" type="curve" smooth="yes"/>
      <point x="540" y="1340"/>
      <point x="308" y="1085"/>
      <point x="308" y="734" type="curve" smooth="yes"/>
      <point x="308" y="381"/>
      <point x="540" y="126"/>
    </contour>
    <contour>
      <point x="860" y="156" type="curve" smooth="yes"/>
      <point x="559" y="156"/>
      <point x="340" y="399"/>
      <point x="340" y="734" type="curve" smooth="yes"/>
      <point x="340" y="1068"/>
      <point x="559" y="1310"/>
      <point x="860" y="1310" type="curve" smooth="yes"/>
      <point x="1163" y="1310"/>
      <point x="1381" y="1068"/>
      <point x="1381" y="733" type="curve" smooth="yes"/>
      <point x="1381" y="399"/>
      <point x="1163" y="156"/>
    </contour>
    <contour>
      <point x="866" y="389" type="curve" smooth="yes"/>
      <point x="938" y="389"/>
      <point x="1006" y="428"/>
      <point x="1061" y="505" type="curve" smooth="yes"/>
      <point x="1065" y="510"/>
      <point x="1064" y="518"/>
      <point x="1058" y="523" type="curve" smooth="yes"/>
      <point x="1050" y="529"/>
      <point x="1043" y="530"/>
      <point x="1039" y="525" type="curve" smooth="yes"/>
      <point x="985" y="458"/>
      <point x="925" y="424"/>
      <point x="866" y="424" type="curve" smooth="yes"/>
      <point x="729" y="424"/>
      <point x="649" y="543"/>
      <point x="649" y="738" type="curve" smooth="yes"/>
      <point x="649" y="919"/>
      <point x="744" y="1050"/>
      <point x="874" y="1050" type="curve" smooth="yes"/>
      <point x="931" y="1050"/>
      <point x="988" y="1024"/>
      <point x="1021" y="980" type="curve" smooth="yes"/>
      <point x="1026" y="974"/>
      <point x="1033" y="973"/>
      <point x="1041" y="980" type="curve" smooth="yes"/>
      <point x="1048" y="985"/>
      <point x="1050" y="991"/>
      <point x="1045" y="999" type="curve" smooth="yes"/>
      <point x="1005" y="1053"/>
      <point x="941" y="1084"/>
      <point x="874" y="1084" type="curve" smooth="yes"/>
      <point x="721" y="1084"/>
      <point x="611" y="939"/>
      <point x="611" y="738" type="curve" smooth="yes"/>
      <point x="611" y="521"/>
      <point x="705" y="389"/>
    </contour>
  </outline>
</glyph>
<glyph name="registered" format="2">
  <advance width="683"/>
  <unicode hex="00AE"/>
  <outline>
    <contour>
      <point x="683" y="1053" type="curve" smooth="yes"/>
      <point x="840" y="1053"/>
      <point x="964" y="1176"/>
      <point x="964" y="1334" type="curve" smooth="yes"/>
      <point x="964" y="1491"/>
      <point x="840" y="1615"/>
      <point x="683" y="1615" type="curve" smooth="yes"/>
      <point x="525" y="1615"/>
      <point x="401" y="1491"/>
      <point x="401" y="1334" type="curve" smooth="yes"/>
      <point x="401" y="1176"/>
      <point x="525" y="1053"/>
    </contour>
    <contour>
      <point x="683" y="1083" type="curve" smooth="yes"/>
      <point x="543" y="1083"/>
      <point x="431" y="1194"/>
      <point x="431" y="1334" type="curve" smooth="yes"/>
      <point x="431" y="1474"/>
      <point x="543" y="1585"/>
      <point x="683" y="1585" type="curve" smooth="yes"/>
      <point x="823" y="1585"/>
      <point x="934" y="1474"/>
      <point x="934" y="1334" type="curve" smooth="yes"/>
      <point x="934" y="1194"/>
      <point x="823" y="1083"/>
    </contour>
    <contour>
      <point x="603" y="1161" type="curve" smooth="yes"/>
      <point x="613" y="1161"/>
      <point x="620" y="1164"/>
      <point x="620" y="1171" type="curve" smooth="yes"/>
      <point x="620" y="1319" type="line"/>
      <point x="665" y="1266"/>
      <point x="714" y="1216"/>
      <point x="778" y="1164" type="curve" smooth="yes"/>
      <point x="785" y="1158"/>
      <point x="793" y="1159"/>
      <point x="799" y="1165" type="curve" smooth="yes"/>
      <point x="808" y="1174"/>
      <point x="805" y="1183"/>
      <point x="800" y="1186" type="curve" smooth="yes"/>
      <point x="746" y="1229"/>
      <point x="704" y="1270"/>
      <point x="656" y="1324" type="curve"/>
      <point x="743" y="1330"/>
      <point x="790" y="1374"/>
      <point x="790" y="1431" type="curve" smooth="yes"/>
      <point x="790" y="1494"/>
      <point x="751" y="1516"/>
      <point x="669" y="1516" type="curve" smooth="yes"/>
      <point x="604" y="1516" type="line" smooth="yes"/>
      <point x="591" y="1516"/>
      <point x="586" y="1513"/>
      <point x="586" y="1506" type="curve" smooth="yes"/>
      <point x="586" y="1171" type="line" smooth="yes"/>
      <point x="586" y="1164"/>
      <point x="593" y="1161"/>
    </contour>
    <contour>
      <point x="620" y="1350" type="curve"/>
      <point x="620" y="1486" type="line"/>
      <point x="674" y="1486" type="line" smooth="yes"/>
      <point x="730" y="1486"/>
      <point x="755" y="1471"/>
      <point x="755" y="1431" type="curve" smooth="yes"/>
      <point x="755" y="1379"/>
      <point x="711" y="1351"/>
    </contour>
  </outline>
</glyph>
<glyph name="Thorn" format="2">
  <advance width="1113"/>
  <unicode hex="00DE"/>
  <outline>
    <contour>
      <point x="175" y="-14" type="curve" smooth="yes"/>
      <point x="190" y="-14"/>
      <point x="194" y="-11"/>
      <point x="198" y="1" type="curve" smooth="yes"/>
      <point x="321" y="384" type="line"/>
      <point x="431" y="391"/>
      <point x="530" y="401"/>
      <point x="633" y="415" type="curve" smooth="yes"/>
      <point x="991" y="465"/>
      <point x="1204" y="669"/>
      <point x="1204" y="964" type="curve" smooth="yes"/>
      <point x="1204" y="1171"/>
      <point x="1084" y="1238"/>
      <point x="854" y="1238" type="curve" smooth="yes"/>
      <point x="599" y="1238" type="line"/>
      <point x="685" y="1500" type="line" smooth="yes"/>
      <point x="689" y="1511"/>
      <point x="683" y="1515"/>
      <point x="670" y="1515" type="curve" smooth="yes"/>
      <point x="654" y="1515"/>
      <point x="650" y="1511"/>
      <point x="646" y="1500" type="curve" smooth="yes"/>
      <point x="160" y="1" type="line" smooth="yes"/>
      <point x="156" y="-10"/>
      <point x="163" y="-14"/>
    </contour>
    <contour>
      <point x="334" y="423" type="curve"/>
      <point x="588" y="1203" type="line"/>
      <point x="859" y="1203" type="line" smooth="yes"/>
      <point x="1055" y="1203"/>
      <point x="1163" y="1144"/>
      <point x="1163" y="964" type="curve" smooth="yes"/>
      <point x="1163" y="686"/>
      <point x="961" y="495"/>
      <point x="621" y="449" type="curve" smooth="yes"/>
      <point x="539" y="438"/>
      <point x="430" y="426"/>
    </contour>
  </outline>
</glyph>
<glyph name="ae" format="2">
  <advance width="894"/>
  <unicode hex="00E6"/>
  <anchor x="534" y="500" name="top"/>
  <outline>
    <contour>
      <point x="56" y="144" type="curve" smooth="yes"/>
      <point x="56" y="51"/>
      <point x="100" y="-17"/>
      <point x="175" y="-17" type="curve" smooth="yes"/>
      <point x="274" y="-17"/>
      <point x="376" y="71"/>
      <point x="520" y="366" type="curve"/>
      <point x="494" y="378" type="line"/>
      <point x="355" y="109"/>
      <point x="259" y="18"/>
      <point x="179" y="18" type="curve" smooth="yes"/>
      <point x="121" y="18"/>
      <point x="99" y="76"/>
      <point x="99" y="145" type="curve" smooth="yes"/>
      <point x="99" y="284"/>
      <point x="193" y="485"/>
      <point x="383" y="485" type="curve" smooth="yes"/>
      <point x="449" y="485"/>
      <point x="498" y="469"/>
      <point x="546" y="446" type="curve"/>
      <point x="546" y="465" type="line"/>
      <point x="499" y="395"/>
      <point x="435" y="280"/>
      <point x="435" y="173" type="curve" smooth="yes"/>
      <point x="435" y="65"/>
      <point x="491" y="-19"/>
      <point x="596" y="-19" type="curve" smooth="yes"/>
      <point x="689" y="-19"/>
      <point x="764" y="34"/>
      <point x="800" y="69" type="curve" smooth="yes"/>
      <point x="809" y="78"/>
      <point x="804" y="88"/>
      <point x="799" y="93" type="curve" smooth="yes"/>
      <point x="793" y="98"/>
      <point x="786" y="100"/>
      <point x="778" y="93" type="curve" smooth="yes"/>
      <point x="740" y="60"/>
      <point x="680" y="15"/>
      <point x="598" y="15" type="curve" smooth="yes"/>
      <point x="529" y="15"/>
      <point x="474" y="65"/>
      <point x="474" y="171" type="curve" smooth="yes"/>
      <point x="474" y="275"/>
      <point x="529" y="376"/>
      <point x="593" y="466" type="curve"/>
      <point x="515" y="504"/>
      <point x="463" y="519"/>
      <point x="389" y="519" type="curve" smooth="yes"/>
      <point x="168" y="519"/>
      <point x="56" y="299"/>
    </contour>
    <contour>
      <point x="876" y="406" type="curve" smooth="yes"/>
      <point x="876" y="479"/>
      <point x="810" y="519"/>
      <point x="720" y="519" type="curve" smooth="yes"/>
      <point x="654" y="519"/>
      <point x="603" y="503"/>
      <point x="550" y="476" type="curve"/>
      <point x="563" y="441" type="line"/>
      <point x="614" y="471"/>
      <point x="661" y="485"/>
      <point x="715" y="485" type="curve" smooth="yes"/>
      <point x="779" y="485"/>
      <point x="835" y="461"/>
      <point x="835" y="400" type="curve" smooth="yes"/>
      <point x="835" y="286"/>
      <point x="651" y="245"/>
      <point x="475" y="243" type="curve"/>
      <point x="464" y="209" type="line"/>
      <point x="656" y="211"/>
      <point x="876" y="256"/>
    </contour>
  </outline>
</glyph>
<glyph name="eth" format="2">
  <advance width="603"/>
  <unicode hex="00F0"/>
  <guideline x="286" y="656" angle="72"/>
  <outline>
    <contour>
      <point x="245" y="-19" type="curve" smooth="yes"/>
      <point x="369" y="-19"/>
      <point x="481" y="86"/>
      <point x="549" y="331" type="curve" smooth="yes"/>
      <point x="631" y="630"/>
      <point x="673" y="1121"/>
      <point x="615" y="1509" type="curve" smooth="yes"/>
      <point x="614" y="1516"/>
      <point x="608" y="1521"/>
      <point x="594" y="1519" type="curve" smooth="yes"/>
      <point x="583" y="1516"/>
      <point x="578" y="1511"/>
      <point x="579" y="1501" type="curve" smooth="yes"/>
      <point x="629" y="1149"/>
      <point x="598" y="720"/>
      <point x="533" y="424" type="curve"/>
      <point x="485" y="486"/>
      <point x="428" y="519"/>
      <point x="361" y="519" type="curve" smooth="yes"/>
      <point x="181" y="519"/>
      <point x="76" y="320"/>
      <point x="76" y="164" type="curve" smooth="yes"/>
      <point x="76" y="55"/>
      <point x="139" y="-19"/>
    </contour>
    <contour>
      <point x="249" y="16" type="curve" smooth="yes"/>
      <point x="166" y="16"/>
      <point x="116" y="75"/>
      <point x="116" y="164" type="curve" smooth="yes"/>
      <point x="116" y="299"/>
      <point x="208" y="484"/>
      <point x="355" y="484" type="curve" smooth="yes"/>
      <point x="418" y="484"/>
      <point x="474" y="455"/>
      <point x="524" y="382" type="curve"/>
      <point x="521" y="368"/>
      <point x="517" y="354"/>
      <point x="513" y="340" type="curve" smooth="yes"/>
      <point x="450" y="108"/>
      <point x="346" y="16"/>
    </contour>
    <contour>
      <point x="481" y="1148" type="curve" smooth="yes"/>
      <point x="763" y="1260" type="line" smooth="yes"/>
      <point x="773" y="1264"/>
      <point x="774" y="1270"/>
      <point x="771" y="1281" type="curve" smooth="yes"/>
      <point x="768" y="1295"/>
      <point x="760" y="1299"/>
      <point x="750" y="1295" type="curve" smooth="yes"/>
      <point x="470" y="1183" type="line" smooth="yes"/>
      <point x="459" y="1178"/>
      <point x="458" y="1171"/>
      <point x="460" y="1160" type="curve" smooth="yes"/>
      <point x="464" y="1148"/>
      <point x="471" y="1144"/>
    </contour>
  </outline>
</glyph>
<glyph name="thorn" format="2">
  <advance width="598"/>
  <unicode hex="00FE"/>
  <outline>
    <contour>
      <point x="-272" y="-1015" type="curve" smooth="yes"/>
      <point x="-259" y="-1015"/>
      <point x="-254" y="-1011"/>
      <point x="-250" y="-1000" type="curve" smooth="yes"/>
      <point x="84" y="30" type="line"/>
      <point x="125" y="0"/>
      <point x="176" y="-17"/>
      <point x="219" y="-17" type="curve" smooth="yes"/>
      <point x="443" y="-17"/>
      <point x="539" y="205"/>
      <point x="539" y="350" type="curve" smooth="yes"/>
      <point x="539" y="454"/>
      <point x="488" y="519"/>
      <point x="400" y="519" type="curve" smooth="yes"/>
      <point x="354" y="519"/>
      <point x="279" y="500"/>
      <point x="210" y="416" type="curve"/>
      <point x="563" y="1500" type="line" smooth="yes"/>
      <point x="566" y="1510"/>
      <point x="558" y="1515"/>
      <point x="545" y="1515" type="curve" smooth="yes"/>
      <point x="530" y="1515"/>
      <point x="526" y="1511"/>
      <point x="523" y="1500" type="curve" smooth="yes"/>
      <point x="-289" y="-999" type="line" smooth="yes"/>
      <point x="-292" y="-1009"/>
      <point x="-289" y="-1015"/>
    </contour>
    <contour>
      <point x="94" y="61" type="curve"/>
      <point x="178" y="318" type="line"/>
      <point x="248" y="441"/>
      <point x="325" y="484"/>
      <point x="393" y="484" type="curve" smooth="yes"/>
      <point x="464" y="484"/>
      <point x="496" y="430"/>
      <point x="496" y="349" type="curve" smooth="yes"/>
      <point x="496" y="213"/>
      <point x="413" y="16"/>
      <point x="225" y="16" type="curve" smooth="yes"/>
      <point x="189" y="16"/>
      <point x="148" y="26"/>
    </contour>
  </outline>
</glyph>
<glyph name="Eng" format="2">
  <advance width="1375"/>
  <unicode hex="014A"/>
  <outline>
    <contour>
      <point x="983" y="-217" type="curve" smooth="yes"/>
      <point x="1538" y="1500" type="line" smooth="yes"/>
      <point x="1541" y="1511"/>
      <point x="1535" y="1515"/>
      <point x="1523" y="1515" type="curve" smooth="yes"/>
      <point x="1508" y="1515"/>
      <point x="1504" y="1511"/>
      <point x="1500" y="1500" type="curve" smooth="yes"/>
      <point x="1036" y="61" type="line"/>
      <point x="689" y="1503" type="line" smooth="yes"/>
      <point x="686" y="1513"/>
      <point x="681" y="1515"/>
      <point x="666" y="1515" type="curve" smooth="yes"/>
      <point x="654" y="1515"/>
      <point x="650" y="1511"/>
      <point x="646" y="1500" type="curve" smooth="yes"/>
      <point x="163" y="1" type="line" smooth="yes"/>
      <point x="159" y="-10"/>
      <point x="165" y="-14"/>
      <point x="178" y="-14" type="curve" smooth="yes"/>
      <point x="194" y="-14"/>
      <point x="198" y="-10"/>
      <point x="201" y="1" type="curve" smooth="yes"/>
      <point x="666" y="1440" type="line"/>
      <point x="1014" y="-6" type="line"/>
      <point x="944" y="-219" type="line" smooth="yes"/>
      <point x="900" y="-360"/>
      <point x="859" y="-407"/>
      <point x="779" y="-407" type="curve" smooth="yes"/>
      <point x="728" y="-407"/>
      <point x="679" y="-362"/>
      <point x="663" y="-300" type="curve" smooth="yes"/>
      <point x="660" y="-289"/>
      <point x="653" y="-285"/>
      <point x="639" y="-290" type="curve" smooth="yes"/>
      <point x="629" y="-294"/>
      <point x="624" y="-301"/>
      <point x="626" y="-312" type="curve" smooth="yes"/>
      <point x="645" y="-387"/>
      <point x="708" y="-442"/>
      <point x="775" y="-442" type="curve" smooth="yes"/>
      <point x="878" y="-442"/>
      <point x="930" y="-385"/>
    </contour>
  </outline>
</glyph>
<glyph name="Ohorn" format="2">
  <advance width="1432"/>
  <unicode hex="01A0"/>
  <anchor x="635" y="0" name="bottom"/>
  <anchor x="878" y="744" name="center"/>
  <anchor x="1215" y="21" name="ogonek"/>
  <anchor x="1063" y="1424" name="top"/>
  <outline>
    <contour>
      <point x="683" y="-19" type="curve" smooth="yes"/>
      <point x="1136" y="-19"/>
      <point x="1501" y="548"/>
      <point x="1501" y="1065" type="curve" smooth="yes"/>
      <point x="1501" y="1207"/>
      <point x="1463" y="1320"/>
      <point x="1391" y="1397" type="curve"/>
      <point x="1551" y="1417"/>
      <point x="1607" y="1534"/>
      <point x="1546" y="1686" type="curve" smooth="yes"/>
      <point x="1538" y="1706"/>
      <point x="1500" y="1694"/>
      <point x="1507" y="1672" type="curve" smooth="yes"/>
      <point x="1553" y="1526"/>
      <point x="1517" y="1443"/>
      <point x="1364" y="1424" type="curve"/>
      <point x="1295" y="1483"/>
      <point x="1201" y="1515"/>
      <point x="1086" y="1515" type="curve" smooth="yes"/>
      <point x="634" y="1515"/>
      <point x="266" y="999"/>
      <point x="266" y="463" type="curve" smooth="yes"/>
      <point x="266" y="161"/>
      <point x="419" y="-19"/>
    </contour>
    <contour>
      <point x="681" y="19" type="curve" smooth="yes"/>
      <point x="446" y="19"/>
      <point x="308" y="183"/>
      <point x="308" y="463" type="curve" smooth="yes"/>
      <point x="308" y="981"/>
      <point x="660" y="1478"/>
      <point x="1086" y="1478" type="curve" smooth="yes"/>
      <point x="1321" y="1478"/>
      <point x="1460" y="1325"/>
      <point x="1460" y="1065" type="curve" smooth="yes"/>
      <point x="1460" y="566"/>
      <point x="1108" y="19"/>
    </contour>
  </outline>
</glyph>
<glyph name="Uhorn" format="2">
  <advance width="1337"/>
  <unicode hex="01AF"/>
  <anchor x="589" y="0" name="bottom"/>
  <anchor x="843" y="21" name="ogonek"/>
  <anchor x="1019" y="1424" name="top"/>
  <anchor x="1504" y="1509" name="topright"/>
  <outline>
    <contour>
      <point x="1656" y="1680" type="curve" smooth="yes"/>
      <point x="1648" y="1700"/>
      <point x="1610" y="1688"/>
      <point x="1617" y="1666" type="curve" smooth="yes"/>
      <point x="1644" y="1582"/>
      <point x="1630" y="1514"/>
      <point x="1504" y="1509" type="curve"/>
      <point x="1495" y="1482" type="line"/>
      <point x="1649" y="1472"/>
      <point x="1698" y="1574"/>
    </contour>
    <component base="U"/>
  </outline>
</glyph>
<glyph name="jdotless" format="2">
  <advance width="268"/>
  <unicode hex="0237"/>
  <guideline x="185" y="489" angle="72"/>
  <anchor x="211" y="500" name="top"/>
  <outline>
    <contour>
      <point x="-352" y="-1017" type="curve" smooth="yes"/>
      <point x="-285" y="-1017"/>
      <point x="-251" y="-984"/>
      <point x="-219" y="-886" type="curve" smooth="yes"/>
      <point x="235" y="499" type="line" smooth="yes"/>
      <point x="239" y="510"/>
      <point x="230" y="515"/>
      <point x="218" y="515" type="curve" smooth="yes"/>
      <point x="205" y="515"/>
      <point x="199" y="511"/>
      <point x="195" y="500" type="curve" smooth="yes"/>
      <point x="-256" y="-882" type="line" smooth="yes"/>
      <point x="-281" y="-960"/>
      <point x="-302" y="-982"/>
      <point x="-349" y="-982" type="curve" smooth="yes"/>
      <point x="-380" y="-982"/>
      <point x="-402" y="-965"/>
      <point x="-417" y="-929" type="curve" smooth="yes"/>
      <point x="-422" y="-919"/>
      <point x="-430" y="-916"/>
      <point x="-441" y="-922" type="curve" smooth="yes"/>
      <point x="-452" y="-929"/>
      <point x="-455" y="-936"/>
      <point x="-451" y="-946" type="curve" smooth="yes"/>
      <point x="-434" y="-991"/>
      <point x="-396" y="-1017"/>
    </contour>
  </outline>
</glyph>
<glyph name="hookabovecomb" format="2">
  <unicode hex="0309"/>
  <anchor x="81" y="500" name="_top"/>
  <anchor x="170" y="774" name="top"/>
  <outline>
    <contour>
      <point x="158" y="838" type="curve" smooth="yes"/>
      <point x="128" y="838"/>
      <point x="98" y="829"/>
      <point x="74" y="813" type="curve" smooth="yes"/>
      <point x="64" y="805"/>
      <point x="61" y="796"/>
      <point x="65" y="788" type="curve" smooth="yes"/>
      <point x="70" y="779"/>
      <point x="79" y="776"/>
      <point x="89" y="783" type="curve" smooth="yes"/>
      <point x="114" y="796"/>
      <point x="133" y="803"/>
      <point x="155" y="803" type="curve" smooth="yes"/>
      <point x="180" y="803"/>
      <point x="195" y="791"/>
      <point x="195" y="770" type="curve" smooth="yes"/>
      <point x="195" y="746"/>
      <point x="179" y="731"/>
      <point x="149" y="718" type="curve" smooth="yes"/>
      <point x="119" y="704"/>
      <point x="101" y="674"/>
      <point x="108" y="644" type="curve" smooth="yes"/>
      <point x="111" y="625" type="line" smooth="yes"/>
      <point x="115" y="609"/>
      <point x="151" y="614"/>
      <point x="146" y="634" type="curve" smooth="yes"/>
      <point x="144" y="644" type="line" smooth="yes"/>
      <point x="138" y="666"/>
      <point x="149" y="680"/>
      <point x="173" y="693" type="curve" smooth="yes"/>
      <point x="213" y="714"/>
      <point x="234" y="738"/>
      <point x="234" y="770" type="curve" smooth="yes"/>
      <point x="234" y="810"/>
      <point x="204" y="838"/>
    </contour>
  </outline>
</glyph>
<glyph name="cedillacomb" format="2">
  <unicode hex="0327"/>
  <anchor x="-81" y="0" name="_bottom"/>
  <anchor x="-167" y="-262" name="bottom"/>
  <outline>
    <contour>
      <point x="-136" y="-261" type="curve" smooth="yes"/>
      <point x="-61" y="-261"/>
      <point x="-17" y="-224"/>
      <point x="-17" y="-169" type="curve" smooth="yes"/>
      <point x="-17" y="-114"/>
      <point x="-57" y="-82"/>
      <point x="-129" y="-97" type="curve"/>
      <point x="-121" y="-109" type="line"/>
      <point x="-54" y="0" type="line"/>
      <point x="-86" y="0" type="line"/>
      <point x="-145" y="-92" type="line" smooth="yes"/>
      <point x="-152" y="-105"/>
      <point x="-152" y="-110"/>
      <point x="-150" y="-119" type="curve" smooth="yes"/>
      <point x="-147" y="-126"/>
      <point x="-142" y="-129"/>
      <point x="-134" y="-127" type="curve" smooth="yes"/>
      <point x="-81" y="-121"/>
      <point x="-59" y="-135"/>
      <point x="-59" y="-169" type="curve" smooth="yes"/>
      <point x="-59" y="-207"/>
      <point x="-85" y="-226"/>
      <point x="-130" y="-226" type="curve" smooth="yes"/>
      <point x="-156" y="-226"/>
      <point x="-180" y="-220"/>
      <point x="-200" y="-210" type="curve" smooth="yes"/>
      <point x="-209" y="-206"/>
      <point x="-215" y="-206"/>
      <point x="-222" y="-215" type="curve" smooth="yes"/>
      <point x="-229" y="-224"/>
      <point x="-230" y="-232"/>
      <point x="-221" y="-239" type="curve" smooth="yes"/>
      <point x="-196" y="-257"/>
      <point x="-159" y="-261"/>
    </contour>
  </outline>
</glyph>
<glyph name="ogonekcomb" format="2">
  <unicode hex="0328"/>
  <anchor x="8" y="0" name="_ogonek"/>
  <outline>
    <contour>
      <point x="-136" y="-257" type="curve" smooth="yes"/>
      <point x="-89" y="-257"/>
      <point x="-49" y="-232"/>
      <point x="-19" y="-190" type="curve" smooth="yes"/>
      <point x="-12" y="-182"/>
      <point x="-11" y="-176"/>
      <point x="-19" y="-169" type="curve" smooth="yes"/>
      <point x="-27" y="-160"/>
      <point x="-36" y="-162"/>
      <point x="-41" y="-169" type="curve" smooth="yes"/>
      <point x="-71" y="-207"/>
      <point x="-101" y="-225"/>
      <point x="-130" y="-225" type="curve" smooth="yes"/>
      <point x="-154" y="-225"/>
      <point x="-165" y="-209"/>
      <point x="-165" y="-186" type="curve" smooth="yes"/>
      <point x="-165" y="-120"/>
      <point x="-52" y="-37"/>
      <point x="6" y="0" type="curve"/>
      <point x="6" y="4" type="line"/>
      <point x="-26" y="9" type="line"/>
      <point x="-100" y="-40"/>
      <point x="-204" y="-111"/>
      <point x="-204" y="-191" type="curve" smooth="yes"/>
      <point x="-204" y="-231"/>
      <point x="-175" y="-257"/>
    </contour>
  </outline>
</glyph>
<glyph name="quoteleft" format="2">
  <advance width="181"/>
  <unicode hex="2018"/>
  <guideline x="332" y="1329" angle="0"/>
  <outline>
    <contour>
      <point x="343" y="975" type="curve" smooth="yes"/>
      <point x="361" y="975"/>
      <point x="373" y="984"/>
      <point x="375" y="1000" type="curve" smooth="yes"/>
      <point x="393" y="1139"/>
      <point x="426" y="1219"/>
      <point x="480" y="1294" type="curve" smooth="yes"/>
      <point x="484" y="1300"/>
      <point x="486" y="1304"/>
      <point x="486" y="1308" type="curve" smooth="yes"/>
      <point x="486" y="1316"/>
      <point x="475" y="1329"/>
      <point x="467" y="1329" type="curve" smooth="yes"/>
      <point x="459" y="1329"/>
      <point x="450" y="1321"/>
      <point x="443" y="1313" type="curve" smooth="yes"/>
      <point x="353" y="1216"/>
      <point x="318" y="1070"/>
      <point x="318" y="996" type="curve" smooth="yes"/>
      <point x="318" y="983"/>
      <point x="325" y="975"/>
    </contour>
  </outline>
</glyph>
<glyph name="quoteright" format="2">
  <advance width="194"/>
  <unicode hex="2019"/>
  <outline>
    <contour>
      <point x="505" y="1519" type="curve" smooth="yes"/>
      <point x="485" y="1519"/>
      <point x="473" y="1510"/>
      <point x="471" y="1494" type="curve" smooth="yes"/>
      <point x="453" y="1385"/>
      <point x="431" y="1335"/>
      <point x="378" y="1270" type="curve" smooth="yes"/>
      <point x="373" y="1264"/>
      <point x="371" y="1260"/>
      <point x="371" y="1256" type="curve" smooth="yes"/>
      <point x="371" y="1248"/>
      <point x="385" y="1235"/>
      <point x="393" y="1235" type="curve" smooth="yes"/>
      <point x="401" y="1235"/>
      <point x="410" y="1243"/>
      <point x="418" y="1250" type="curve" smooth="yes"/>
      <point x="507" y="1338"/>
      <point x="532" y="1454"/>
      <point x="532" y="1498" type="curve" smooth="yes"/>
      <point x="532" y="1511"/>
      <point x="525" y="1519"/>
    </contour>
  </outline>
</glyph>
<glyph name="minute" format="2">
  <advance width="240"/>
  <unicode hex="2032"/>
  <outline>
    <contour>
      <point x="392" y="1235" type="curve" smooth="yes"/>
      <point x="401" y="1235"/>
      <point x="410" y="1239"/>
      <point x="415" y="1249" type="curve" smooth="yes"/>
      <point x="541" y="1486" type="line" smooth="yes"/>
      <point x="551" y="1505"/>
      <point x="543" y="1519"/>
      <point x="516" y="1519" type="curve" smooth="yes"/>
      <point x="501" y="1519"/>
      <point x="492" y="1512"/>
      <point x="484" y="1494" type="curve" smooth="yes"/>
      <point x="376" y="1255" type="line" smooth="yes"/>
      <point x="371" y="1243"/>
      <point x="378" y="1235"/>
    </contour>
  </outline>
</glyph>
<glyph name="euro" format="2">
  <advance width="1201"/>
  <unicode hex="20AC"/>
  <outline>
    <contour>
      <point x="635" y="-19" type="curve" smooth="yes"/>
      <point x="811" y="-19"/>
      <point x="985" y="73"/>
      <point x="1120" y="216" type="curve" smooth="yes"/>
      <point x="1135" y="233"/>
      <point x="1139" y="238"/>
      <point x="1128" y="249" type="curve" smooth="yes"/>
      <point x="1116" y="260"/>
      <point x="1109" y="258"/>
      <point x="1095" y="243" type="curve" smooth="yes"/>
      <point x="956" y="95"/>
      <point x="793" y="19"/>
      <point x="639" y="19" type="curve" smooth="yes"/>
      <point x="426" y="19"/>
      <point x="301" y="169"/>
      <point x="301" y="421" type="curve" smooth="yes"/>
      <point x="301" y="931"/>
      <point x="620" y="1478"/>
      <point x="1083" y="1478" type="curve" smooth="yes"/>
      <point x="1206" y="1478"/>
      <point x="1299" y="1426"/>
      <point x="1368" y="1326" type="curve" smooth="yes"/>
      <point x="1380" y="1308"/>
      <point x="1388" y="1304"/>
      <point x="1399" y="1311" type="curve" smooth="yes"/>
      <point x="1411" y="1319"/>
      <point x="1410" y="1328"/>
      <point x="1398" y="1348" type="curve" smooth="yes"/>
      <point x="1333" y="1453"/>
      <point x="1215" y="1515"/>
      <point x="1084" y="1515" type="curve" smooth="yes"/>
      <point x="601" y="1515"/>
      <point x="260" y="960"/>
      <point x="260" y="426" type="curve" smooth="yes"/>
      <point x="260" y="146"/>
      <point x="399" y="-19"/>
    </contour>
    <contour>
      <point x="195" y="816" type="curve" smooth="yes"/>
      <point x="1060" y="816" type="line" smooth="yes"/>
      <point x="1066" y="816"/>
      <point x="1074" y="823"/>
      <point x="1078" y="835" type="curve" smooth="yes"/>
      <point x="1081" y="848"/>
      <point x="1078" y="851"/>
      <point x="1071" y="851" type="curve" smooth="yes"/>
      <point x="206" y="851" type="line" smooth="yes"/>
      <point x="200" y="851"/>
      <point x="194" y="846"/>
      <point x="190" y="834" type="curve" smooth="yes"/>
      <point x="186" y="821"/>
      <point x="189" y="816"/>
    </contour>
    <contour>
      <point x="143" y="636" type="curve" smooth="yes"/>
      <point x="1008" y="636" type="line" smooth="yes"/>
      <point x="1014" y="636"/>
      <point x="1020" y="643"/>
      <point x="1024" y="655" type="curve" smooth="yes"/>
      <point x="1029" y="668"/>
      <point x="1025" y="671"/>
      <point x="1019" y="671" type="curve" smooth="yes"/>
      <point x="154" y="671" type="line" smooth="yes"/>
      <point x="148" y="671"/>
      <point x="140" y="666"/>
      <point x="136" y="654" type="curve" smooth="yes"/>
      <point x="133" y="641"/>
      <point x="136" y="636"/>
    </contour>
  </outline>
</glyph>
<glyph name="A.cur" format="2">
  <advance width="1518"/>
  <anchor x="601" y="0" name="bottom"/>
  <anchor x="1364" y="21" name="ogonek"/>
  <anchor x="1044" y="1424" name="top"/>
  <outline>
    <contour>
      <point x="605" y="-17" type="curve" smooth="yes"/>
      <point x="838" y="-17"/>
      <point x="1039" y="150"/>
      <point x="1209" y="480" type="curve"/>
      <point x="1144" y="284" type="line" smooth="yes"/>
      <point x="1079" y="86"/>
      <point x="1125" y="-17"/>
      <point x="1246" y="-17" type="curve" smooth="yes"/>
      <point x="1336" y="-17"/>
      <point x="1398" y="40"/>
      <point x="1464" y="176" type="curve" smooth="yes"/>
      <point x="1470" y="188"/>
      <point x="1474" y="199"/>
      <point x="1459" y="206" type="curve" smooth="yes"/>
      <point x="1448" y="213"/>
      <point x="1439" y="209"/>
      <point x="1433" y="196" type="curve" smooth="yes"/>
      <point x="1378" y="76"/>
      <point x="1325" y="19"/>
      <point x="1256" y="19" type="curve" smooth="yes"/>
      <point x="1156" y="19"/>
      <point x="1121" y="96"/>
      <point x="1180" y="274" type="curve" smooth="yes"/>
      <point x="1356" y="813" type="line" smooth="yes"/>
      <point x="1361" y="828"/>
      <point x="1355" y="831"/>
      <point x="1345" y="831" type="curve" smooth="yes"/>
      <point x="1328" y="831"/>
      <point x="1324" y="829"/>
      <point x="1318" y="811" type="curve"/>
      <point x="1139" y="336"/>
      <point x="910" y="20"/>
      <point x="611" y="20" type="curve" smooth="yes"/>
      <point x="461" y="20"/>
      <point x="300" y="126"/>
      <point x="300" y="425" type="curve" smooth="yes"/>
      <point x="300" y="985"/>
      <point x="661" y="1478"/>
      <point x="1071" y="1478" type="curve" smooth="yes"/>
      <point x="1265" y="1478"/>
      <point x="1394" y="1364"/>
      <point x="1428" y="1151" type="curve" smooth="yes"/>
      <point x="1430" y="1136"/>
      <point x="1438" y="1129"/>
      <point x="1449" y="1131" type="curve" smooth="yes"/>
      <point x="1461" y="1134"/>
      <point x="1465" y="1144"/>
      <point x="1463" y="1160" type="curve" smooth="yes"/>
      <point x="1429" y="1384"/>
      <point x="1285" y="1515"/>
      <point x="1076" y="1515" type="curve" smooth="yes"/>
      <point x="640" y="1515"/>
      <point x="259" y="1008"/>
      <point x="259" y="425" type="curve" smooth="yes"/>
      <point x="259" y="100"/>
      <point x="441" y="-17"/>
    </contour>
  </outline>
</glyph>
<glyph name="A.cur.ini" format="2">
  <advance width="1440"/>
  <anchor x="601" y="0" name="bottom"/>
  <anchor x="1359" y="0" name="cnct"/>
  <anchor x="1364" y="21" name="ogonek"/>
  <anchor x="1044" y="1424" name="top"/>
  <outline>
    <contour>
      <point x="605" y="-17" type="curve" smooth="yes"/>
      <point x="838" y="-17"/>
      <point x="1039" y="150"/>
      <point x="1209" y="480" type="curve"/>
      <point x="1159" y="329" type="line" smooth="yes"/>
      <point x="1078" y="85"/>
      <point x="1171" y="-17"/>
      <point x="1305" y="-17" type="curve" smooth="yes"/>
      <point x="1330" y="-17"/>
      <point x="1341" y="18"/>
      <point x="1316" y="18" type="curve" smooth="yes"/>
      <point x="1199" y="18"/>
      <point x="1121" y="96"/>
      <point x="1194" y="316" type="curve" smooth="yes"/>
      <point x="1356" y="813" type="line" smooth="yes"/>
      <point x="1361" y="828"/>
      <point x="1355" y="831"/>
      <point x="1345" y="831" type="curve" smooth="yes"/>
      <point x="1328" y="831"/>
      <point x="1324" y="829"/>
      <point x="1318" y="811" type="curve"/>
      <point x="1139" y="336"/>
      <point x="910" y="20"/>
      <point x="611" y="20" type="curve" smooth="yes"/>
      <point x="461" y="20"/>
      <point x="300" y="125"/>
      <point x="300" y="425" type="curve" smooth="yes"/>
      <point x="300" y="985"/>
      <point x="661" y="1478"/>
      <point x="1071" y="1478" type="curve" smooth="yes"/>
      <point x="1265" y="1478"/>
      <point x="1394" y="1364"/>
      <point x="1428" y="1151" type="curve" smooth="yes"/>
      <point x="1430" y="1136"/>
      <point x="1438" y="1129"/>
      <point x="1449" y="1131" type="curve" smooth="yes"/>
      <point x="1461" y="1134"/>
      <point x="1465" y="1144"/>
      <point x="1463" y="1160" type="curve" smooth="yes"/>
      <point x="1429" y="1384"/>
      <point x="1285" y="1515"/>
      <point x="1076" y="1515" type="curve" smooth="yes"/>
      <point x="640" y="1515"/>
      <point x="259" y="1008"/>
      <point x="259" y="425" type="curve" smooth="yes"/>
      <point x="259" y="99"/>
      <point x="441" y="-17"/>
    </contour>
  </outline>
</glyph>
<glyph name="A.cur_locl" format="2">
  <advance width="1518"/>
  <anchor x="601" y="0" name="bottom"/>
  <anchor x="1364" y="21" name="ogonek"/>
  <anchor x="1044" y="1424" name="top"/>
  <outline>
    <contour>
      <point x="605" y="-17" type="curve" smooth="yes"/>
      <point x="854" y="-17"/>
      <point x="1041" y="146"/>
      <point x="1203" y="463" type="curve"/>
      <point x="1144" y="284" type="line" smooth="yes"/>
      <point x="1079" y="85"/>
      <point x="1125" y="-19"/>
      <point x="1246" y="-19" type="curve" smooth="yes"/>
      <point x="1336" y="-19"/>
      <point x="1398" y="39"/>
      <point x="1464" y="175" type="curve" smooth="yes"/>
      <point x="1470" y="186"/>
      <point x="1474" y="198"/>
      <point x="1459" y="205" type="curve" smooth="yes"/>
      <point x="1448" y="211"/>
      <point x="1439" y="208"/>
      <point x="1433" y="195" type="curve" smooth="yes"/>
      <point x="1378" y="75"/>
      <point x="1325" y="18"/>
      <point x="1256" y="18" type="curve" smooth="yes"/>
      <point x="1156" y="18"/>
      <point x="1121" y="94"/>
      <point x="1180" y="274" type="curve" smooth="yes"/>
      <point x="1580" y="1496" type="line" smooth="yes"/>
      <point x="1585" y="1510"/>
      <point x="1579" y="1515"/>
      <point x="1569" y="1515" type="curve" smooth="yes"/>
      <point x="1551" y="1515"/>
      <point x="1546" y="1510"/>
      <point x="1541" y="1495" type="curve" smooth="yes"/>
      <point x="1450" y="1218" type="line"/>
      <point x="1403" y="1403"/>
      <point x="1263" y="1515"/>
      <point x="1076" y="1515" type="curve" smooth="yes"/>
      <point x="640" y="1515"/>
      <point x="259" y="1008"/>
      <point x="259" y="425" type="curve" smooth="yes"/>
      <point x="259" y="100"/>
      <point x="441" y="-17"/>
    </contour>
    <contour>
      <point x="300" y="425" type="curve" smooth="yes"/>
      <point x="300" y="985"/>
      <point x="661" y="1478"/>
      <point x="1071" y="1478" type="curve" smooth="yes"/>
      <point x="1271" y="1478"/>
      <point x="1398" y="1355"/>
      <point x="1429" y="1151" type="curve"/>
      <point x="1310" y="789" type="line"/>
      <point x="1104" y="250"/>
      <point x="875" y="20"/>
      <point x="611" y="20" type="curve" smooth="yes"/>
      <point x="461" y="20"/>
      <point x="300" y="126"/>
    </contour>
  </outline>
</glyph>
<glyph name="A.dec" format="2">
  <advance width="1423"/>
  <anchor x="738" y="0" name="bottom"/>
  <anchor x="1174" y="0" name="ogonek"/>
  <anchor x="1215" y="1424" name="top"/>
  <outline>
    <contour>
      <point x="149" y="-17" type="curve" smooth="yes"/>
      <point x="421" y="-17"/>
      <point x="647" y="292"/>
      <point x="1232" y="1427" type="curve"/>
      <point x="1172" y="970"/>
      <point x="1130" y="500"/>
      <point x="1134" y="3" type="curve" smooth="yes"/>
      <point x="1134" y="-14"/>
      <point x="1140" y="-17"/>
      <point x="1155" y="-16" type="curve" smooth="yes"/>
      <point x="1170" y="-15"/>
      <point x="1174" y="-9"/>
      <point x="1174" y="6" type="curve" smooth="yes"/>
      <point x="1170" y="526"/>
      <point x="1210" y="1008"/>
      <point x="1278" y="1493" type="curve"/>
      <point x="1279" y="1508"/>
      <point x="1273" y="1515"/>
      <point x="1258" y="1515" type="curve" smooth="yes"/>
      <point x="1243" y="1515"/>
      <point x="1234" y="1506"/>
      <point x="1226" y="1493" type="curve"/>
      <point x="631" y="334"/>
      <point x="394" y="20"/>
      <point x="154" y="20" type="curve" smooth="yes"/>
      <point x="101" y="20"/>
      <point x="60" y="33"/>
      <point x="34" y="46" type="curve"/>
      <point x="23" y="53"/>
      <point x="15" y="48"/>
      <point x="9" y="36" type="curve" smooth="yes"/>
      <point x="3" y="23"/>
      <point x="8" y="14"/>
      <point x="23" y="8" type="curve" smooth="yes"/>
      <point x="68" y="-11"/>
      <point x="111" y="-17"/>
    </contour>
    <contour>
      <point x="1134" y="131" type="curve"/>
      <point x="1163" y="149" type="line"/>
      <point x="1150" y="491"/>
      <point x="989" y="666"/>
      <point x="684" y="666" type="curve" smooth="yes"/>
      <point x="523" y="666"/>
      <point x="405" y="574"/>
      <point x="405" y="446" type="curve" smooth="yes"/>
      <point x="405" y="326"/>
      <point x="545" y="239"/>
      <point x="739" y="239" type="curve" smooth="yes"/>
      <point x="1021" y="239"/>
      <point x="1200" y="328"/>
      <point x="1449" y="579" type="curve" smooth="yes"/>
      <point x="1458" y="588"/>
      <point x="1459" y="595"/>
      <point x="1448" y="605" type="curve" smooth="yes"/>
      <point x="1439" y="613"/>
      <point x="1433" y="613"/>
      <point x="1426" y="606" type="curve" smooth="yes"/>
      <point x="1188" y="360"/>
      <point x="1015" y="274"/>
      <point x="739" y="274" type="curve" smooth="yes"/>
      <point x="569" y="274"/>
      <point x="446" y="346"/>
      <point x="446" y="446" type="curve" smooth="yes"/>
      <point x="446" y="554"/>
      <point x="546" y="631"/>
      <point x="684" y="631" type="curve" smooth="yes"/>
      <point x="968" y="631"/>
      <point x="1120" y="463"/>
    </contour>
  </outline>
</glyph>
<glyph name="A.dec_locl" format="2">
  <advance width="1573"/>
  <anchor x="738" y="0" name="bottom"/>
  <anchor x="1368" y="0" name="ogonek"/>
  <anchor x="1215" y="1424" name="top"/>
  <outline>
    <contour>
      <point x="149" y="-17" type="curve" smooth="yes"/>
      <point x="322" y="-17"/>
      <point x="476" y="107"/>
      <point x="715" y="488" type="curve"/>
      <point x="1140" y="488" type="line"/>
      <point x="1137" y="420"/>
      <point x="1136" y="351"/>
      <point x="1136" y="283" type="curve" smooth="yes"/>
      <point x="1136" y="71"/>
      <point x="1180" y="-17"/>
      <point x="1290" y="-17" type="curve" smooth="yes"/>
      <point x="1415" y="-17"/>
      <point x="1530" y="119"/>
      <point x="1618" y="390" type="curve" smooth="yes"/>
      <point x="1621" y="400"/>
      <point x="1615" y="406"/>
      <point x="1603" y="410" type="curve" smooth="yes"/>
      <point x="1591" y="414"/>
      <point x="1586" y="411"/>
      <point x="1583" y="401" type="curve" smooth="yes"/>
      <point x="1496" y="146"/>
      <point x="1393" y="19"/>
      <point x="1290" y="19" type="curve" smooth="yes"/>
      <point x="1208" y="19"/>
      <point x="1175" y="96"/>
      <point x="1175" y="281" type="curve" smooth="yes"/>
      <point x="1175" y="683"/>
      <point x="1221" y="1086"/>
      <point x="1278" y="1493" type="curve"/>
      <point x="1279" y="1508"/>
      <point x="1273" y="1515"/>
      <point x="1258" y="1515" type="curve" smooth="yes"/>
      <point x="1243" y="1515"/>
      <point x="1234" y="1506"/>
      <point x="1226" y="1493" type="curve"/>
      <point x="631" y="334"/>
      <point x="394" y="20"/>
      <point x="154" y="20" type="curve" smooth="yes"/>
      <point x="101" y="20"/>
      <point x="60" y="33"/>
      <point x="34" y="46" type="curve"/>
      <point x="23" y="53"/>
      <point x="15" y="48"/>
      <point x="9" y="36" type="curve" smooth="yes"/>
      <point x="3" y="23"/>
      <point x="8" y="14"/>
      <point x="23" y="8" type="curve" smooth="yes"/>
      <point x="68" y="-11"/>
      <point x="111" y="-17"/>
    </contour>
    <contour>
      <point x="735" y="520" type="line"/>
      <point x="868" y="737"/>
      <point x="1028" y="1032"/>
      <point x="1232" y="1426" type="curve"/>
      <point x="1191" y="1127"/>
      <point x="1155" y="823"/>
      <point x="1141" y="520" type="curve"/>
    </contour>
  </outline>
</glyph>
<glyph name="AE.cur" format="2">
  <advance width="2013"/>
  <anchor x="1493" y="1424" name="top"/>
  <outline>
    <contour>
      <point x="116" y="-17" type="curve" smooth="yes"/>
      <point x="251" y="-17"/>
      <point x="351" y="71"/>
      <point x="659" y="500" type="curve"/>
      <point x="1145" y="500" type="line"/>
      <point x="1139" y="452"/>
      <point x="1135" y="406"/>
      <point x="1131" y="360" type="curve" smooth="yes"/>
      <point x="1129" y="333"/>
      <point x="1128" y="326"/>
      <point x="1148" y="321" type="curve" smooth="yes"/>
      <point x="1163" y="318"/>
      <point x="1164" y="324"/>
      <point x="1166" y="348" type="curve" smooth="yes"/>
      <point x="1199" y="715"/>
      <point x="1280" y="1161"/>
      <point x="1361" y="1491" type="curve" smooth="yes"/>
      <point x="1365" y="1506"/>
      <point x="1356" y="1515"/>
      <point x="1343" y="1515" type="curve" smooth="yes"/>
      <point x="1325" y="1515"/>
      <point x="1316" y="1506"/>
      <point x="1299" y="1481" type="curve" smooth="yes"/>
      <point x="426" y="229"/>
      <point x="290" y="20"/>
      <point x="120" y="20" type="curve" smooth="yes"/>
      <point x="91" y="20"/>
      <point x="61" y="25"/>
      <point x="31" y="38" type="curve" smooth="yes"/>
      <point x="16" y="44"/>
      <point x="10" y="44"/>
      <point x="3" y="30" type="curve" smooth="yes"/>
      <point x="-6" y="13"/>
      <point x="3" y="5"/>
      <point x="19" y="-1" type="curve" smooth="yes"/>
      <point x="46" y="-11"/>
      <point x="76" y="-17"/>
    </contour>
    <contour>
      <point x="682" y="533" type="line"/>
      <point x="834" y="746"/>
      <point x="1035" y="1039"/>
      <point x="1312" y="1438" type="curve"/>
      <point x="1247" y="1165"/>
      <point x="1184" y="836"/>
      <point x="1148" y="533" type="curve"/>
    </contour>
    <contour>
      <point x="1454" y="-19" type="curve" smooth="yes"/>
      <point x="1618" y="-19"/>
      <point x="1779" y="53"/>
      <point x="1918" y="204" type="curve" smooth="yes"/>
      <point x="1934" y="223"/>
      <point x="1940" y="231"/>
      <point x="1931" y="243" type="curve" smooth="yes"/>
      <point x="1923" y="255"/>
      <point x="1911" y="253"/>
      <point x="1899" y="238" type="curve" smooth="yes"/>
      <point x="1768" y="90"/>
      <point x="1614" y="19"/>
      <point x="1464" y="19" type="curve" smooth="yes"/>
      <point x="1285" y="19"/>
      <point x="1168" y="125"/>
      <point x="1168" y="288" type="curve" smooth="yes"/>
      <point x="1168" y="548"/>
      <point x="1394" y="768"/>
      <point x="1653" y="768" type="curve" smooth="yes"/>
      <point x="1835" y="768" type="line" smooth="yes"/>
      <point x="1848" y="768"/>
      <point x="1853" y="771"/>
      <point x="1856" y="785" type="curve" smooth="yes"/>
      <point x="1859" y="796"/>
      <point x="1859" y="803"/>
      <point x="1845" y="803" type="curve" smooth="yes"/>
      <point x="1665" y="803" type="line" smooth="yes"/>
      <point x="1518" y="803"/>
      <point x="1421" y="899"/>
      <point x="1421" y="1045" type="curve" smooth="yes"/>
      <point x="1421" y="1261"/>
      <point x="1581" y="1478"/>
      <point x="1854" y="1478" type="curve" smooth="yes"/>
      <point x="1989" y="1478"/>
      <point x="2089" y="1424"/>
      <point x="2146" y="1334" type="curve" smooth="yes"/>
      <point x="2155" y="1321"/>
      <point x="2161" y="1320"/>
      <point x="2170" y="1326" type="curve" smooth="yes"/>
      <point x="2180" y="1334"/>
      <point x="2183" y="1343"/>
      <point x="2174" y="1356" type="curve" smooth="yes"/>
      <point x="2113" y="1456"/>
      <point x="1998" y="1515"/>
      <point x="1865" y="1515" type="curve" smooth="yes"/>
      <point x="1540" y="1515"/>
      <point x="1380" y="1258"/>
      <point x="1380" y="1041" type="curve" smooth="yes"/>
      <point x="1380" y="925"/>
      <point x="1444" y="825"/>
      <point x="1540" y="789" type="curve"/>
      <point x="1301" y="736"/>
      <point x="1126" y="519"/>
      <point x="1126" y="285" type="curve" smooth="yes"/>
      <point x="1126" y="101"/>
      <point x="1256" y="-19"/>
    </contour>
  </outline>
</glyph>
<glyph name="B.cur" format="2">
  <advance width="1385"/>
  <guideline x="222" y="104" angle="72.99"/>
  <anchor x="770" y="0" name="bottom"/>
  <anchor x="513" y="438" name="center"/>
  <anchor x="1099" y="1424" name="top"/>
  <outline>
    <contour>
      <point x="780" y="-19" type="curve" smooth="yes"/>
      <point x="1101" y="-19"/>
      <point x="1329" y="205"/>
      <point x="1329" y="514" type="curve" smooth="yes"/>
      <point x="1329" y="668"/>
      <point x="1225" y="785"/>
      <point x="1066" y="811" type="curve"/>
      <point x="1068" y="816" type="line"/>
      <point x="1298" y="868"/>
      <point x="1465" y="1045"/>
      <point x="1465" y="1239" type="curve" smooth="yes"/>
      <point x="1465" y="1406"/>
      <point x="1324" y="1515"/>
      <point x="1063" y="1515" type="curve" smooth="yes"/>
      <point x="785" y="1515"/>
      <point x="578" y="1431"/>
      <point x="424" y="1305" type="curve" smooth="yes"/>
      <point x="416" y="1299"/>
      <point x="414" y="1290"/>
      <point x="421" y="1281" type="curve" smooth="yes"/>
      <point x="428" y="1271"/>
      <point x="439" y="1269"/>
      <point x="445" y="1275" type="curve" smooth="yes"/>
      <point x="583" y="1393"/>
      <point x="788" y="1478"/>
      <point x="1053" y="1478" type="curve" smooth="yes"/>
      <point x="1281" y="1478"/>
      <point x="1424" y="1396"/>
      <point x="1424" y="1239" type="curve" smooth="yes"/>
      <point x="1424" y="1044"/>
      <point x="1248" y="876"/>
      <point x="1005" y="839" type="curve"/>
      <point x="988" y="846"/>
      <point x="964" y="850"/>
      <point x="940" y="850" type="curve" smooth="yes"/>
      <point x="895" y="850"/>
      <point x="850" y="838"/>
      <point x="850" y="800" type="curve" smooth="yes"/>
      <point x="850" y="778"/>
      <point x="871" y="769"/>
      <point x="899" y="769" type="curve" smooth="yes"/>
      <point x="929" y="769"/>
      <point x="966" y="780"/>
      <point x="994" y="793" type="curve"/>
      <point x="1171" y="778"/>
      <point x="1288" y="668"/>
      <point x="1288" y="514" type="curve" smooth="yes"/>
      <point x="1288" y="226"/>
      <point x="1075" y="19"/>
      <point x="783" y="19" type="curve" smooth="yes"/>
      <point x="691" y="19"/>
      <point x="608" y="45"/>
      <point x="544" y="94" type="curve" smooth="yes"/>
      <point x="534" y="101"/>
      <point x="525" y="101"/>
      <point x="518" y="89" type="curve" smooth="yes"/>
      <point x="513" y="79"/>
      <point x="514" y="71"/>
      <point x="523" y="64" type="curve" smooth="yes"/>
      <point x="586" y="10"/>
      <point x="676" y="-19"/>
    </contour>
    <contour>
      <point x="215" y="-19" type="curve" smooth="yes"/>
      <point x="335" y="-19"/>
      <point x="418" y="64"/>
      <point x="474" y="236" type="curve" smooth="yes"/>
      <point x="820" y="1311" type="line" smooth="yes"/>
      <point x="824" y="1323"/>
      <point x="818" y="1326"/>
      <point x="805" y="1326" type="curve" smooth="yes"/>
      <point x="789" y="1326"/>
      <point x="785" y="1323"/>
      <point x="781" y="1311" type="curve" smooth="yes"/>
      <point x="439" y="250" type="line" smooth="yes"/>
      <point x="388" y="93"/>
      <point x="316" y="18"/>
      <point x="223" y="18" type="curve" smooth="yes"/>
      <point x="168" y="18"/>
      <point x="99" y="30"/>
      <point x="63" y="133" type="curve" smooth="yes"/>
      <point x="59" y="143"/>
      <point x="53" y="144"/>
      <point x="43" y="140" type="curve" smooth="yes"/>
      <point x="31" y="135"/>
      <point x="26" y="126"/>
      <point x="30" y="116" type="curve" smooth="yes"/>
      <point x="65" y="19"/>
      <point x="130" y="-19"/>
    </contour>
  </outline>
</glyph>
<glyph name="B.dec" format="2">
  <advance width="1423"/>
  <anchor x="770" y="0" name="bottom"/>
  <anchor x="450" y="438" name="center"/>
  <anchor x="1111" y="1424" name="top"/>
  <outline>
    <contour>
      <point x="811" y="-12" type="curve" smooth="yes"/>
      <point x="1109" y="-12"/>
      <point x="1360" y="223"/>
      <point x="1360" y="518" type="curve" smooth="yes"/>
      <point x="1360" y="674"/>
      <point x="1261" y="784"/>
      <point x="1100" y="810" type="curve"/>
      <point x="1101" y="813" type="line"/>
      <point x="1359" y="885"/>
      <point x="1499" y="1045"/>
      <point x="1499" y="1259" type="curve" smooth="yes"/>
      <point x="1499" y="1418"/>
      <point x="1399" y="1515"/>
      <point x="1235" y="1515" type="curve" smooth="yes"/>
      <point x="1029" y="1515"/>
      <point x="828" y="1364"/>
      <point x="684" y="1105" type="curve"/>
      <point x="811" y="1500" type="line" smooth="yes"/>
      <point x="815" y="1511"/>
      <point x="809" y="1515"/>
      <point x="796" y="1515" type="curve" smooth="yes"/>
      <point x="779" y="1515"/>
      <point x="775" y="1508"/>
      <point x="771" y="1500" type="curve" smooth="yes"/>
      <point x="676" y="1294"/>
      <point x="533" y="1149"/>
      <point x="345" y="1070" type="curve" smooth="yes"/>
      <point x="335" y="1066"/>
      <point x="331" y="1058"/>
      <point x="334" y="1049" type="curve" smooth="yes"/>
      <point x="338" y="1036"/>
      <point x="345" y="1031"/>
      <point x="356" y="1036" type="curve" smooth="yes"/>
      <point x="513" y="1106"/>
      <point x="636" y="1213"/>
      <point x="724" y="1350" type="curve"/>
      <point x="289" y="1" type="line" smooth="yes"/>
      <point x="285" y="-10"/>
      <point x="291" y="-14"/>
      <point x="304" y="-14" type="curve" smooth="yes"/>
      <point x="320" y="-14"/>
      <point x="324" y="-10"/>
      <point x="328" y="1" type="curve" smooth="yes"/>
      <point x="596" y="834" type="line" smooth="yes"/>
      <point x="720" y="1208"/>
      <point x="983" y="1478"/>
      <point x="1231" y="1478" type="curve" smooth="yes"/>
      <point x="1373" y="1478"/>
      <point x="1459" y="1395"/>
      <point x="1459" y="1259" type="curve" smooth="yes"/>
      <point x="1459" y="996"/>
      <point x="1219" y="866"/>
      <point x="1040" y="839" type="curve"/>
      <point x="1026" y="844"/>
      <point x="1004" y="850"/>
      <point x="971" y="850" type="curve" smooth="yes"/>
      <point x="933" y="850"/>
      <point x="886" y="833"/>
      <point x="886" y="793" type="curve" smooth="yes"/>
      <point x="886" y="774"/>
      <point x="903" y="761"/>
      <point x="929" y="761" type="curve" smooth="yes"/>
      <point x="954" y="761"/>
      <point x="994" y="771"/>
      <point x="1024" y="785" type="curve"/>
      <point x="1219" y="768"/>
      <point x="1319" y="678"/>
      <point x="1319" y="518" type="curve" smooth="yes"/>
      <point x="1319" y="245"/>
      <point x="1085" y="25"/>
      <point x="814" y="25" type="curve" smooth="yes"/>
      <point x="729" y="25"/>
      <point x="654" y="49"/>
      <point x="590" y="96" type="curve" smooth="yes"/>
      <point x="581" y="104"/>
      <point x="573" y="103"/>
      <point x="565" y="94" type="curve" smooth="yes"/>
      <point x="558" y="84"/>
      <point x="559" y="75"/>
      <point x="569" y="66" type="curve" smooth="yes"/>
      <point x="628" y="18"/>
      <point x="719" y="-12"/>
    </contour>
  </outline>
</glyph>
<glyph name="C.cur.ini" format="2">
  <advance width="1160"/>
  <anchor x="596" y="0" name="bottom"/>
  <anchor x="1079" y="0" name="cnct"/>
  <anchor x="1039" y="1424" name="top"/>
  <outline>
    <contour>
      <point x="659" y="-17" type="curve" smooth="yes"/>
      <point x="686" y="-17"/>
      <point x="686" y="16"/>
      <point x="664" y="16" type="curve" smooth="yes"/>
      <point x="419" y="16"/>
      <point x="300" y="167"/>
      <point x="300" y="421" type="curve" smooth="yes"/>
      <point x="300" y="931"/>
      <point x="621" y="1478"/>
      <point x="1086" y="1478" type="curve" smooth="yes"/>
      <point x="1208" y="1478"/>
      <point x="1294" y="1430"/>
      <point x="1374" y="1320" type="curve" smooth="yes"/>
      <point x="1380" y="1311"/>
      <point x="1389" y="1310"/>
      <point x="1398" y="1315" type="curve" smooth="yes"/>
      <point x="1408" y="1321"/>
      <point x="1409" y="1328"/>
      <point x="1404" y="1336" type="curve" smooth="yes"/>
      <point x="1328" y="1458"/>
      <point x="1224" y="1515"/>
      <point x="1085" y="1515" type="curve" smooth="yes"/>
      <point x="600" y="1515"/>
      <point x="259" y="961"/>
      <point x="259" y="426" type="curve" smooth="yes"/>
      <point x="259" y="147"/>
      <point x="391" y="-17"/>
    </contour>
  </outline>
</glyph>
<glyph name="D.cur" format="2">
  <advance width="1548"/>
  <guideline x="187" y="42" angle="230.19"/>
  <anchor x="778" y="0" name="bottom"/>
  <anchor x="715" y="744" name="center"/>
  <anchor x="1179" y="1424" name="top"/>
  <outline>
    <contour>
      <point x="793" y="-19" type="curve" smooth="yes"/>
      <point x="1239" y="-19"/>
      <point x="1580" y="464"/>
      <point x="1580" y="1010" type="curve" smooth="yes"/>
      <point x="1580" y="1328"/>
      <point x="1388" y="1515"/>
      <point x="1063" y="1515" type="curve" smooth="yes"/>
      <point x="785" y="1515"/>
      <point x="578" y="1431"/>
      <point x="424" y="1305" type="curve" smooth="yes"/>
      <point x="416" y="1299"/>
      <point x="414" y="1290"/>
      <point x="421" y="1281" type="curve" smooth="yes"/>
      <point x="429" y="1271"/>
      <point x="439" y="1269"/>
      <point x="445" y="1275" type="curve" smooth="yes"/>
      <point x="583" y="1393"/>
      <point x="788" y="1478"/>
      <point x="1055" y="1478" type="curve" smooth="yes"/>
      <point x="1359" y="1478"/>
      <point x="1539" y="1303"/>
      <point x="1539" y="1005" type="curve" smooth="yes"/>
      <point x="1539" y="483"/>
      <point x="1204" y="19"/>
      <point x="795" y="19" type="curve" smooth="yes"/>
      <point x="699" y="19"/>
      <point x="610" y="44"/>
      <point x="544" y="94" type="curve" smooth="yes"/>
      <point x="534" y="101"/>
      <point x="525" y="101"/>
      <point x="518" y="89" type="curve" smooth="yes"/>
      <point x="511" y="79"/>
      <point x="514" y="71"/>
      <point x="523" y="64" type="curve" smooth="yes"/>
      <point x="588" y="9"/>
      <point x="684" y="-19"/>
    </contour>
    <contour>
      <point x="215" y="-19" type="curve" smooth="yes"/>
      <point x="335" y="-19"/>
      <point x="418" y="64"/>
      <point x="474" y="236" type="curve" smooth="yes"/>
      <point x="820" y="1311" type="line" smooth="yes"/>
      <point x="824" y="1323"/>
      <point x="818" y="1326"/>
      <point x="805" y="1326" type="curve" smooth="yes"/>
      <point x="789" y="1326"/>
      <point x="785" y="1323"/>
      <point x="781" y="1311" type="curve" smooth="yes"/>
      <point x="439" y="250" type="line" smooth="yes"/>
      <point x="388" y="93"/>
      <point x="316" y="18"/>
      <point x="223" y="18" type="curve" smooth="yes"/>
      <point x="168" y="18"/>
      <point x="99" y="30"/>
      <point x="63" y="133" type="curve" smooth="yes"/>
      <point x="59" y="143"/>
      <point x="53" y="144"/>
      <point x="43" y="140" type="curve" smooth="yes"/>
      <point x="31" y="135"/>
      <point x="26" y="126"/>
      <point x="30" y="116" type="curve" smooth="yes"/>
      <point x="65" y="19"/>
      <point x="130" y="-19"/>
    </contour>
  </outline>
</glyph>
<glyph name="D.dec" format="2">
  <advance width="1548"/>
  <anchor x="778" y="0" name="bottom"/>
  <anchor x="715" y="744" name="center"/>
  <anchor x="1179" y="1424" name="top"/>
  <outline>
    <contour>
      <point x="281" y="-21" type="curve" smooth="yes"/>
      <point x="386" y="-21"/>
      <point x="464" y="78"/>
      <point x="536" y="303" type="curve" smooth="yes"/>
      <point x="863" y="1311" type="line" smooth="yes"/>
      <point x="866" y="1323"/>
      <point x="860" y="1326"/>
      <point x="848" y="1326" type="curve" smooth="yes"/>
      <point x="831" y="1326"/>
      <point x="828" y="1323"/>
      <point x="824" y="1311" type="curve" smooth="yes"/>
      <point x="504" y="321" type="line" smooth="yes"/>
      <point x="439" y="119"/>
      <point x="375" y="16"/>
      <point x="285" y="16" type="curve" smooth="yes"/>
      <point x="230" y="16"/>
      <point x="196" y="45"/>
      <point x="196" y="94" type="curve" smooth="yes"/>
      <point x="196" y="151"/>
      <point x="241" y="188"/>
      <point x="306" y="188" type="curve" smooth="yes"/>
      <point x="475" y="188"/>
      <point x="550" y="-11"/>
      <point x="834" y="-11" type="curve" smooth="yes"/>
      <point x="1245" y="-11"/>
      <point x="1556" y="381"/>
      <point x="1556" y="835" type="curve" smooth="yes"/>
      <point x="1556" y="1286"/>
      <point x="1295" y="1515"/>
      <point x="949" y="1515" type="curve" smooth="yes"/>
      <point x="691" y="1515"/>
      <point x="556" y="1419"/>
      <point x="420" y="1135" type="curve" smooth="yes"/>
      <point x="415" y="1125"/>
      <point x="418" y="1118"/>
      <point x="428" y="1114" type="curve" smooth="yes"/>
      <point x="440" y="1109"/>
      <point x="448" y="1110"/>
      <point x="453" y="1121" type="curve" smooth="yes"/>
      <point x="576" y="1388"/>
      <point x="701" y="1478"/>
      <point x="941" y="1478" type="curve" smooth="yes"/>
      <point x="1276" y="1478"/>
      <point x="1515" y="1258"/>
      <point x="1515" y="830" type="curve" smooth="yes"/>
      <point x="1515" y="404"/>
      <point x="1216" y="26"/>
      <point x="835" y="26" type="curve" smooth="yes"/>
      <point x="569" y="26"/>
      <point x="489" y="225"/>
      <point x="308" y="225" type="curve" smooth="yes"/>
      <point x="213" y="225"/>
      <point x="155" y="161"/>
      <point x="155" y="90" type="curve" smooth="yes"/>
      <point x="155" y="21"/>
      <point x="205" y="-21"/>
    </contour>
  </outline>
</glyph>
<glyph name="E.cur.ini" format="2">
  <advance width="1020"/>
  <anchor x="534" y="0" name="bottom"/>
  <anchor x="939" y="0" name="cnct"/>
  <anchor x="665" y="0" name="ogonek"/>
  <anchor x="910" y="1424" name="top"/>
  <outline>
    <contour>
      <point x="519" y="-17" type="curve" smooth="yes"/>
      <point x="539" y="-17"/>
      <point x="544" y="16"/>
      <point x="524" y="16" type="curve" smooth="yes"/>
      <point x="344" y="16"/>
      <point x="235" y="122"/>
      <point x="235" y="291" type="curve" smooth="yes"/>
      <point x="235" y="551"/>
      <point x="461" y="768"/>
      <point x="720" y="768" type="curve" smooth="yes"/>
      <point x="903" y="768" type="line" smooth="yes"/>
      <point x="915" y="768"/>
      <point x="920" y="771"/>
      <point x="924" y="785" type="curve" smooth="yes"/>
      <point x="926" y="796"/>
      <point x="926" y="803"/>
      <point x="913" y="803" type="curve" smooth="yes"/>
      <point x="733" y="803" type="line" smooth="yes"/>
      <point x="585" y="803"/>
      <point x="489" y="899"/>
      <point x="489" y="1045" type="curve" smooth="yes"/>
      <point x="489" y="1261"/>
      <point x="649" y="1478"/>
      <point x="921" y="1478" type="curve" smooth="yes"/>
      <point x="1056" y="1478"/>
      <point x="1156" y="1424"/>
      <point x="1214" y="1334" type="curve" smooth="yes"/>
      <point x="1223" y="1321"/>
      <point x="1229" y="1320"/>
      <point x="1238" y="1326" type="curve" smooth="yes"/>
      <point x="1248" y="1334"/>
      <point x="1250" y="1343"/>
      <point x="1241" y="1356" type="curve" smooth="yes"/>
      <point x="1180" y="1456"/>
      <point x="1065" y="1515"/>
      <point x="933" y="1515" type="curve" smooth="yes"/>
      <point x="608" y="1515"/>
      <point x="448" y="1258"/>
      <point x="448" y="1041" type="curve" smooth="yes"/>
      <point x="448" y="925"/>
      <point x="511" y="825"/>
      <point x="608" y="789" type="curve"/>
      <point x="369" y="736"/>
      <point x="194" y="524"/>
      <point x="194" y="290" type="curve" smooth="yes"/>
      <point x="194" y="102"/>
      <point x="317" y="-17"/>
    </contour>
  </outline>
</glyph>
<glyph name="G.cur" format="2">
  <advance width="1333"/>
  <anchor x="569" y="-1000" name="bottom"/>
  <anchor x="1044" y="1424" name="top"/>
  <outline>
    <contour>
      <point x="574" y="-1020" type="curve" smooth="yes"/>
      <point x="720" y="-1020"/>
      <point x="828" y="-902"/>
      <point x="904" y="-666" type="curve" smooth="yes"/>
      <point x="1340" y="691" type="line" smooth="yes"/>
      <point x="1344" y="701"/>
      <point x="1339" y="706"/>
      <point x="1324" y="706" type="curve" smooth="yes"/>
      <point x="1310" y="706"/>
      <point x="1304" y="703"/>
      <point x="1300" y="690" type="curve"/>
      <point x="1106" y="275"/>
      <point x="880" y="59"/>
      <point x="661" y="59" type="curve" smooth="yes"/>
      <point x="456" y="59"/>
      <point x="323" y="229"/>
      <point x="323" y="489" type="curve" smooth="yes"/>
      <point x="323" y="988"/>
      <point x="691" y="1478"/>
      <point x="1083" y="1478" type="curve" smooth="yes"/>
      <point x="1230" y="1478"/>
      <point x="1330" y="1431"/>
      <point x="1418" y="1324" type="curve" smooth="yes"/>
      <point x="1425" y="1315"/>
      <point x="1433" y="1314"/>
      <point x="1441" y="1321" type="curve" smooth="yes"/>
      <point x="1450" y="1329"/>
      <point x="1453" y="1338"/>
      <point x="1446" y="1345" type="curve" smooth="yes"/>
      <point x="1358" y="1460"/>
      <point x="1240" y="1515"/>
      <point x="1085" y="1515" type="curve" smooth="yes"/>
      <point x="669" y="1515"/>
      <point x="281" y="1009"/>
      <point x="281" y="488" type="curve" smooth="yes"/>
      <point x="281" y="206"/>
      <point x="431" y="21"/>
      <point x="659" y="21" type="curve" smooth="yes"/>
      <point x="860" y="21"/>
      <point x="1071" y="191"/>
      <point x="1244" y="513" type="curve"/>
      <point x="870" y="-652" type="line" smooth="yes"/>
      <point x="799" y="-876"/>
      <point x="701" y="-985"/>
      <point x="580" y="-985" type="curve" smooth="yes"/>
      <point x="516" y="-985"/>
      <point x="470" y="-937"/>
      <point x="470" y="-871" type="curve" smooth="yes"/>
      <point x="470" y="-671"/>
      <point x="663" y="-431"/>
      <point x="1040" y="-167" type="curve" smooth="yes"/>
      <point x="1145" y="-95"/>
      <point x="1264" y="-21"/>
      <point x="1398" y="55" type="curve" smooth="yes"/>
      <point x="1409" y="61"/>
      <point x="1410" y="70"/>
      <point x="1404" y="81" type="curve" smooth="yes"/>
      <point x="1399" y="90"/>
      <point x="1390" y="93"/>
      <point x="1380" y="86" type="curve" smooth="yes"/>
      <point x="1261" y="19"/>
      <point x="1154" y="-47"/>
      <point x="1058" y="-112" type="curve" smooth="yes"/>
      <point x="641" y="-399"/>
      <point x="429" y="-655"/>
      <point x="429" y="-871" type="curve" smooth="yes"/>
      <point x="429" y="-957"/>
      <point x="490" y="-1020"/>
    </contour>
  </outline>
</glyph>
<glyph name="G.cur.ini" format="2">
  <advance width="1328"/>
  <anchor x="574" y="0" name="bottom"/>
  <anchor x="1246" y="0" name="cnct"/>
  <anchor x="1044" y="1424" name="top"/>
  <outline>
    <contour>
      <point x="574" y="-1020" type="curve" smooth="yes"/>
      <point x="718" y="-1020"/>
      <point x="829" y="-897"/>
      <point x="904" y="-666" type="curve" smooth="yes"/>
      <point x="1340" y="691" type="line" smooth="yes"/>
      <point x="1344" y="701"/>
      <point x="1339" y="706"/>
      <point x="1324" y="706" type="curve" smooth="yes"/>
      <point x="1310" y="706"/>
      <point x="1304" y="703"/>
      <point x="1300" y="690" type="curve"/>
      <point x="1106" y="275"/>
      <point x="880" y="59"/>
      <point x="661" y="59" type="curve" smooth="yes"/>
      <point x="456" y="59"/>
      <point x="323" y="229"/>
      <point x="323" y="489" type="curve" smooth="yes"/>
      <point x="323" y="988"/>
      <point x="691" y="1478"/>
      <point x="1083" y="1478" type="curve" smooth="yes"/>
      <point x="1230" y="1478"/>
      <point x="1330" y="1431"/>
      <point x="1418" y="1324" type="curve" smooth="yes"/>
      <point x="1425" y="1315"/>
      <point x="1433" y="1314"/>
      <point x="1441" y="1321" type="curve" smooth="yes"/>
      <point x="1450" y="1329"/>
      <point x="1453" y="1338"/>
      <point x="1446" y="1345" type="curve" smooth="yes"/>
      <point x="1358" y="1460"/>
      <point x="1240" y="1515"/>
      <point x="1085" y="1515" type="curve" smooth="yes"/>
      <point x="669" y="1515"/>
      <point x="281" y="1009"/>
      <point x="281" y="488" type="curve" smooth="yes"/>
      <point x="281" y="206"/>
      <point x="431" y="21"/>
      <point x="659" y="21" type="curve" smooth="yes"/>
      <point x="860" y="21"/>
      <point x="1071" y="191"/>
      <point x="1244" y="513" type="curve"/>
      <point x="870" y="-652" type="line" smooth="yes"/>
      <point x="801" y="-869"/>
      <point x="701" y="-985"/>
      <point x="580" y="-985" type="curve" smooth="yes"/>
      <point x="506" y="-985"/>
      <point x="473" y="-937"/>
      <point x="473" y="-871" type="curve" smooth="yes"/>
      <point x="473" y="-846"/>
      <point x="431" y="-846"/>
      <point x="431" y="-871" type="curve" smooth="yes"/>
      <point x="431" y="-957"/>
      <point x="480" y="-1020"/>
    </contour>
  </outline>
</glyph>
<glyph name="G.cur_ro" format="2">
  <advance width="1115"/>
  <anchor x="497" y="0" name="bottom"/>
  <anchor x="944" y="1500" name="top"/>
  <outline>
    <contour>
      <point x="504" y="-20" type="curve" smooth="yes"/>
      <point x="768" y="-20"/>
      <point x="936" y="243"/>
      <point x="1110" y="771" type="curve" smooth="yes"/>
      <point x="1117" y="792"/>
      <point x="1109" y="799"/>
      <point x="1093" y="799" type="curve" smooth="yes"/>
      <point x="1086" y="799"/>
      <point x="1080" y="797"/>
      <point x="1070" y="791" type="curve" smooth="yes"/>
      <point x="1019" y="759"/>
      <point x="864" y="657"/>
      <point x="684" y="657" type="curve" smooth="yes"/>
      <point x="505" y="657"/>
      <point x="453" y="757"/>
      <point x="453" y="896" type="curve" smooth="yes"/>
      <point x="453" y="1175"/>
      <point x="709" y="1480"/>
      <point x="948" y="1480" type="curve" smooth="yes"/>
      <point x="1050" y="1480"/>
      <point x="1093" y="1427"/>
      <point x="1093" y="1348" type="curve" smooth="yes"/>
      <point x="1093" y="1162"/>
      <point x="887" y="912"/>
      <point x="629" y="912" type="curve" smooth="yes"/>
      <point x="394" y="912"/>
      <point x="361" y="1147"/>
      <point x="464" y="1466" type="curve" smooth="yes"/>
      <point x="467" y="1477"/>
      <point x="462" y="1481"/>
      <point x="447" y="1481" type="curve" smooth="yes"/>
      <point x="436" y="1481"/>
      <point x="430" y="1478"/>
      <point x="427" y="1469" type="curve" smooth="yes"/>
      <point x="325" y="1141"/>
      <point x="352" y="875"/>
      <point x="626" y="875" type="curve" smooth="yes"/>
      <point x="919" y="875"/>
      <point x="1133" y="1144"/>
      <point x="1133" y="1349" type="curve" smooth="yes"/>
      <point x="1133" y="1448"/>
      <point x="1079" y="1518"/>
      <point x="951" y="1518" type="curve" smooth="yes"/>
      <point x="686" y="1518"/>
      <point x="412" y="1196"/>
      <point x="412" y="895" type="curve" smooth="yes"/>
      <point x="412" y="711"/>
      <point x="502" y="620"/>
      <point x="678" y="620" type="curve" smooth="yes"/>
      <point x="785" y="620"/>
      <point x="938" y="659"/>
      <point x="1063" y="747" type="curve"/>
      <point x="880" y="218"/>
      <point x="724" y="19"/>
      <point x="501" y="19" type="curve" smooth="yes"/>
      <point x="376" y="19"/>
      <point x="288" y="119"/>
      <point x="288" y="261" type="curve" smooth="yes"/>
      <point x="288" y="271"/>
      <point x="281" y="276"/>
      <point x="268" y="276" type="curve" smooth="yes"/>
      <point x="255" y="276"/>
      <point x="248" y="270"/>
      <point x="248" y="259" type="curve" smooth="yes"/>
      <point x="248" y="95"/>
      <point x="351" y="-20"/>
    </contour>
  </outline>
</glyph>
<glyph name="G.dec" format="2">
  <advance width="1594"/>
  <anchor x="779" y="0" name="bottom"/>
  <anchor x="1181" y="1424" name="top"/>
  <outline>
    <contour>
      <point x="75" y="-12" type="curve" smooth="yes"/>
      <point x="423" y="-12"/>
      <point x="976" y="686"/>
      <point x="976" y="1300" type="curve" smooth="yes"/>
      <point x="976" y="1433"/>
      <point x="925" y="1513"/>
      <point x="843" y="1513" type="curve" smooth="yes"/>
      <point x="736" y="1513"/>
      <point x="660" y="1399"/>
      <point x="660" y="1243" type="curve" smooth="yes"/>
      <point x="660" y="1051"/>
      <point x="789" y="913"/>
      <point x="968" y="913" type="curve" smooth="yes"/>
      <point x="1184" y="913"/>
      <point x="1396" y="1071"/>
      <point x="1598" y="1388" type="curve"/>
      <point x="1584" y="1383" type="line"/>
      <point x="1555" y="1185"/>
      <point x="1519" y="995"/>
      <point x="1474" y="820" type="curve" smooth="yes"/>
      <point x="1340" y="293"/>
      <point x="1130" y="25"/>
      <point x="859" y="25" type="curve" smooth="yes"/>
      <point x="559" y="25"/>
      <point x="355" y="300"/>
      <point x="324" y="753" type="curve"/>
      <point x="315" y="748" type="line"/>
      <point x="738" y="485"/>
      <point x="1055" y="395"/>
      <point x="1563" y="395" type="curve" smooth="yes"/>
      <point x="1574" y="395"/>
      <point x="1581" y="401"/>
      <point x="1585" y="413" type="curve" smooth="yes"/>
      <point x="1590" y="426"/>
      <point x="1586" y="433"/>
      <point x="1573" y="433" type="curve" smooth="yes"/>
      <point x="1065" y="433"/>
      <point x="749" y="521"/>
      <point x="330" y="783" type="curve" smooth="yes"/>
      <point x="323" y="788"/>
      <point x="311" y="789"/>
      <point x="298" y="780" type="curve" smooth="yes"/>
      <point x="284" y="771"/>
      <point x="283" y="759"/>
      <point x="284" y="748" type="curve" smooth="yes"/>
      <point x="320" y="275"/>
      <point x="535" y="-12"/>
      <point x="855" y="-12" type="curve" smooth="yes"/>
      <point x="1153" y="-12"/>
      <point x="1376" y="264"/>
      <point x="1513" y="808" type="curve" smooth="yes"/>
      <point x="1555" y="976"/>
      <point x="1591" y="1169"/>
      <point x="1623" y="1379" type="curve" smooth="yes"/>
      <point x="1625" y="1396"/>
      <point x="1621" y="1406"/>
      <point x="1608" y="1413" type="curve" smooth="yes"/>
      <point x="1588" y="1423"/>
      <point x="1573" y="1416"/>
      <point x="1558" y="1394" type="curve" smooth="yes"/>
      <point x="1365" y="1099"/>
      <point x="1166" y="950"/>
      <point x="968" y="950" type="curve" smooth="yes"/>
      <point x="813" y="950"/>
      <point x="701" y="1074"/>
      <point x="701" y="1244" type="curve" smooth="yes"/>
      <point x="701" y="1378"/>
      <point x="760" y="1475"/>
      <point x="843" y="1475" type="curve" smooth="yes"/>
      <point x="900" y="1475"/>
      <point x="935" y="1409"/>
      <point x="935" y="1299" type="curve" smooth="yes"/>
      <point x="935" y="711"/>
      <point x="401" y="31"/>
      <point x="81" y="31" type="curve" smooth="yes"/>
      <point x="69" y="31"/>
      <point x="61" y="28"/>
      <point x="56" y="10" type="curve" smooth="yes"/>
      <point x="53" y="-4"/>
      <point x="58" y="-12"/>
    </contour>
  </outline>
</glyph>
<glyph name="H.cur" format="2">
  <advance width="1600"/>
  <anchor x="743" y="0" name="bottom"/>
  <anchor x="1097" y="1090" name="center"/>
  <anchor x="1179" y="1424" name="top"/>
  <outline>
    <contour>
      <point x="310" y="-19" type="curve" smooth="yes"/>
      <point x="403" y="-19"/>
      <point x="459" y="66"/>
      <point x="506" y="213" type="curve" smooth="yes"/>
      <point x="624" y="574" type="line"/>
      <point x="854" y="673"/>
      <point x="1080" y="774"/>
      <point x="1305" y="878" type="curve"/>
      <point x="1105" y="264" type="line" smooth="yes"/>
      <point x="1045" y="79"/>
      <point x="1103" y="-19"/>
      <point x="1225" y="-19" type="curve" smooth="yes"/>
      <point x="1318" y="-19"/>
      <point x="1410" y="49"/>
      <point x="1475" y="164" type="curve" smooth="yes"/>
      <point x="1483" y="178"/>
      <point x="1484" y="186"/>
      <point x="1473" y="193" type="curve" smooth="yes"/>
      <point x="1460" y="200"/>
      <point x="1454" y="198"/>
      <point x="1445" y="181" type="curve" smooth="yes"/>
      <point x="1393" y="83"/>
      <point x="1308" y="18"/>
      <point x="1230" y="18" type="curve" smooth="yes"/>
      <point x="1131" y="18"/>
      <point x="1089" y="91"/>
      <point x="1145" y="265" type="curve" smooth="yes"/>
      <point x="1353" y="899" type="line"/>
      <point x="1606" y="1006"/>
      <point x="1756" y="1178"/>
      <point x="1756" y="1368" type="curve" smooth="yes"/>
      <point x="1756" y="1468"/>
      <point x="1715" y="1520"/>
      <point x="1638" y="1520" type="curve" smooth="yes"/>
      <point x="1555" y="1520"/>
      <point x="1491" y="1446"/>
      <point x="1440" y="1290" type="curve" smooth="yes"/>
      <point x="1320" y="921" type="line"/>
      <point x="1095" y="818"/>
      <point x="868" y="716"/>
      <point x="638" y="618" type="curve"/>
      <point x="855" y="1284" type="line" smooth="yes"/>
      <point x="903" y="1429"/>
      <point x="859" y="1520"/>
      <point x="740" y="1520" type="curve" smooth="yes"/>
      <point x="653" y="1520"/>
      <point x="559" y="1466"/>
      <point x="481" y="1378" type="curve" smooth="yes"/>
      <point x="473" y="1366"/>
      <point x="471" y="1359"/>
      <point x="479" y="1351" type="curve" smooth="yes"/>
      <point x="488" y="1343"/>
      <point x="498" y="1341"/>
      <point x="506" y="1351" type="curve" smooth="yes"/>
      <point x="583" y="1439"/>
      <point x="659" y="1483"/>
      <point x="735" y="1483" type="curve" smooth="yes"/>
      <point x="829" y="1483"/>
      <point x="860" y="1419"/>
      <point x="819" y="1291" type="curve" smooth="yes"/>
      <point x="593" y="596" type="line"/>
      <point x="320" y="478"/>
      <point x="191" y="321"/>
      <point x="191" y="129" type="curve" smooth="yes"/>
      <point x="191" y="36"/>
      <point x="235" y="-19"/>
    </contour>
    <contour>
      <point x="311" y="18" type="curve" smooth="yes"/>
      <point x="261" y="18"/>
      <point x="233" y="59"/>
      <point x="233" y="129" type="curve" smooth="yes"/>
      <point x="233" y="305"/>
      <point x="344" y="448"/>
      <point x="578" y="550" type="curve"/>
      <point x="479" y="248" type="line" smooth="yes"/>
      <point x="426" y="86"/>
      <point x="383" y="18"/>
    </contour>
    <contour>
      <point x="1366" y="944" type="curve"/>
      <point x="1476" y="1279" type="line" smooth="yes"/>
      <point x="1521" y="1416"/>
      <point x="1573" y="1483"/>
      <point x="1634" y="1483" type="curve" smooth="yes"/>
      <point x="1688" y="1483"/>
      <point x="1715" y="1443"/>
      <point x="1715" y="1369" type="curve" smooth="yes"/>
      <point x="1715" y="1200"/>
      <point x="1586" y="1040"/>
    </contour>
  </outline>
</glyph>
<glyph name="H.cur.ini" format="2">
  <advance width="1444"/>
  <anchor x="743" y="0" name="bottom"/>
  <anchor x="1119" y="1150" name="center"/>
  <anchor x="1363" y="0" name="cnct"/>
  <anchor x="1179" y="1424" name="top"/>
  <outline>
    <contour>
      <point x="310" y="-19" type="curve" smooth="yes"/>
      <point x="403" y="-19"/>
      <point x="459" y="66"/>
      <point x="506" y="213" type="curve" smooth="yes"/>
      <point x="624" y="574" type="line"/>
      <point x="851" y="675"/>
      <point x="1079" y="776"/>
      <point x="1306" y="879" type="curve"/>
      <point x="1146" y="385" type="line" smooth="yes"/>
      <point x="1054" y="103"/>
      <point x="1143" y="-17"/>
      <point x="1309" y="-17" type="curve" smooth="yes"/>
      <point x="1334" y="-17"/>
      <point x="1345" y="18"/>
      <point x="1320" y="18" type="curve" smooth="yes"/>
      <point x="1174" y="18"/>
      <point x="1095" y="108"/>
      <point x="1185" y="384" type="curve" smooth="yes"/>
      <point x="1353" y="899" type="line"/>
      <point x="1606" y="1006"/>
      <point x="1756" y="1179"/>
      <point x="1756" y="1368" type="curve" smooth="yes"/>
      <point x="1756" y="1468"/>
      <point x="1715" y="1520"/>
      <point x="1638" y="1520" type="curve" smooth="yes"/>
      <point x="1555" y="1520"/>
      <point x="1491" y="1446"/>
      <point x="1440" y="1290" type="curve" smooth="yes"/>
      <point x="1320" y="921" type="line"/>
      <point x="1094" y="820"/>
      <point x="865" y="719"/>
      <point x="638" y="618" type="curve"/>
      <point x="855" y="1284" type="line" smooth="yes"/>
      <point x="903" y="1429"/>
      <point x="859" y="1520"/>
      <point x="740" y="1520" type="curve" smooth="yes"/>
      <point x="653" y="1520"/>
      <point x="559" y="1466"/>
      <point x="481" y="1378" type="curve" smooth="yes"/>
      <point x="473" y="1366"/>
      <point x="471" y="1359"/>
      <point x="479" y="1351" type="curve" smooth="yes"/>
      <point x="488" y="1343"/>
      <point x="498" y="1341"/>
      <point x="506" y="1351" type="curve" smooth="yes"/>
      <point x="583" y="1439"/>
      <point x="659" y="1483"/>
      <point x="735" y="1483" type="curve" smooth="yes"/>
      <point x="829" y="1483"/>
      <point x="860" y="1419"/>
      <point x="819" y="1291" type="curve" smooth="yes"/>
      <point x="593" y="596" type="line"/>
      <point x="320" y="478"/>
      <point x="191" y="321"/>
      <point x="191" y="129" type="curve" smooth="yes"/>
      <point x="191" y="36"/>
      <point x="235" y="-19"/>
    </contour>
    <contour>
      <point x="311" y="18" type="curve" smooth="yes"/>
      <point x="261" y="18"/>
      <point x="233" y="59"/>
      <point x="233" y="129" type="curve" smooth="yes"/>
      <point x="233" y="305"/>
      <point x="344" y="448"/>
      <point x="578" y="550" type="curve"/>
      <point x="479" y="248" type="line" smooth="yes"/>
      <point x="426" y="86"/>
      <point x="383" y="18"/>
    </contour>
    <contour>
      <point x="1368" y="944" type="curve"/>
      <point x="1476" y="1279" type="line" smooth="yes"/>
      <point x="1521" y="1416"/>
      <point x="1573" y="1483"/>
      <point x="1634" y="1483" type="curve" smooth="yes"/>
      <point x="1688" y="1483"/>
      <point x="1715" y="1443"/>
      <point x="1715" y="1369" type="curve" smooth="yes"/>
      <point x="1715" y="1200"/>
      <point x="1586" y="1040"/>
    </contour>
  </outline>
</glyph>
<glyph name="H.dec" format="2">
  <advance width="1684"/>
  <anchor x="848" y="0" name="bottom"/>
  <anchor x="1224" y="1150" name="center"/>
  <anchor x="1284" y="1424" name="top"/>
  <outline>
    <contour>
      <point x="465" y="-14" type="curve" smooth="yes"/>
      <point x="481" y="-14"/>
      <point x="485" y="-10"/>
      <point x="489" y="1" type="curve" smooth="yes"/>
      <point x="973" y="1500" type="line" smooth="yes"/>
      <point x="976" y="1511"/>
      <point x="970" y="1515"/>
      <point x="958" y="1515" type="curve" smooth="yes"/>
      <point x="940" y="1515"/>
      <point x="939" y="1511"/>
      <point x="924" y="1498" type="curve" smooth="yes"/>
      <point x="893" y="1470"/>
      <point x="856" y="1446"/>
      <point x="808" y="1446" type="curve" smooth="yes"/>
      <point x="744" y="1446"/>
      <point x="695" y="1486"/>
      <point x="610" y="1486" type="curve" smooth="yes"/>
      <point x="514" y="1486"/>
      <point x="443" y="1419"/>
      <point x="403" y="1306" type="curve" smooth="yes"/>
      <point x="398" y="1291"/>
      <point x="403" y="1285"/>
      <point x="419" y="1285" type="curve" smooth="yes"/>
      <point x="431" y="1285"/>
      <point x="439" y="1290"/>
      <point x="441" y="1301" type="curve" smooth="yes"/>
      <point x="473" y="1399"/>
      <point x="539" y="1451"/>
      <point x="610" y="1451" type="curve" smooth="yes"/>
      <point x="676" y="1451"/>
      <point x="733" y="1411"/>
      <point x="804" y="1411" type="curve" smooth="yes"/>
      <point x="855" y="1411"/>
      <point x="889" y="1428"/>
      <point x="919" y="1454" type="curve"/>
      <point x="450" y="1" type="line" smooth="yes"/>
      <point x="446" y="-10"/>
      <point x="453" y="-14"/>
    </contour>
    <contour>
      <point x="1325" y="290" type="curve"/>
      <point x="1363" y="303" type="line"/>
      <point x="1494" y="679"/>
      <point x="1375" y="870"/>
      <point x="1021" y="870" type="curve" smooth="yes"/>
      <point x="814" y="870"/>
      <point x="673" y="764"/>
      <point x="673" y="618" type="curve" smooth="yes"/>
      <point x="673" y="489"/>
      <point x="781" y="410"/>
      <point x="959" y="410" type="curve" smooth="yes"/>
      <point x="1210" y="410"/>
      <point x="1443" y="519"/>
      <point x="1720" y="733" type="curve" smooth="yes"/>
      <point x="1726" y="738"/>
      <point x="1726" y="746"/>
      <point x="1720" y="756" type="curve" smooth="yes"/>
      <point x="1714" y="766"/>
      <point x="1706" y="768"/>
      <point x="1699" y="761" type="curve" smooth="yes"/>
      <point x="1440" y="553"/>
      <point x="1193" y="448"/>
      <point x="965" y="448" type="curve" smooth="yes"/>
      <point x="805" y="448"/>
      <point x="708" y="514"/>
      <point x="708" y="621" type="curve" smooth="yes"/>
      <point x="708" y="744"/>
      <point x="836" y="833"/>
      <point x="1028" y="833" type="curve" smooth="yes"/>
      <point x="1351" y="833"/>
      <point x="1455" y="650"/>
    </contour>
    <contour>
      <point x="1246" y="-14" type="curve" smooth="yes"/>
      <point x="1263" y="-14"/>
      <point x="1266" y="-10"/>
      <point x="1270" y="1" type="curve" smooth="yes"/>
      <point x="1754" y="1500" type="line" smooth="yes"/>
      <point x="1758" y="1511"/>
      <point x="1751" y="1515"/>
      <point x="1739" y="1515" type="curve" smooth="yes"/>
      <point x="1723" y="1515"/>
      <point x="1719" y="1511"/>
      <point x="1715" y="1500" type="curve" smooth="yes"/>
      <point x="1231" y="1" type="line" smooth="yes"/>
      <point x="1228" y="-10"/>
      <point x="1234" y="-14"/>
    </contour>
  </outline>
</glyph>
<glyph name="I.cur.ini" format="2">
  <advance width="1450"/>
  <anchor x="944" y="0" name="bottom"/>
  <anchor x="1369" y="0" name="cnct"/>
  <anchor x="637" y="-11" name="ogonek"/>
  <anchor x="1245" y="1424" name="top"/>
  <outline>
    <contour>
      <point x="564" y="-17" type="curve" smooth="yes"/>
      <point x="990" y="-17"/>
      <point x="1498" y="623"/>
      <point x="1498" y="1214" type="curve" smooth="yes"/>
      <point x="1498" y="1414"/>
      <point x="1429" y="1515"/>
      <point x="1296" y="1515" type="curve" smooth="yes"/>
      <point x="1059" y="1515"/>
      <point x="884" y="1218"/>
      <point x="884" y="766" type="curve" smooth="yes"/>
      <point x="884" y="312"/>
      <point x="1085" y="-17"/>
      <point x="1315" y="-17" type="curve" smooth="yes"/>
      <point x="1335" y="-17"/>
      <point x="1346" y="18"/>
      <point x="1326" y="18" type="curve" smooth="yes"/>
      <point x="1113" y="18"/>
      <point x="925" y="329"/>
      <point x="925" y="759" type="curve" smooth="yes"/>
      <point x="925" y="1193"/>
      <point x="1083" y="1478"/>
      <point x="1294" y="1478" type="curve" smooth="yes"/>
      <point x="1406" y="1478"/>
      <point x="1456" y="1388"/>
      <point x="1456" y="1210" type="curve" smooth="yes"/>
      <point x="1456" y="627"/>
      <point x="960" y="20"/>
      <point x="566" y="20" type="curve" smooth="yes"/>
      <point x="371" y="20"/>
      <point x="261" y="173"/>
      <point x="241" y="471" type="curve"/>
      <point x="358" y="428"/>
      <point x="458" y="409"/>
      <point x="595" y="403" type="curve" smooth="yes"/>
      <point x="609" y="403"/>
      <point x="619" y="403"/>
      <point x="621" y="420" type="curve" smooth="yes"/>
      <point x="623" y="433"/>
      <point x="620" y="439"/>
      <point x="608" y="439" type="curve" smooth="yes"/>
      <point x="493" y="439"/>
      <point x="351" y="465"/>
      <point x="270" y="500" type="curve" smooth="yes"/>
      <point x="240" y="513"/>
      <point x="231" y="515"/>
      <point x="218" y="508" type="curve" smooth="yes"/>
      <point x="204" y="500"/>
      <point x="199" y="491"/>
      <point x="200" y="468" type="curve" smooth="yes"/>
      <point x="226" y="146"/>
      <point x="349" y="-17"/>
    </contour>
  </outline>
</glyph>
<glyph name="I.dec" format="2">
  <advance width="855"/>
  <anchor x="324" y="0" name="bottom"/>
  <anchor x="402" y="-5" name="ogonek"/>
  <anchor x="749" y="1424" name="top"/>
  <outline>
    <contour>
      <point x="315" y="-17" type="curve" smooth="yes"/>
      <point x="468" y="-17"/>
      <point x="565" y="81"/>
      <point x="621" y="255" type="curve" smooth="yes"/>
      <point x="1023" y="1500" type="line" smooth="yes"/>
      <point x="1026" y="1511"/>
      <point x="1020" y="1515"/>
      <point x="1008" y="1515" type="curve" smooth="yes"/>
      <point x="990" y="1515"/>
      <point x="990" y="1510"/>
      <point x="974" y="1498" type="curve" smooth="yes"/>
      <point x="931" y="1461"/>
      <point x="896" y="1446"/>
      <point x="858" y="1446" type="curve" smooth="yes"/>
      <point x="791" y="1446"/>
      <point x="729" y="1486"/>
      <point x="661" y="1486" type="curve" smooth="yes"/>
      <point x="565" y="1486"/>
      <point x="494" y="1425"/>
      <point x="451" y="1304" type="curve" smooth="yes"/>
      <point x="448" y="1291"/>
      <point x="453" y="1285"/>
      <point x="468" y="1285" type="curve" smooth="yes"/>
      <point x="479" y="1285"/>
      <point x="486" y="1290"/>
      <point x="489" y="1300" type="curve" smooth="yes"/>
      <point x="521" y="1400"/>
      <point x="579" y="1451"/>
      <point x="659" y="1451" type="curve" smooth="yes"/>
      <point x="721" y="1451"/>
      <point x="783" y="1411"/>
      <point x="854" y="1411" type="curve" smooth="yes"/>
      <point x="896" y="1411"/>
      <point x="935" y="1425"/>
      <point x="969" y="1453" type="curve"/>
      <point x="584" y="263" type="line" smooth="yes"/>
      <point x="535" y="111"/>
      <point x="451" y="18"/>
      <point x="319" y="18" type="curve" smooth="yes"/>
      <point x="231" y="18"/>
      <point x="166" y="58"/>
      <point x="126" y="138" type="curve" smooth="yes"/>
      <point x="121" y="148"/>
      <point x="114" y="150"/>
      <point x="103" y="144" type="curve" smooth="yes"/>
      <point x="93" y="139"/>
      <point x="89" y="131"/>
      <point x="94" y="121" type="curve" smooth="yes"/>
      <point x="135" y="29"/>
      <point x="210" y="-17"/>
    </contour>
  </outline>
</glyph>
<glyph name="J.dec" format="2">
  <advance width="811"/>
  <anchor x="-62" y="-1000" name="bottom"/>
  <anchor x="799" y="1424" name="top"/>
  <outline>
    <contour>
      <point x="-59" y="-1020" type="curve" smooth="yes"/>
      <point x="85" y="-1020"/>
      <point x="191" y="-902"/>
      <point x="269" y="-666" type="curve" smooth="yes"/>
      <point x="979" y="1500" type="line" smooth="yes"/>
      <point x="983" y="1511"/>
      <point x="976" y="1515"/>
      <point x="964" y="1515" type="curve" smooth="yes"/>
      <point x="946" y="1515"/>
      <point x="946" y="1510"/>
      <point x="930" y="1498" type="curve" smooth="yes"/>
      <point x="888" y="1461"/>
      <point x="853" y="1446"/>
      <point x="814" y="1446" type="curve" smooth="yes"/>
      <point x="748" y="1446"/>
      <point x="685" y="1486"/>
      <point x="618" y="1486" type="curve" smooth="yes"/>
      <point x="521" y="1486"/>
      <point x="450" y="1425"/>
      <point x="408" y="1304" type="curve" smooth="yes"/>
      <point x="404" y="1291"/>
      <point x="409" y="1285"/>
      <point x="424" y="1285" type="curve" smooth="yes"/>
      <point x="435" y="1285"/>
      <point x="443" y="1290"/>
      <point x="445" y="1300" type="curve" smooth="yes"/>
      <point x="478" y="1400"/>
      <point x="535" y="1451"/>
      <point x="615" y="1451" type="curve" smooth="yes"/>
      <point x="678" y="1451"/>
      <point x="739" y="1411"/>
      <point x="810" y="1411" type="curve" smooth="yes"/>
      <point x="853" y="1411"/>
      <point x="891" y="1425"/>
      <point x="925" y="1453" type="curve"/>
      <point x="235" y="-652" type="line" smooth="yes"/>
      <point x="163" y="-875"/>
      <point x="69" y="-985"/>
      <point x="-52" y="-985" type="curve" smooth="yes"/>
      <point x="-116" y="-985"/>
      <point x="-162" y="-937"/>
      <point x="-162" y="-871" type="curve" smooth="yes"/>
      <point x="-162" y="-671"/>
      <point x="30" y="-431"/>
      <point x="408" y="-167" type="curve" smooth="yes"/>
      <point x="513" y="-95"/>
      <point x="631" y="-21"/>
      <point x="765" y="55" type="curve" smooth="yes"/>
      <point x="776" y="61"/>
      <point x="778" y="70"/>
      <point x="771" y="81" type="curve" smooth="yes"/>
      <point x="766" y="90"/>
      <point x="758" y="93"/>
      <point x="748" y="86" type="curve" smooth="yes"/>
      <point x="629" y="19"/>
      <point x="521" y="-47"/>
      <point x="425" y="-112" type="curve" smooth="yes"/>
      <point x="9" y="-399"/>
      <point x="-204" y="-655"/>
      <point x="-204" y="-871" type="curve" smooth="yes"/>
      <point x="-204" y="-957"/>
      <point x="-142" y="-1020"/>
    </contour>
  </outline>
</glyph>
<glyph name="J.dec.ini" format="2">
  <advance width="694"/>
  <anchor x="-62" y="-1000" name="bottom"/>
  <anchor x="614" y="0" name="cnct"/>
  <anchor x="799" y="1424" name="top"/>
  <outline>
    <contour>
      <point x="-60" y="-1020" type="curve" smooth="yes"/>
      <point x="84" y="-1020"/>
      <point x="194" y="-901"/>
      <point x="270" y="-666" type="curve" smooth="yes"/>
      <point x="979" y="1500" type="line" smooth="yes"/>
      <point x="983" y="1511"/>
      <point x="976" y="1515"/>
      <point x="964" y="1515" type="curve" smooth="yes"/>
      <point x="946" y="1515"/>
      <point x="946" y="1510"/>
      <point x="930" y="1498" type="curve" smooth="yes"/>
      <point x="888" y="1461"/>
      <point x="853" y="1446"/>
      <point x="814" y="1446" type="curve" smooth="yes"/>
      <point x="748" y="1446"/>
      <point x="685" y="1486"/>
      <point x="618" y="1486" type="curve" smooth="yes"/>
      <point x="521" y="1486"/>
      <point x="450" y="1425"/>
      <point x="408" y="1304" type="curve" smooth="yes"/>
      <point x="404" y="1291"/>
      <point x="409" y="1285"/>
      <point x="424" y="1285" type="curve" smooth="yes"/>
      <point x="435" y="1285"/>
      <point x="443" y="1290"/>
      <point x="445" y="1300" type="curve" smooth="yes"/>
      <point x="478" y="1400"/>
      <point x="535" y="1451"/>
      <point x="615" y="1451" type="curve" smooth="yes"/>
      <point x="678" y="1451"/>
      <point x="739" y="1411"/>
      <point x="810" y="1411" type="curve" smooth="yes"/>
      <point x="853" y="1411"/>
      <point x="891" y="1425"/>
      <point x="925" y="1453" type="curve"/>
      <point x="236" y="-652" type="line" smooth="yes"/>
      <point x="164" y="-874"/>
      <point x="68" y="-985"/>
      <point x="-54" y="-985" type="curve" smooth="yes"/>
      <point x="-127" y="-985"/>
      <point x="-161" y="-937"/>
      <point x="-161" y="-871" type="curve" smooth="yes"/>
      <point x="-161" y="-846"/>
      <point x="-202" y="-846"/>
      <point x="-202" y="-871" type="curve" smooth="yes"/>
      <point x="-202" y="-957"/>
      <point x="-154" y="-1020"/>
    </contour>
  </outline>
</glyph>
<glyph name="L.dec.ini" format="2">
  <advance width="1164"/>
  <anchor x="1088" y="715" name="CAT"/>
  <anchor x="626" y="0" name="bottom"/>
  <anchor x="563" y="650" name="center"/>
  <anchor x="1083" y="0" name="cnct"/>
  <anchor x="1035" y="1424" name="top"/>
  <anchor x="1339" y="1488" name="topright"/>
  <outline>
    <contour>
      <point x="183" y="-21" type="curve" smooth="yes"/>
      <point x="305" y="-21"/>
      <point x="395" y="79"/>
      <point x="468" y="303" type="curve" smooth="yes"/>
      <point x="673" y="933" type="line" smooth="yes"/>
      <point x="798" y="1318"/>
      <point x="925" y="1480"/>
      <point x="1099" y="1480" type="curve" smooth="yes"/>
      <point x="1196" y="1480"/>
      <point x="1268" y="1415"/>
      <point x="1268" y="1325" type="curve" smooth="yes"/>
      <point x="1268" y="1155"/>
      <point x="1108" y="1031"/>
      <point x="888" y="1031" type="curve" smooth="yes"/>
      <point x="709" y="1031"/>
      <point x="563" y="1088"/>
      <point x="451" y="1196" type="curve" smooth="yes"/>
      <point x="443" y="1205"/>
      <point x="434" y="1205"/>
      <point x="426" y="1196" type="curve" smooth="yes"/>
      <point x="419" y="1188"/>
      <point x="420" y="1179"/>
      <point x="430" y="1170" type="curve" smooth="yes"/>
      <point x="555" y="1055"/>
      <point x="709" y="996"/>
      <point x="888" y="996" type="curve" smooth="yes"/>
      <point x="1131" y="996"/>
      <point x="1309" y="1134"/>
      <point x="1309" y="1325" type="curve" smooth="yes"/>
      <point x="1309" y="1435"/>
      <point x="1221" y="1515"/>
      <point x="1101" y="1515" type="curve" smooth="yes"/>
      <point x="906" y="1515"/>
      <point x="769" y="1345"/>
      <point x="638" y="941" type="curve" smooth="yes"/>
      <point x="433" y="310" type="line" smooth="yes"/>
      <point x="366" y="108"/>
      <point x="290" y="15"/>
      <point x="191" y="15" type="curve" smooth="yes"/>
      <point x="138" y="15"/>
      <point x="103" y="46"/>
      <point x="103" y="88" type="curve" smooth="yes"/>
      <point x="103" y="146"/>
      <point x="151" y="189"/>
      <point x="244" y="189" type="curve" smooth="yes"/>
      <point x="478" y="189"/>
      <point x="828" y="-17"/>
      <point x="1029" y="-17" type="curve" smooth="yes"/>
      <point x="1054" y="-17"/>
      <point x="1065" y="18"/>
      <point x="1040" y="18" type="curve" smooth="yes"/>
      <point x="828" y="18"/>
      <point x="501" y="225"/>
      <point x="244" y="225" type="curve" smooth="yes"/>
      <point x="129" y="225"/>
      <point x="63" y="166"/>
      <point x="63" y="85" type="curve" smooth="yes"/>
      <point x="63" y="23"/>
      <point x="110" y="-21"/>
    </contour>
  </outline>
</glyph>
<glyph name="M.cur" format="2">
  <advance width="2014"/>
  <anchor x="929" y="0" name="bottom"/>
  <anchor x="1390" y="1424" name="top"/>
  <outline>
    <contour>
      <point x="1725" y="-19" type="curve" smooth="yes"/>
      <point x="1808" y="-19"/>
      <point x="1878" y="44"/>
      <point x="1945" y="174" type="curve" smooth="yes"/>
      <point x="1953" y="189"/>
      <point x="1953" y="199"/>
      <point x="1941" y="205" type="curve" smooth="yes"/>
      <point x="1930" y="211"/>
      <point x="1924" y="209"/>
      <point x="1918" y="195" type="curve" smooth="yes"/>
      <point x="1859" y="75"/>
      <point x="1799" y="18"/>
      <point x="1730" y="18" type="curve" smooth="yes"/>
      <point x="1643" y="18"/>
      <point x="1604" y="91"/>
      <point x="1660" y="260" type="curve" smooth="yes"/>
      <point x="1953" y="1129" type="line" smooth="yes"/>
      <point x="2030" y="1358"/>
      <point x="1941" y="1515"/>
      <point x="1760" y="1515" type="curve" smooth="yes"/>
      <point x="1599" y="1515"/>
      <point x="1459" y="1423"/>
      <point x="1359" y="1243" type="curve"/>
      <point x="1360" y="1257"/>
      <point x="1361" y="1271"/>
      <point x="1361" y="1284" type="curve" smooth="yes"/>
      <point x="1361" y="1426"/>
      <point x="1280" y="1515"/>
      <point x="1149" y="1515" type="curve" smooth="yes"/>
      <point x="999" y="1515"/>
      <point x="865" y="1437"/>
      <point x="766" y="1284" type="curve"/>
      <point x="779" y="1323"/>
      <point x="785" y="1358"/>
      <point x="785" y="1388" type="curve" smooth="yes"/>
      <point x="785" y="1471"/>
      <point x="738" y="1520"/>
      <point x="651" y="1520" type="curve" smooth="yes"/>
      <point x="564" y="1520"/>
      <point x="470" y="1466"/>
      <point x="393" y="1378" type="curve"/>
      <point x="384" y="1366"/>
      <point x="383" y="1359"/>
      <point x="390" y="1351" type="curve" smooth="yes"/>
      <point x="399" y="1343"/>
      <point x="409" y="1341"/>
      <point x="418" y="1351" type="curve" smooth="yes"/>
      <point x="494" y="1439"/>
      <point x="570" y="1483"/>
      <point x="646" y="1483" type="curve" smooth="yes"/>
      <point x="740" y="1483"/>
      <point x="771" y="1419"/>
      <point x="730" y="1291" type="curve" smooth="yes"/>
      <point x="306" y="-7" type="line"/>
      <point x="303" y="-20"/>
      <point x="306" y="-25"/>
      <point x="320" y="-25" type="curve" smooth="yes"/>
      <point x="336" y="-25"/>
      <point x="340" y="-20"/>
      <point x="345" y="-6" type="curve" smooth="yes"/>
      <point x="729" y="1171" type="line"/>
      <point x="831" y="1368"/>
      <point x="975" y="1478"/>
      <point x="1146" y="1478" type="curve" smooth="yes"/>
      <point x="1294" y="1478"/>
      <point x="1365" y="1343"/>
      <point x="1296" y="1134" type="curve" smooth="yes"/>
      <point x="926" y="0" type="line" smooth="yes"/>
      <point x="923" y="-10"/>
      <point x="929" y="-14"/>
      <point x="941" y="-14" type="curve" smooth="yes"/>
      <point x="954" y="-14"/>
      <point x="961" y="-10"/>
      <point x="964" y="0" type="curve" smooth="yes"/>
      <point x="1346" y="1168" type="line"/>
      <point x="1446" y="1367"/>
      <point x="1587" y="1478"/>
      <point x="1758" y="1478" type="curve" smooth="yes"/>
      <point x="1913" y="1478"/>
      <point x="1985" y="1344"/>
      <point x="1915" y="1134" type="curve" smooth="yes"/>
      <point x="1623" y="261" type="line" smooth="yes"/>
      <point x="1559" y="71"/>
      <point x="1619" y="-19"/>
    </contour>
  </outline>
</glyph>
<glyph name="M.cur.ini" format="2">
  <advance width="1949"/>
  <anchor x="929" y="0" name="bottom"/>
  <anchor x="1869" y="0" name="cnct"/>
  <anchor x="1390" y="1424" name="top"/>
  <outline>
    <contour>
      <point x="1814" y="-17" type="curve" smooth="yes"/>
      <point x="1839" y="-17"/>
      <point x="1850" y="18"/>
      <point x="1825" y="18" type="curve" smooth="yes"/>
      <point x="1691" y="18"/>
      <point x="1606" y="99"/>
      <point x="1680" y="318" type="curve" smooth="yes"/>
      <point x="1953" y="1129" type="line" smooth="yes"/>
      <point x="2030" y="1358"/>
      <point x="1941" y="1515"/>
      <point x="1760" y="1515" type="curve" smooth="yes"/>
      <point x="1591" y="1515"/>
      <point x="1445" y="1413"/>
      <point x="1344" y="1215" type="curve"/>
      <point x="1344" y="1165" type="line"/>
      <point x="1445" y="1366"/>
      <point x="1586" y="1478"/>
      <point x="1758" y="1478" type="curve" smooth="yes"/>
      <point x="1913" y="1478"/>
      <point x="1985" y="1344"/>
      <point x="1915" y="1134" type="curve" smooth="yes"/>
      <point x="1645" y="329" type="line" smooth="yes"/>
      <point x="1565" y="90"/>
      <point x="1660" y="-17"/>
    </contour>
    <contour>
      <point x="320" y="-25" type="curve" smooth="yes"/>
      <point x="336" y="-25"/>
      <point x="340" y="-20"/>
      <point x="345" y="-6" type="curve" smooth="yes"/>
      <point x="766" y="1284" type="line" smooth="yes"/>
      <point x="814" y="1429"/>
      <point x="770" y="1520"/>
      <point x="651" y="1520" type="curve" smooth="yes"/>
      <point x="564" y="1520"/>
      <point x="470" y="1466"/>
      <point x="393" y="1378" type="curve" smooth="yes"/>
      <point x="384" y="1366"/>
      <point x="383" y="1359"/>
      <point x="390" y="1351" type="curve" smooth="yes"/>
      <point x="399" y="1343"/>
      <point x="409" y="1341"/>
      <point x="418" y="1351" type="curve" smooth="yes"/>
      <point x="494" y="1439"/>
      <point x="570" y="1483"/>
      <point x="646" y="1483" type="curve" smooth="yes"/>
      <point x="740" y="1483"/>
      <point x="771" y="1419"/>
      <point x="730" y="1291" type="curve" smooth="yes"/>
      <point x="306" y="-7" type="line" smooth="yes"/>
      <point x="303" y="-20"/>
      <point x="306" y="-25"/>
    </contour>
    <contour>
      <point x="941" y="-14" type="curve" smooth="yes"/>
      <point x="954" y="-14"/>
      <point x="960" y="-10"/>
      <point x="964" y="0" type="curve" smooth="yes"/>
      <point x="1334" y="1129" type="line" smooth="yes"/>
      <point x="1409" y="1356"/>
      <point x="1323" y="1515"/>
      <point x="1149" y="1515" type="curve" smooth="yes"/>
      <point x="978" y="1515"/>
      <point x="828" y="1413"/>
      <point x="726" y="1215" type="curve"/>
      <point x="726" y="1165" type="line"/>
      <point x="828" y="1366"/>
      <point x="973" y="1478"/>
      <point x="1146" y="1478" type="curve" smooth="yes"/>
      <point x="1294" y="1478"/>
      <point x="1365" y="1343"/>
      <point x="1296" y="1134" type="curve" smooth="yes"/>
      <point x="926" y="0" type="line" smooth="yes"/>
      <point x="923" y="-10"/>
      <point x="929" y="-14"/>
    </contour>
  </outline>
</glyph>
<glyph name="M.dec.ini" format="2">
  <advance width="1965"/>
  <anchor x="1055" y="0" name="bottom"/>
  <anchor x="1884" y="0" name="cnct"/>
  <anchor x="1486" y="1424" name="top"/>
  <outline>
    <contour>
      <point x="249" y="-17" type="curve" smooth="yes"/>
      <point x="404" y="-17"/>
      <point x="564" y="154"/>
      <point x="1150" y="1413" type="curve"/>
      <point x="1069" y="930"/>
      <point x="1045" y="498"/>
      <point x="1029" y="6" type="curve" smooth="yes"/>
      <point x="1029" y="-6"/>
      <point x="1034" y="-17"/>
      <point x="1050" y="-17" type="curve" smooth="yes"/>
      <point x="1068" y="-17"/>
      <point x="1076" y="-12"/>
      <point x="1086" y="4" type="curve" smooth="yes"/>
      <point x="1920" y="1413" type="line"/>
      <point x="1635" y="260"/>
      <point x="1619" y="-17"/>
      <point x="1829" y="-17" type="curve" smooth="yes"/>
      <point x="1854" y="-17"/>
      <point x="1866" y="18"/>
      <point x="1841" y="18" type="curve" smooth="yes"/>
      <point x="1654" y="18"/>
      <point x="1676" y="269"/>
      <point x="1976" y="1486" type="curve" smooth="yes"/>
      <point x="1980" y="1501"/>
      <point x="1971" y="1509"/>
      <point x="1954" y="1509" type="curve" smooth="yes"/>
      <point x="1940" y="1509"/>
      <point x="1933" y="1504"/>
      <point x="1928" y="1495" type="curve" smooth="yes"/>
      <point x="1068" y="40" type="line"/>
      <point x="1086" y="631"/>
      <point x="1125" y="1051"/>
      <point x="1200" y="1485" type="curve"/>
      <point x="1201" y="1501"/>
      <point x="1193" y="1509"/>
      <point x="1174" y="1509" type="curve" smooth="yes"/>
      <point x="1163" y="1509"/>
      <point x="1153" y="1501"/>
      <point x="1146" y="1488" type="curve" smooth="yes"/>
      <point x="550" y="223"/>
      <point x="390" y="20"/>
      <point x="249" y="20" type="curve" smooth="yes"/>
      <point x="193" y="20"/>
      <point x="156" y="56"/>
      <point x="156" y="130" type="curve" smooth="yes"/>
      <point x="156" y="205"/>
      <point x="200" y="310"/>
      <point x="295" y="428" type="curve"/>
      <point x="301" y="438"/>
      <point x="300" y="444"/>
      <point x="290" y="451" type="curve" smooth="yes"/>
      <point x="280" y="459"/>
      <point x="271" y="458"/>
      <point x="265" y="449" type="curve" smooth="yes"/>
      <point x="163" y="326"/>
      <point x="115" y="214"/>
      <point x="115" y="130" type="curve" smooth="yes"/>
      <point x="115" y="34"/>
      <point x="166" y="-17"/>
    </contour>
  </outline>
</glyph>
<glyph name="M_locl.au" format="2">
  <advance width="1625"/>
  <anchor x="753" y="0" name="bottom"/>
  <anchor x="1179" y="1424" name="top"/>
  <outline>
    <contour>
      <point x="174" y="-14" type="curve" smooth="yes"/>
      <point x="190" y="-14"/>
      <point x="194" y="-10"/>
      <point x="198" y="1" type="curve" smooth="yes"/>
      <point x="656" y="1411" type="line"/>
      <point x="714" y="15" type="line" smooth="yes"/>
      <point x="714" y="3"/>
      <point x="723" y="0"/>
      <point x="734" y="0" type="curve" smooth="yes"/>
      <point x="744" y="0"/>
      <point x="750" y="-1"/>
      <point x="761" y="15" type="curve" smooth="yes"/>
      <point x="1725" y="1416" type="line"/>
      <point x="1266" y="1" type="line" smooth="yes"/>
      <point x="1263" y="-10"/>
      <point x="1269" y="-14"/>
      <point x="1281" y="-14" type="curve" smooth="yes"/>
      <point x="1296" y="-14"/>
      <point x="1300" y="-10"/>
      <point x="1304" y="1" type="curve" smooth="yes"/>
      <point x="1790" y="1496" type="line" smooth="yes"/>
      <point x="1795" y="1510"/>
      <point x="1788" y="1515"/>
      <point x="1775" y="1515" type="curve" smooth="yes"/>
      <point x="1756" y="1515"/>
      <point x="1749" y="1513"/>
      <point x="1743" y="1503" type="curve" smooth="yes"/>
      <point x="746" y="50" type="line"/>
      <point x="686" y="1503" type="line" smooth="yes"/>
      <point x="686" y="1513"/>
      <point x="680" y="1515"/>
      <point x="670" y="1515" type="curve" smooth="yes"/>
      <point x="654" y="1515"/>
      <point x="650" y="1511"/>
      <point x="646" y="1500" type="curve" smooth="yes"/>
      <point x="160" y="1" type="line" smooth="yes"/>
      <point x="156" y="-10"/>
      <point x="163" y="-14"/>
    </contour>
  </outline>
</glyph>
<glyph name="M_locl" format="2">
  <advance width="1676"/>
  <anchor x="756" y="0" name="bottom"/>
  <anchor x="1181" y="1424" name="top"/>
  <outline>
    <contour>
      <point x="66" y="-14" type="curve" smooth="yes"/>
      <point x="81" y="-14"/>
      <point x="85" y="-10"/>
      <point x="90" y="1" type="curve" smooth="yes"/>
      <point x="774" y="1430" type="line"/>
      <point x="736" y="1" type="line" smooth="yes"/>
      <point x="736" y="-12"/>
      <point x="743" y="-14"/>
      <point x="753" y="-14" type="curve" smooth="yes"/>
      <point x="761" y="-14"/>
      <point x="770" y="-12"/>
      <point x="779" y="1" type="curve" smooth="yes"/>
      <point x="1668" y="1426" type="line"/>
      <point x="1428" y="1" type="line" smooth="yes"/>
      <point x="1425" y="-10"/>
      <point x="1430" y="-14"/>
      <point x="1444" y="-14" type="curve" smooth="yes"/>
      <point x="1458" y="-14"/>
      <point x="1461" y="-10"/>
      <point x="1464" y="1" type="curve" smooth="yes"/>
      <point x="1716" y="1500" type="line" smooth="yes"/>
      <point x="1718" y="1511"/>
      <point x="1713" y="1515"/>
      <point x="1695" y="1515" type="curve" smooth="yes"/>
      <point x="1684" y="1515"/>
      <point x="1679" y="1513"/>
      <point x="1671" y="1500" type="curve" smooth="yes"/>
      <point x="774" y="61" type="line"/>
      <point x="813" y="1500" type="line" smooth="yes"/>
      <point x="813" y="1511"/>
      <point x="808" y="1515"/>
      <point x="791" y="1515" type="curve" smooth="yes"/>
      <point x="778" y="1515"/>
      <point x="773" y="1511"/>
      <point x="768" y="1500" type="curve" smooth="yes"/>
      <point x="50" y="1" type="line" smooth="yes"/>
      <point x="45" y="-9"/>
      <point x="50" y="-14"/>
    </contour>
  </outline>
</glyph>
<glyph name="N.cur.ini" format="2">
  <advance width="1429"/>
  <anchor x="668" y="0" name="bottom"/>
  <anchor x="1348" y="0" name="cnct"/>
  <anchor x="1119" y="1424" name="top"/>
  <outline>
    <contour>
      <point x="1294" y="-17" type="curve" smooth="yes"/>
      <point x="1319" y="-17"/>
      <point x="1330" y="18"/>
      <point x="1305" y="18" type="curve" smooth="yes"/>
      <point x="1171" y="18"/>
      <point x="1088" y="99"/>
      <point x="1161" y="316" type="curve" smooth="yes"/>
      <point x="1435" y="1129" type="line" smooth="yes"/>
      <point x="1514" y="1363"/>
      <point x="1421" y="1515"/>
      <point x="1196" y="1515" type="curve" smooth="yes"/>
      <point x="1029" y="1515"/>
      <point x="874" y="1433"/>
      <point x="762" y="1272" type="curve"/>
      <point x="766" y="1284" type="line" smooth="yes"/>
      <point x="814" y="1429"/>
      <point x="770" y="1520"/>
      <point x="651" y="1520" type="curve" smooth="yes"/>
      <point x="564" y="1520"/>
      <point x="470" y="1466"/>
      <point x="393" y="1378" type="curve"/>
      <point x="384" y="1366"/>
      <point x="383" y="1359"/>
      <point x="390" y="1351" type="curve" smooth="yes"/>
      <point x="399" y="1343"/>
      <point x="409" y="1341"/>
      <point x="418" y="1351" type="curve" smooth="yes"/>
      <point x="494" y="1439"/>
      <point x="570" y="1483"/>
      <point x="646" y="1483" type="curve" smooth="yes"/>
      <point x="740" y="1483"/>
      <point x="771" y="1419"/>
      <point x="730" y="1291" type="curve" smooth="yes"/>
      <point x="306" y="-7" type="line"/>
      <point x="303" y="-20"/>
      <point x="306" y="-25"/>
      <point x="320" y="-25" type="curve" smooth="yes"/>
      <point x="336" y="-25"/>
      <point x="340" y="-20"/>
      <point x="345" y="-6" type="curve" smooth="yes"/>
      <point x="729" y="1170" type="line"/>
      <point x="842" y="1368"/>
      <point x="1007" y="1478"/>
      <point x="1194" y="1478" type="curve" smooth="yes"/>
      <point x="1395" y="1478"/>
      <point x="1470" y="1349"/>
      <point x="1398" y="1134" type="curve" smooth="yes"/>
      <point x="1126" y="329" type="line" smooth="yes"/>
      <point x="1046" y="90"/>
      <point x="1140" y="-17"/>
    </contour>
  </outline>
</glyph>
<glyph name="O.cur" format="2">
  <advance width="1440"/>
  <anchor x="635" y="0" name="bottom"/>
  <anchor x="878" y="744" name="center"/>
  <anchor x="1215" y="21" name="ogonek"/>
  <anchor x="1063" y="1424" name="top"/>
  <anchor x="1300" y="1488" name="topright"/>
  <outline>
    <contour>
      <point x="676" y="-19" type="curve" smooth="yes"/>
      <point x="1130" y="-19"/>
      <point x="1495" y="548"/>
      <point x="1495" y="1065" type="curve" smooth="yes"/>
      <point x="1495" y="1348"/>
      <point x="1378" y="1515"/>
      <point x="1169" y="1515" type="curve" smooth="yes"/>
      <point x="990" y="1515"/>
      <point x="844" y="1394"/>
      <point x="723" y="1190" type="curve" smooth="yes"/>
      <point x="715" y="1176"/>
      <point x="715" y="1168"/>
      <point x="724" y="1161" type="curve" smooth="yes"/>
      <point x="736" y="1154"/>
      <point x="745" y="1156"/>
      <point x="753" y="1170" type="curve" smooth="yes"/>
      <point x="870" y="1371"/>
      <point x="1011" y="1478"/>
      <point x="1158" y="1478" type="curve" smooth="yes"/>
      <point x="1351" y="1478"/>
      <point x="1454" y="1334"/>
      <point x="1454" y="1065" type="curve" smooth="yes"/>
      <point x="1454" y="566"/>
      <point x="1101" y="19"/>
      <point x="675" y="19" type="curve" smooth="yes"/>
      <point x="449" y="19"/>
      <point x="315" y="184"/>
      <point x="315" y="463" type="curve" smooth="yes"/>
      <point x="315" y="829"/>
      <point x="506" y="1210"/>
      <point x="771" y="1374" type="curve" smooth="yes"/>
      <point x="785" y="1383"/>
      <point x="788" y="1390"/>
      <point x="781" y="1401" type="curve" smooth="yes"/>
      <point x="775" y="1413"/>
      <point x="766" y="1413"/>
      <point x="749" y="1401" type="curve" smooth="yes"/>
      <point x="474" y="1223"/>
      <point x="274" y="831"/>
      <point x="274" y="463" type="curve" smooth="yes"/>
      <point x="274" y="163"/>
      <point x="421" y="-19"/>
    </contour>
  </outline>
</glyph>
<glyph name="O.dec" format="2">
  <advance width="1533"/>
  <anchor x="635" y="0" name="bottom"/>
  <anchor x="878" y="744" name="center"/>
  <anchor x="1215" y="21" name="ogonek"/>
  <anchor x="1063" y="1424" name="top"/>
  <anchor x="1233" y="1488" name="topright"/>
  <outline>
    <contour>
      <point x="1098" y="1515" type="curve" smooth="yes"/>
      <point x="830" y="1515"/>
      <point x="658" y="1291"/>
      <point x="658" y="1086" type="curve" smooth="yes"/>
      <point x="658" y="889"/>
      <point x="761" y="789"/>
      <point x="965" y="789" type="curve" smooth="yes"/>
      <point x="1164" y="789"/>
      <point x="1396" y="858"/>
      <point x="1746" y="1005" type="curve" smooth="yes"/>
      <point x="1758" y="1010"/>
      <point x="1761" y="1019"/>
      <point x="1758" y="1030" type="curve" smooth="yes"/>
      <point x="1754" y="1041"/>
      <point x="1746" y="1045"/>
      <point x="1735" y="1040" type="curve" smooth="yes"/>
      <point x="1405" y="901"/>
      <point x="1166" y="826"/>
      <point x="966" y="826" type="curve" smooth="yes"/>
      <point x="789" y="826"/>
      <point x="699" y="916"/>
      <point x="699" y="1093" type="curve" smooth="yes"/>
      <point x="699" y="1306"/>
      <point x="878" y="1478"/>
      <point x="1098" y="1478" type="curve" smooth="yes"/>
      <point x="1325" y="1478"/>
      <point x="1443" y="1314"/>
      <point x="1443" y="1034" type="curve" smooth="yes"/>
      <point x="1443" y="599"/>
      <point x="1141" y="19"/>
      <point x="685" y="19" type="curve" smooth="yes"/>
      <point x="456" y="19"/>
      <point x="314" y="179"/>
      <point x="314" y="469" type="curve" smooth="yes"/>
      <point x="314" y="870"/>
      <point x="564" y="1381"/>
      <point x="991" y="1474" type="curve" smooth="yes"/>
      <point x="1006" y="1476"/>
      <point x="1013" y="1484"/>
      <point x="1009" y="1496" type="curve" smooth="yes"/>
      <point x="1005" y="1508"/>
      <point x="996" y="1513"/>
      <point x="984" y="1509" type="curve" smooth="yes"/>
      <point x="525" y="1411"/>
      <point x="273" y="881"/>
      <point x="273" y="469" type="curve" smooth="yes"/>
      <point x="273" y="155"/>
      <point x="433" y="-19"/>
      <point x="681" y="-19" type="curve" smooth="yes"/>
      <point x="1176" y="-19"/>
      <point x="1484" y="581"/>
      <point x="1484" y="1034" type="curve" smooth="yes"/>
      <point x="1484" y="1328"/>
      <point x="1353" y="1515"/>
    </contour>
  </outline>
</glyph>
<glyph name="OE.cur" format="2">
  <advance width="2073"/>
  <anchor x="1488" y="1424" name="top"/>
  <outline>
    <contour>
      <point x="658" y="-19" type="curve" smooth="yes"/>
      <point x="1050" y="-19"/>
      <point x="1458" y="653"/>
      <point x="1458" y="1115" type="curve" smooth="yes"/>
      <point x="1458" y="1366"/>
      <point x="1355" y="1515"/>
      <point x="1175" y="1515" type="curve" smooth="yes"/>
      <point x="994" y="1515"/>
      <point x="844" y="1394"/>
      <point x="723" y="1190" type="curve" smooth="yes"/>
      <point x="715" y="1176"/>
      <point x="715" y="1168"/>
      <point x="724" y="1161" type="curve" smooth="yes"/>
      <point x="736" y="1154"/>
      <point x="745" y="1156"/>
      <point x="753" y="1170" type="curve" smooth="yes"/>
      <point x="871" y="1373"/>
      <point x="1015" y="1478"/>
      <point x="1164" y="1478" type="curve" smooth="yes"/>
      <point x="1329" y="1478"/>
      <point x="1416" y="1351"/>
      <point x="1416" y="1115" type="curve" smooth="yes"/>
      <point x="1416" y="671"/>
      <point x="1023" y="19"/>
      <point x="656" y="19" type="curve" smooth="yes"/>
      <point x="441" y="19"/>
      <point x="315" y="184"/>
      <point x="315" y="463" type="curve" smooth="yes"/>
      <point x="315" y="829"/>
      <point x="506" y="1210"/>
      <point x="771" y="1374" type="curve" smooth="yes"/>
      <point x="785" y="1383"/>
      <point x="788" y="1390"/>
      <point x="781" y="1401" type="curve" smooth="yes"/>
      <point x="775" y="1413"/>
      <point x="766" y="1413"/>
      <point x="749" y="1401" type="curve" smooth="yes"/>
      <point x="474" y="1223"/>
      <point x="274" y="831"/>
      <point x="274" y="463" type="curve" smooth="yes"/>
      <point x="274" y="163"/>
      <point x="414" y="-19"/>
    </contour>
    <contour>
      <point x="1514" y="-19" type="curve" smooth="yes"/>
      <point x="1678" y="-19"/>
      <point x="1839" y="53"/>
      <point x="1978" y="204" type="curve" smooth="yes"/>
      <point x="1994" y="223"/>
      <point x="2000" y="231"/>
      <point x="1991" y="243" type="curve" smooth="yes"/>
      <point x="1983" y="255"/>
      <point x="1971" y="253"/>
      <point x="1959" y="238" type="curve" smooth="yes"/>
      <point x="1828" y="90"/>
      <point x="1674" y="19"/>
      <point x="1524" y="19" type="curve" smooth="yes"/>
      <point x="1345" y="19"/>
      <point x="1228" y="125"/>
      <point x="1228" y="288" type="curve" smooth="yes"/>
      <point x="1228" y="548"/>
      <point x="1454" y="768"/>
      <point x="1713" y="768" type="curve" smooth="yes"/>
      <point x="1895" y="768" type="line" smooth="yes"/>
      <point x="1908" y="768"/>
      <point x="1913" y="771"/>
      <point x="1916" y="785" type="curve" smooth="yes"/>
      <point x="1919" y="796"/>
      <point x="1919" y="803"/>
      <point x="1905" y="803" type="curve" smooth="yes"/>
      <point x="1725" y="803" type="line" smooth="yes"/>
      <point x="1608" y="803"/>
      <point x="1531" y="909"/>
      <point x="1531" y="1070" type="curve" smooth="yes"/>
      <point x="1531" y="1274"/>
      <point x="1673" y="1478"/>
      <point x="1914" y="1478" type="curve" smooth="yes"/>
      <point x="2049" y="1478"/>
      <point x="2149" y="1424"/>
      <point x="2206" y="1334" type="curve" smooth="yes"/>
      <point x="2215" y="1321"/>
      <point x="2221" y="1320"/>
      <point x="2230" y="1326" type="curve" smooth="yes"/>
      <point x="2240" y="1334"/>
      <point x="2243" y="1343"/>
      <point x="2234" y="1356" type="curve" smooth="yes"/>
      <point x="2173" y="1456"/>
      <point x="2058" y="1515"/>
      <point x="1925" y="1515" type="curve" smooth="yes"/>
      <point x="1634" y="1515"/>
      <point x="1490" y="1271"/>
      <point x="1490" y="1066" type="curve" smooth="yes"/>
      <point x="1490" y="941"/>
      <point x="1543" y="829"/>
      <point x="1625" y="794" type="curve"/>
      <point x="1361" y="741"/>
      <point x="1186" y="521"/>
      <point x="1186" y="285" type="curve" smooth="yes"/>
      <point x="1186" y="101"/>
      <point x="1316" y="-19"/>
    </contour>
  </outline>
</glyph>
<glyph name="OE.cur.ini" format="2">
  <advance width="2012"/>
  <anchor x="1931" y="0" name="cnct"/>
  <anchor x="1488" y="1424" name="top"/>
  <outline>
    <contour>
      <point x="658" y="-19" type="curve" smooth="yes"/>
      <point x="1050" y="-19"/>
      <point x="1458" y="653"/>
      <point x="1458" y="1115" type="curve" smooth="yes"/>
      <point x="1458" y="1366"/>
      <point x="1355" y="1515"/>
      <point x="1175" y="1515" type="curve" smooth="yes"/>
      <point x="994" y="1515"/>
      <point x="844" y="1394"/>
      <point x="723" y="1190" type="curve" smooth="yes"/>
      <point x="715" y="1176"/>
      <point x="715" y="1168"/>
      <point x="724" y="1161" type="curve" smooth="yes"/>
      <point x="736" y="1154"/>
      <point x="745" y="1156"/>
      <point x="753" y="1170" type="curve" smooth="yes"/>
      <point x="871" y="1373"/>
      <point x="1015" y="1478"/>
      <point x="1164" y="1478" type="curve" smooth="yes"/>
      <point x="1329" y="1478"/>
      <point x="1416" y="1351"/>
      <point x="1416" y="1115" type="curve" smooth="yes"/>
      <point x="1416" y="671"/>
      <point x="1023" y="19"/>
      <point x="656" y="19" type="curve" smooth="yes"/>
      <point x="441" y="19"/>
      <point x="315" y="184"/>
      <point x="315" y="463" type="curve" smooth="yes"/>
      <point x="315" y="829"/>
      <point x="506" y="1210"/>
      <point x="771" y="1374" type="curve" smooth="yes"/>
      <point x="785" y="1383"/>
      <point x="788" y="1390"/>
      <point x="781" y="1401" type="curve" smooth="yes"/>
      <point x="775" y="1413"/>
      <point x="766" y="1413"/>
      <point x="749" y="1401" type="curve" smooth="yes"/>
      <point x="474" y="1223"/>
      <point x="274" y="831"/>
      <point x="274" y="463" type="curve" smooth="yes"/>
      <point x="274" y="163"/>
      <point x="414" y="-19"/>
    </contour>
    <contour>
      <point x="1512" y="-17" type="curve" smooth="yes"/>
      <point x="1532" y="-17"/>
      <point x="1537" y="16"/>
      <point x="1517" y="16" type="curve" smooth="yes"/>
      <point x="1337" y="16"/>
      <point x="1228" y="122"/>
      <point x="1228" y="291" type="curve" smooth="yes"/>
      <point x="1228" y="548"/>
      <point x="1454" y="768"/>
      <point x="1713" y="768" type="curve" smooth="yes"/>
      <point x="1895" y="768" type="line" smooth="yes"/>
      <point x="1908" y="768"/>
      <point x="1913" y="771"/>
      <point x="1916" y="785" type="curve" smooth="yes"/>
      <point x="1919" y="796"/>
      <point x="1919" y="803"/>
      <point x="1905" y="803" type="curve" smooth="yes"/>
      <point x="1725" y="803" type="line" smooth="yes"/>
      <point x="1608" y="803"/>
      <point x="1531" y="909"/>
      <point x="1531" y="1070" type="curve" smooth="yes"/>
      <point x="1531" y="1274"/>
      <point x="1673" y="1478"/>
      <point x="1914" y="1478" type="curve" smooth="yes"/>
      <point x="2049" y="1478"/>
      <point x="2149" y="1424"/>
      <point x="2206" y="1334" type="curve" smooth="yes"/>
      <point x="2215" y="1321"/>
      <point x="2221" y="1320"/>
      <point x="2230" y="1326" type="curve" smooth="yes"/>
      <point x="2240" y="1334"/>
      <point x="2243" y="1343"/>
      <point x="2234" y="1356" type="curve" smooth="yes"/>
      <point x="2173" y="1456"/>
      <point x="2058" y="1515"/>
      <point x="1925" y="1515" type="curve" smooth="yes"/>
      <point x="1634" y="1515"/>
      <point x="1490" y="1271"/>
      <point x="1490" y="1066" type="curve" smooth="yes"/>
      <point x="1490" y="941"/>
      <point x="1543" y="829"/>
      <point x="1625" y="794" type="curve"/>
      <point x="1362" y="741"/>
      <point x="1187" y="521"/>
      <point x="1187" y="290" type="curve" smooth="yes"/>
      <point x="1187" y="102"/>
      <point x="1310" y="-17"/>
    </contour>
  </outline>
</glyph>
<glyph name="P.cur" format="2">
  <advance width="1288"/>
  <guideline x="408" y="286" angle="3.92"/>
  <guideline y="609"/>
  <outline>
    <contour>
      <point x="714" y="610" type="curve" smooth="yes"/>
      <point x="1176" y="621"/>
      <point x="1480" y="850"/>
      <point x="1480" y="1188" type="curve" smooth="yes"/>
      <point x="1480" y="1394"/>
      <point x="1325" y="1515"/>
      <point x="1063" y="1515" type="curve" smooth="yes"/>
      <point x="785" y="1515"/>
      <point x="578" y="1431"/>
      <point x="424" y="1305" type="curve" smooth="yes"/>
      <point x="416" y="1299"/>
      <point x="415" y="1291"/>
      <point x="421" y="1281" type="curve" smooth="yes"/>
      <point x="428" y="1271"/>
      <point x="439" y="1269"/>
      <point x="445" y="1275" type="curve" smooth="yes"/>
      <point x="583" y="1393"/>
      <point x="788" y="1478"/>
      <point x="1053" y="1478" type="curve" smooth="yes"/>
      <point x="1295" y="1478"/>
      <point x="1439" y="1370"/>
      <point x="1439" y="1188" type="curve" smooth="yes"/>
      <point x="1439" y="871"/>
      <point x="1153" y="658"/>
      <point x="715" y="646" type="curve" smooth="yes"/>
      <point x="705" y="646"/>
      <point x="699" y="639"/>
      <point x="699" y="628" type="curve" smooth="yes"/>
      <point x="699" y="616"/>
      <point x="704" y="610"/>
    </contour>
    <contour>
      <point x="215" y="-19" type="curve" smooth="yes"/>
      <point x="335" y="-19"/>
      <point x="418" y="64"/>
      <point x="474" y="236" type="curve" smooth="yes"/>
      <point x="820" y="1311" type="line" smooth="yes"/>
      <point x="824" y="1323"/>
      <point x="818" y="1326"/>
      <point x="805" y="1326" type="curve" smooth="yes"/>
      <point x="789" y="1326"/>
      <point x="785" y="1323"/>
      <point x="781" y="1311" type="curve" smooth="yes"/>
      <point x="439" y="250" type="line" smooth="yes"/>
      <point x="388" y="93"/>
      <point x="316" y="18"/>
      <point x="223" y="18" type="curve" smooth="yes"/>
      <point x="168" y="18"/>
      <point x="99" y="30"/>
      <point x="63" y="133" type="curve" smooth="yes"/>
      <point x="59" y="143"/>
      <point x="53" y="144"/>
      <point x="43" y="140" type="curve" smooth="yes"/>
      <point x="31" y="135"/>
      <point x="26" y="126"/>
      <point x="30" y="116" type="curve" smooth="yes"/>
      <point x="65" y="19"/>
      <point x="130" y="-19"/>
    </contour>
  </outline>
</glyph>
<glyph name="P.dec" format="2">
  <advance width="1203"/>
  <outline>
    <contour>
      <point x="666" y="606" type="curve"/>
      <point x="1103" y="641"/>
      <point x="1418" y="908"/>
      <point x="1418" y="1239" type="curve" smooth="yes"/>
      <point x="1418" y="1410"/>
      <point x="1325" y="1515"/>
      <point x="1174" y="1515" type="curve" smooth="yes"/>
      <point x="994" y="1515"/>
      <point x="824" y="1374"/>
      <point x="691" y="1130" type="curve"/>
      <point x="811" y="1500" type="line" smooth="yes"/>
      <point x="815" y="1511"/>
      <point x="809" y="1515"/>
      <point x="796" y="1515" type="curve" smooth="yes"/>
      <point x="779" y="1515"/>
      <point x="775" y="1508"/>
      <point x="771" y="1500" type="curve" smooth="yes"/>
      <point x="676" y="1294"/>
      <point x="533" y="1149"/>
      <point x="345" y="1070" type="curve" smooth="yes"/>
      <point x="335" y="1066"/>
      <point x="331" y="1058"/>
      <point x="334" y="1049" type="curve" smooth="yes"/>
      <point x="338" y="1036"/>
      <point x="345" y="1031"/>
      <point x="356" y="1036" type="curve" smooth="yes"/>
      <point x="513" y="1106"/>
      <point x="636" y="1213"/>
      <point x="724" y="1350" type="curve"/>
      <point x="289" y="1" type="line" smooth="yes"/>
      <point x="285" y="-10"/>
      <point x="291" y="-14"/>
      <point x="304" y="-14" type="curve" smooth="yes"/>
      <point x="320" y="-14"/>
      <point x="324" y="-10"/>
      <point x="328" y="1" type="curve" smooth="yes"/>
      <point x="596" y="833" type="line" smooth="yes"/>
      <point x="725" y="1234"/>
      <point x="960" y="1478"/>
      <point x="1169" y="1478" type="curve" smooth="yes"/>
      <point x="1296" y="1478"/>
      <point x="1376" y="1388"/>
      <point x="1376" y="1239" type="curve" smooth="yes"/>
      <point x="1376" y="930"/>
      <point x="1078" y="680"/>
      <point x="666" y="643" type="curve" smooth="yes"/>
      <point x="656" y="641"/>
      <point x="651" y="636"/>
      <point x="650" y="626" type="curve" smooth="yes"/>
      <point x="646" y="610"/>
      <point x="651" y="604"/>
    </contour>
  </outline>
</glyph>
<glyph name="Q.cur" format="2">
  <advance width="1479"/>
  <outline>
    <contour>
      <point x="1106" y="-141" type="curve" smooth="yes"/>
      <point x="1198" y="-141"/>
      <point x="1295" y="-82"/>
      <point x="1398" y="76" type="curve" smooth="yes"/>
      <point x="1406" y="90"/>
      <point x="1403" y="99"/>
      <point x="1394" y="105" type="curve" smooth="yes"/>
      <point x="1384" y="113"/>
      <point x="1378" y="109"/>
      <point x="1370" y="98" type="curve" smooth="yes"/>
      <point x="1268" y="-55"/>
      <point x="1183" y="-104"/>
      <point x="1108" y="-104" type="curve" smooth="yes"/>
      <point x="885" y="-104"/>
      <point x="926" y="443"/>
      <point x="641" y="443" type="curve" smooth="yes"/>
      <point x="525" y="443"/>
      <point x="440" y="353"/>
      <point x="440" y="228" type="curve" smooth="yes"/>
      <point x="440" y="79"/>
      <point x="531" y="-19"/>
      <point x="695" y="-19" type="curve" smooth="yes"/>
      <point x="1124" y="-19"/>
      <point x="1489" y="560"/>
      <point x="1489" y="1065" type="curve" smooth="yes"/>
      <point x="1489" y="1346"/>
      <point x="1338" y="1515"/>
      <point x="1074" y="1515" type="curve" smooth="yes"/>
      <point x="621" y="1515"/>
      <point x="254" y="999"/>
      <point x="254" y="461" type="curve" smooth="yes"/>
      <point x="254" y="399"/>
      <point x="259" y="356"/>
      <point x="270" y="316" type="curve" smooth="yes"/>
      <point x="276" y="290"/>
      <point x="311" y="303"/>
      <point x="306" y="328" type="curve" smooth="yes"/>
      <point x="298" y="374"/>
      <point x="295" y="409"/>
      <point x="295" y="463" type="curve" smooth="yes"/>
      <point x="295" y="981"/>
      <point x="648" y="1478"/>
      <point x="1074" y="1478" type="curve" smooth="yes"/>
      <point x="1309" y="1478"/>
      <point x="1448" y="1325"/>
      <point x="1448" y="1065" type="curve" smooth="yes"/>
      <point x="1448" y="579"/>
      <point x="1108" y="19"/>
      <point x="694" y="19" type="curve" smooth="yes"/>
      <point x="555" y="19"/>
      <point x="481" y="101"/>
      <point x="481" y="226" type="curve" smooth="yes"/>
      <point x="481" y="330"/>
      <point x="548" y="405"/>
      <point x="638" y="405" type="curve" smooth="yes"/>
      <point x="898" y="405"/>
      <point x="849" y="-141"/>
    </contour>
  </outline>
</glyph>
<glyph name="Q.cur.ini" format="2">
  <advance width="1459"/>
  <guideline x="278" y="15" angle="75.38"/>
  <anchor x="1378" y="0" name="cnct"/>
  <outline>
    <contour>
      <point x="1324" y="-17" type="curve" smooth="yes"/>
      <point x="1349" y="-17"/>
      <point x="1360" y="18"/>
      <point x="1335" y="18" type="curve" smooth="yes"/>
      <point x="1100" y="18"/>
      <point x="1013" y="443"/>
      <point x="679" y="443" type="curve" smooth="yes"/>
      <point x="541" y="443"/>
      <point x="440" y="353"/>
      <point x="440" y="228" type="curve" smooth="yes"/>
      <point x="440" y="79"/>
      <point x="531" y="-19"/>
      <point x="695" y="-19" type="curve" smooth="yes"/>
      <point x="1124" y="-19"/>
      <point x="1489" y="560"/>
      <point x="1489" y="1065" type="curve" smooth="yes"/>
      <point x="1489" y="1346"/>
      <point x="1338" y="1515"/>
      <point x="1074" y="1515" type="curve" smooth="yes"/>
      <point x="621" y="1515"/>
      <point x="254" y="999"/>
      <point x="254" y="461" type="curve" smooth="yes"/>
      <point x="254" y="399"/>
      <point x="259" y="356"/>
      <point x="270" y="316" type="curve" smooth="yes"/>
      <point x="276" y="290"/>
      <point x="311" y="303"/>
      <point x="306" y="328" type="curve" smooth="yes"/>
      <point x="298" y="374"/>
      <point x="295" y="409"/>
      <point x="295" y="463" type="curve" smooth="yes"/>
      <point x="295" y="981"/>
      <point x="648" y="1478"/>
      <point x="1074" y="1478" type="curve" smooth="yes"/>
      <point x="1309" y="1478"/>
      <point x="1448" y="1325"/>
      <point x="1448" y="1065" type="curve" smooth="yes"/>
      <point x="1448" y="579"/>
      <point x="1108" y="19"/>
      <point x="694" y="19" type="curve" smooth="yes"/>
      <point x="555" y="19"/>
      <point x="481" y="101"/>
      <point x="481" y="226" type="curve" smooth="yes"/>
      <point x="481" y="330"/>
      <point x="564" y="405"/>
      <point x="675" y="405" type="curve" smooth="yes"/>
      <point x="990" y="405"/>
      <point x="1080" y="-17"/>
    </contour>
  </outline>
</glyph>
<glyph name="Q.cur_locl.ini" format="2">
  <advance width="1459"/>
  <anchor x="1378" y="0" name="cnct"/>
  <anchor x="635" y="0" name="bottom"/>
  <anchor x="878" y="744" name="center"/>
  <anchor x="1215" y="21" name="ogonek"/>
  <anchor x="1063" y="1424" name="top"/>
  <anchor x="1364" y="1424" name="topright"/>
  <outline>
    <contour>
      <point x="1324" y="-17" type="curve" smooth="yes"/>
      <point x="1349" y="-17"/>
      <point x="1360" y="18"/>
      <point x="1335" y="18" type="curve" smooth="yes"/>
      <point x="1094" y="18"/>
      <point x="1029" y="443"/>
      <point x="691" y="443" type="curve" smooth="yes"/>
      <point x="666" y="443"/>
      <point x="663" y="405"/>
      <point x="688" y="405" type="curve" smooth="yes"/>
      <point x="1000" y="405"/>
      <point x="1074" y="-17"/>
    </contour>
    <component base="O"/>
  </outline>
</glyph>
<glyph name="Q.dec" format="2">
  <advance width="1660"/>
  <outline>
    <contour>
      <point x="653" y="-17" type="curve" smooth="yes"/>
      <point x="800" y="-17"/>
      <point x="944" y="44"/>
      <point x="1069" y="143" type="curve"/>
      <point x="1121" y="58"/>
      <point x="1170" y="-17"/>
      <point x="1288" y="-17" type="curve" smooth="yes"/>
      <point x="1398" y="-17"/>
      <point x="1495" y="51"/>
      <point x="1583" y="191" type="curve" smooth="yes"/>
      <point x="1588" y="199"/>
      <point x="1585" y="206"/>
      <point x="1575" y="213" type="curve" smooth="yes"/>
      <point x="1565" y="219"/>
      <point x="1558" y="218"/>
      <point x="1553" y="210" type="curve" smooth="yes"/>
      <point x="1473" y="84"/>
      <point x="1386" y="20"/>
      <point x="1296" y="20" type="curve" smooth="yes"/>
      <point x="1190" y="20"/>
      <point x="1148" y="88"/>
      <point x="1099" y="166" type="curve"/>
      <point x="1324" y="359"/>
      <point x="1483" y="671"/>
      <point x="1483" y="955" type="curve" smooth="yes"/>
      <point x="1483" y="1254"/>
      <point x="1326" y="1380"/>
      <point x="1154" y="1380" type="curve" smooth="yes"/>
      <point x="976" y="1380"/>
      <point x="841" y="1196"/>
      <point x="725" y="838" type="curve" smooth="yes"/>
      <point x="686" y="716"/>
      <point x="650" y="574"/>
      <point x="616" y="411" type="curve"/>
      <point x="586" y="403"/>
      <point x="571" y="379"/>
      <point x="571" y="358" type="curve" smooth="yes"/>
      <point x="571" y="339"/>
      <point x="581" y="323"/>
      <point x="604" y="323" type="curve" smooth="yes"/>
      <point x="623" y="323"/>
      <point x="641" y="339"/>
      <point x="650" y="379" type="curve"/>
      <point x="893" y="389"/>
      <point x="981" y="281"/>
      <point x="1048" y="176" type="curve"/>
      <point x="929" y="80"/>
      <point x="793" y="20"/>
      <point x="656" y="20" type="curve" smooth="yes"/>
      <point x="446" y="20"/>
      <point x="320" y="174"/>
      <point x="320" y="425" type="curve" smooth="yes"/>
      <point x="320" y="921"/>
      <point x="638" y="1370"/>
      <point x="1020" y="1476" type="curve" smooth="yes"/>
      <point x="1034" y="1480"/>
      <point x="1039" y="1486"/>
      <point x="1034" y="1501" type="curve" smooth="yes"/>
      <point x="1030" y="1513"/>
      <point x="1025" y="1516"/>
      <point x="1010" y="1513" type="curve" smooth="yes"/>
      <point x="608" y="1409"/>
      <point x="279" y="935"/>
      <point x="279" y="421" type="curve" smooth="yes"/>
      <point x="279" y="149"/>
      <point x="420" y="-17"/>
    </contour>
    <contour>
      <point x="1151" y="1343" type="curve" smooth="yes"/>
      <point x="1299" y="1343"/>
      <point x="1441" y="1238"/>
      <point x="1441" y="950" type="curve" smooth="yes"/>
      <point x="1441" y="683"/>
      <point x="1289" y="385"/>
      <point x="1078" y="201" type="curve"/>
      <point x="1011" y="305"/>
      <point x="919" y="415"/>
      <point x="658" y="414" type="curve"/>
      <point x="690" y="568"/>
      <point x="725" y="703"/>
      <point x="761" y="819" type="curve" smooth="yes"/>
      <point x="875" y="1176"/>
      <point x="999" y="1343"/>
    </contour>
  </outline>
</glyph>
<glyph name="Q.dec.ini" format="2">
  <advance width="1484"/>
  <anchor x="1403" y="0" name="cnct"/>
  <outline>
    <contour>
      <point x="653" y="-17" type="curve" smooth="yes"/>
      <point x="814" y="-17"/>
      <point x="970" y="55"/>
      <point x="1104" y="170" type="curve"/>
      <point x="1170" y="75"/>
      <point x="1219" y="-17"/>
      <point x="1349" y="-17" type="curve" smooth="yes"/>
      <point x="1374" y="-17"/>
      <point x="1385" y="18"/>
      <point x="1360" y="18" type="curve" smooth="yes"/>
      <point x="1240" y="18"/>
      <point x="1196" y="104"/>
      <point x="1133" y="196" type="curve"/>
      <point x="1340" y="390"/>
      <point x="1483" y="686"/>
      <point x="1483" y="955" type="curve" smooth="yes"/>
      <point x="1483" y="1254"/>
      <point x="1326" y="1380"/>
      <point x="1154" y="1380" type="curve" smooth="yes"/>
      <point x="976" y="1380"/>
      <point x="841" y="1196"/>
      <point x="725" y="838" type="curve" smooth="yes"/>
      <point x="685" y="716"/>
      <point x="650" y="573"/>
      <point x="616" y="409" type="curve"/>
      <point x="584" y="400"/>
      <point x="571" y="378"/>
      <point x="571" y="358" type="curve" smooth="yes"/>
      <point x="571" y="339"/>
      <point x="581" y="323"/>
      <point x="604" y="323" type="curve" smooth="yes"/>
      <point x="623" y="323"/>
      <point x="641" y="339"/>
      <point x="650" y="379" type="curve"/>
      <point x="899" y="391"/>
      <point x="1005" y="301"/>
      <point x="1080" y="203" type="curve"/>
      <point x="953" y="91"/>
      <point x="805" y="20"/>
      <point x="656" y="20" type="curve" smooth="yes"/>
      <point x="446" y="20"/>
      <point x="320" y="174"/>
      <point x="320" y="425" type="curve" smooth="yes"/>
      <point x="320" y="921"/>
      <point x="638" y="1370"/>
      <point x="1020" y="1476" type="curve" smooth="yes"/>
      <point x="1034" y="1480"/>
      <point x="1039" y="1486"/>
      <point x="1034" y="1501" type="curve" smooth="yes"/>
      <point x="1030" y="1513"/>
      <point x="1025" y="1516"/>
      <point x="1010" y="1513" type="curve" smooth="yes"/>
      <point x="608" y="1409"/>
      <point x="279" y="935"/>
      <point x="279" y="421" type="curve" smooth="yes"/>
      <point x="279" y="149"/>
      <point x="420" y="-17"/>
    </contour>
    <contour>
      <point x="1151" y="1343" type="curve" smooth="yes"/>
      <point x="1299" y="1343"/>
      <point x="1441" y="1238"/>
      <point x="1441" y="950" type="curve" smooth="yes"/>
      <point x="1441" y="695"/>
      <point x="1303" y="415"/>
      <point x="1108" y="229" type="curve"/>
      <point x="1033" y="326"/>
      <point x="921" y="420"/>
      <point x="658" y="414" type="curve"/>
      <point x="690" y="568"/>
      <point x="725" y="703"/>
      <point x="761" y="819" type="curve" smooth="yes"/>
      <point x="875" y="1176"/>
      <point x="999" y="1343"/>
    </contour>
  </outline>
</glyph>
<glyph name="R.dec.ini" format="2">
  <advance width="1383"/>
  <anchor x="698" y="0" name="bottom"/>
  <anchor x="1301" y="0" name="cnct"/>
  <anchor x="1101" y="1424" name="top"/>
  <outline>
    <contour>
      <point x="304" y="-14" type="curve" smooth="yes"/>
      <point x="320" y="-14"/>
      <point x="324" y="-10"/>
      <point x="328" y="1" type="curve" smooth="yes"/>
      <point x="596" y="833" type="line" smooth="yes"/>
      <point x="733" y="1258"/>
      <point x="956" y="1478"/>
      <point x="1186" y="1478" type="curve" smooth="yes"/>
      <point x="1330" y="1478"/>
      <point x="1426" y="1391"/>
      <point x="1426" y="1221" type="curve" smooth="yes"/>
      <point x="1426" y="918"/>
      <point x="1146" y="743"/>
      <point x="878" y="710" type="curve"/>
      <point x="865" y="746"/>
      <point x="829" y="765"/>
      <point x="796" y="765" type="curve" smooth="yes"/>
      <point x="766" y="765"/>
      <point x="740" y="749"/>
      <point x="740" y="715" type="curve" smooth="yes"/>
      <point x="740" y="674"/>
      <point x="786" y="651"/>
      <point x="849" y="663" type="curve"/>
      <point x="873" y="564"/>
      <point x="905" y="448"/>
      <point x="935" y="348" type="curve" smooth="yes"/>
      <point x="1008" y="104"/>
      <point x="1098" y="-17"/>
      <point x="1248" y="-17" type="curve" smooth="yes"/>
      <point x="1273" y="-17"/>
      <point x="1284" y="18"/>
      <point x="1259" y="18" type="curve" smooth="yes"/>
      <point x="1138" y="18"/>
      <point x="1049" y="85"/>
      <point x="960" y="393" type="curve" smooth="yes"/>
      <point x="928" y="506"/>
      <point x="906" y="573"/>
      <point x="884" y="671" type="curve"/>
      <point x="1169" y="706"/>
      <point x="1468" y="898"/>
      <point x="1468" y="1224" type="curve" smooth="yes"/>
      <point x="1468" y="1408"/>
      <point x="1354" y="1515"/>
      <point x="1191" y="1515" type="curve" smooth="yes"/>
      <point x="1001" y="1515"/>
      <point x="833" y="1396"/>
      <point x="700" y="1154" type="curve"/>
      <point x="811" y="1500" type="line" smooth="yes"/>
      <point x="815" y="1511"/>
      <point x="809" y="1515"/>
      <point x="796" y="1515" type="curve" smooth="yes"/>
      <point x="779" y="1515"/>
      <point x="775" y="1508"/>
      <point x="771" y="1500" type="curve" smooth="yes"/>
      <point x="676" y="1294"/>
      <point x="533" y="1149"/>
      <point x="345" y="1070" type="curve" smooth="yes"/>
      <point x="335" y="1066"/>
      <point x="331" y="1058"/>
      <point x="334" y="1049" type="curve" smooth="yes"/>
      <point x="338" y="1036"/>
      <point x="345" y="1031"/>
      <point x="356" y="1036" type="curve" smooth="yes"/>
      <point x="513" y="1106"/>
      <point x="636" y="1213"/>
      <point x="724" y="1350" type="curve"/>
      <point x="289" y="1" type="line" smooth="yes"/>
      <point x="285" y="-10"/>
      <point x="291" y="-14"/>
    </contour>
  </outline>
</glyph>
<glyph name="S.cur" format="2">
  <advance width="1383"/>
  <anchor x="815" y="0" name="bottom"/>
  <anchor x="1035" y="1488" name="top"/>
  <outline>
    <contour>
      <point x="830" y="-19" type="curve" smooth="yes"/>
      <point x="1124" y="-19"/>
      <point x="1338" y="201"/>
      <point x="1338" y="508" type="curve" smooth="yes"/>
      <point x="1338" y="759"/>
      <point x="1110" y="983"/>
      <point x="1038" y="1124" type="curve"/>
      <point x="1146" y="1290"/>
      <point x="1200" y="1390"/>
      <point x="1200" y="1476" type="curve" smooth="yes"/>
      <point x="1200" y="1553"/>
      <point x="1158" y="1594"/>
      <point x="1089" y="1594" type="curve" smooth="yes"/>
      <point x="988" y="1594"/>
      <point x="930" y="1495"/>
      <point x="930" y="1370" type="curve" smooth="yes"/>
      <point x="930" y="1274"/>
      <point x="956" y="1195"/>
      <point x="993" y="1122" type="curve"/>
      <point x="574" y="469"/>
      <point x="247" y="30"/>
      <point x="-12" y="30" type="curve" smooth="yes"/>
      <point x="-35" y="30"/>
      <point x="-44" y="19"/>
      <point x="-44" y="5" type="curve" smooth="yes"/>
      <point x="-44" y="-4"/>
      <point x="-37" y="-7"/>
      <point x="-22" y="-7" type="curve" smooth="yes"/>
      <point x="273" y="-7"/>
      <point x="589" y="430"/>
      <point x="1013" y="1086" type="curve"/>
      <point x="1119" y="908"/>
      <point x="1296" y="737"/>
      <point x="1296" y="504" type="curve" smooth="yes"/>
      <point x="1296" y="224"/>
      <point x="1100" y="19"/>
      <point x="830" y="19" type="curve" smooth="yes"/>
      <point x="696" y="19"/>
      <point x="611" y="58"/>
      <point x="544" y="134" type="curve" smooth="yes"/>
      <point x="534" y="145"/>
      <point x="525" y="146"/>
      <point x="516" y="139" type="curve"/>
      <point x="508" y="130"/>
      <point x="509" y="121"/>
      <point x="519" y="108" type="curve" smooth="yes"/>
      <point x="581" y="29"/>
      <point x="696" y="-19"/>
    </contour>
    <contour>
      <point x="1019" y="1163" type="curve"/>
      <point x="990" y="1224"/>
      <point x="971" y="1291"/>
      <point x="971" y="1370" type="curve" smooth="yes"/>
      <point x="971" y="1469"/>
      <point x="1011" y="1556"/>
      <point x="1089" y="1556" type="curve" smooth="yes"/>
      <point x="1134" y="1556"/>
      <point x="1159" y="1530"/>
      <point x="1159" y="1476" type="curve" smooth="yes"/>
      <point x="1159" y="1396"/>
      <point x="1110" y="1306"/>
    </contour>
  </outline>
</glyph>
<glyph name="S.dec" format="2">
  <advance width="1316"/>
  <anchor x="386" y="0" name="bottom"/>
  <anchor x="1280" y="1488" name="top"/>
  <outline>
    <contour>
      <point x="393" y="-19" type="curve" smooth="yes"/>
      <point x="553" y="-19"/>
      <point x="655" y="85"/>
      <point x="736" y="333" type="curve" smooth="yes"/>
      <point x="968" y="1050" type="line" smooth="yes"/>
      <point x="1051" y="1309"/>
      <point x="1145" y="1480"/>
      <point x="1305" y="1480" type="curve" smooth="yes"/>
      <point x="1406" y="1480"/>
      <point x="1471" y="1409"/>
      <point x="1471" y="1303" type="curve" smooth="yes"/>
      <point x="1471" y="1041"/>
      <point x="1185" y="830"/>
      <point x="879" y="830" type="curve" smooth="yes"/>
      <point x="656" y="830"/>
      <point x="460" y="903"/>
      <point x="339" y="1001" type="curve" smooth="yes"/>
      <point x="330" y="1008"/>
      <point x="323" y="1009"/>
      <point x="315" y="1000" type="curve" smooth="yes"/>
      <point x="306" y="990"/>
      <point x="308" y="980"/>
      <point x="315" y="974" type="curve" smooth="yes"/>
      <point x="434" y="876"/>
      <point x="646" y="795"/>
      <point x="886" y="795" type="curve" smooth="yes"/>
      <point x="1213" y="795"/>
      <point x="1513" y="1023"/>
      <point x="1513" y="1306" type="curve" smooth="yes"/>
      <point x="1513" y="1430"/>
      <point x="1425" y="1515"/>
      <point x="1310" y="1515" type="curve" smooth="yes"/>
      <point x="1125" y="1515"/>
      <point x="1026" y="1346"/>
      <point x="934" y="1060" type="curve" smooth="yes"/>
      <point x="703" y="341" type="line" smooth="yes"/>
      <point x="628" y="113"/>
      <point x="536" y="16"/>
      <point x="394" y="16" type="curve" smooth="yes"/>
      <point x="319" y="16"/>
      <point x="246" y="54"/>
      <point x="200" y="114" type="curve" smooth="yes"/>
      <point x="193" y="123"/>
      <point x="185" y="124"/>
      <point x="175" y="115" type="curve" smooth="yes"/>
      <point x="165" y="108"/>
      <point x="164" y="98"/>
      <point x="170" y="90" type="curve" smooth="yes"/>
      <point x="223" y="23"/>
      <point x="306" y="-19"/>
    </contour>
  </outline>
</glyph>
<glyph name="T.cur" format="2">
  <advance width="1118"/>
  <anchor x="620" y="0" name="bottom"/>
  <anchor x="759" y="744" name="center"/>
  <anchor x="1018" y="1424" name="top"/>
  <outline>
    <contour>
      <point x="663" y="-19" type="curve" smooth="yes"/>
      <point x="795" y="-19"/>
      <point x="904" y="44"/>
      <point x="1010" y="178" type="curve" smooth="yes"/>
      <point x="1015" y="185"/>
      <point x="1016" y="193"/>
      <point x="1008" y="201" type="curve" smooth="yes"/>
      <point x="1000" y="209"/>
      <point x="989" y="209"/>
      <point x="984" y="201" type="curve" smooth="yes"/>
      <point x="889" y="76"/>
      <point x="790" y="19"/>
      <point x="669" y="19" type="curve" smooth="yes"/>
      <point x="536" y="19"/>
      <point x="448" y="133"/>
      <point x="448" y="306" type="curve" smooth="yes"/>
      <point x="448" y="611"/>
      <point x="660" y="990"/>
      <point x="1088" y="1453" type="curve"/>
      <point x="1460" y="1453" type="line" smooth="yes"/>
      <point x="1473" y="1453"/>
      <point x="1478" y="1456"/>
      <point x="1481" y="1470" type="curve" smooth="yes"/>
      <point x="1484" y="1481"/>
      <point x="1484" y="1488"/>
      <point x="1470" y="1488" type="curve" smooth="yes"/>
      <point x="701" y="1488" type="line" smooth="yes"/>
      <point x="509" y="1488"/>
      <point x="389" y="1381"/>
      <point x="344" y="1205" type="curve" smooth="yes"/>
      <point x="340" y="1189"/>
      <point x="343" y="1181"/>
      <point x="353" y="1178" type="curve" smooth="yes"/>
      <point x="364" y="1174"/>
      <point x="373" y="1179"/>
      <point x="376" y="1193" type="curve" smooth="yes"/>
      <point x="414" y="1355"/>
      <point x="519" y="1453"/>
      <point x="691" y="1453" type="curve" smooth="yes"/>
      <point x="1039" y="1453" type="line"/>
      <point x="614" y="991"/>
      <point x="406" y="611"/>
      <point x="406" y="304" type="curve" smooth="yes"/>
      <point x="406" y="109"/>
      <point x="508" y="-19"/>
    </contour>
  </outline>
</glyph>
<glyph name="T.cur.ini" format="2">
  <advance width="938"/>
  <anchor x="660" y="0" name="bottom"/>
  <anchor x="589" y="744" name="center"/>
  <anchor x="856" y="0" name="cnct"/>
  <anchor x="988" y="1424" name="top"/>
  <outline>
    <contour>
      <point x="671" y="-17" type="curve" smooth="yes"/>
      <point x="696" y="-17"/>
      <point x="701" y="16"/>
      <point x="676" y="16" type="curve" smooth="yes"/>
      <point x="512" y="16"/>
      <point x="428" y="107"/>
      <point x="428" y="286" type="curve" smooth="yes"/>
      <point x="428" y="593"/>
      <point x="637" y="987"/>
      <point x="1048" y="1453" type="curve"/>
      <point x="1390" y="1453" type="line" smooth="yes"/>
      <point x="1403" y="1453"/>
      <point x="1408" y="1456"/>
      <point x="1411" y="1470" type="curve" smooth="yes"/>
      <point x="1414" y="1481"/>
      <point x="1414" y="1488"/>
      <point x="1400" y="1488" type="curve" smooth="yes"/>
      <point x="701" y="1488" type="line" smooth="yes"/>
      <point x="509" y="1488"/>
      <point x="389" y="1381"/>
      <point x="344" y="1205" type="curve" smooth="yes"/>
      <point x="340" y="1189"/>
      <point x="343" y="1181"/>
      <point x="353" y="1178" type="curve" smooth="yes"/>
      <point x="364" y="1174"/>
      <point x="373" y="1179"/>
      <point x="376" y="1193" type="curve" smooth="yes"/>
      <point x="414" y="1355"/>
      <point x="519" y="1453"/>
      <point x="691" y="1453" type="curve" smooth="yes"/>
      <point x="999" y="1453" type="line"/>
      <point x="593" y="989"/>
      <point x="386" y="595"/>
      <point x="386" y="284" type="curve" smooth="yes"/>
      <point x="386" y="84"/>
      <point x="482" y="-17"/>
    </contour>
  </outline>
</glyph>
<glyph name="U.cur" format="2">
  <advance width="1476"/>
  <guideline y="-14"/>
  <anchor x="656" y="0" name="bottom"/>
  <anchor x="1254" y="21" name="ogonek"/>
  <anchor x="1099" y="1424" name="top"/>
  <anchor x="1510" y="1509" name="topright"/>
  <outline>
    <contour>
      <point x="643" y="-19" type="curve" smooth="yes"/>
      <point x="809" y="-19"/>
      <point x="961" y="68"/>
      <point x="1072" y="225" type="curve"/>
      <point x="1070" y="219"/>
      <point x="1069" y="213"/>
      <point x="1068" y="208" type="curve" smooth="yes"/>
      <point x="1031" y="55"/>
      <point x="1090" y="-19"/>
      <point x="1185" y="-19" type="curve" smooth="yes"/>
      <point x="1268" y="-19"/>
      <point x="1338" y="44"/>
      <point x="1405" y="174" type="curve" smooth="yes"/>
      <point x="1414" y="190"/>
      <point x="1413" y="199"/>
      <point x="1401" y="205" type="curve" smooth="yes"/>
      <point x="1390" y="211"/>
      <point x="1384" y="209"/>
      <point x="1378" y="195" type="curve" smooth="yes"/>
      <point x="1319" y="75"/>
      <point x="1259" y="18"/>
      <point x="1190" y="18" type="curve" smooth="yes"/>
      <point x="1103" y="18"/>
      <point x="1064" y="91"/>
      <point x="1120" y="260" type="curve" smooth="yes"/>
      <point x="1538" y="1500" type="line" smooth="yes"/>
      <point x="1541" y="1511"/>
      <point x="1535" y="1515"/>
      <point x="1523" y="1515" type="curve" smooth="yes"/>
      <point x="1506" y="1515"/>
      <point x="1503" y="1511"/>
      <point x="1499" y="1500" type="curve" smooth="yes"/>
      <point x="1114" y="353" type="line"/>
      <point x="1002" y="138"/>
      <point x="830" y="16"/>
      <point x="644" y="16" type="curve" smooth="yes"/>
      <point x="463" y="16"/>
      <point x="398" y="153"/>
      <point x="463" y="353" type="curve" smooth="yes"/>
      <point x="766" y="1284" type="line" smooth="yes"/>
      <point x="814" y="1429"/>
      <point x="770" y="1520"/>
      <point x="651" y="1520" type="curve" smooth="yes"/>
      <point x="564" y="1520"/>
      <point x="470" y="1466"/>
      <point x="393" y="1378" type="curve" smooth="yes"/>
      <point x="383" y="1366"/>
      <point x="383" y="1359"/>
      <point x="390" y="1351" type="curve" smooth="yes"/>
      <point x="399" y="1343"/>
      <point x="409" y="1341"/>
      <point x="418" y="1351" type="curve" smooth="yes"/>
      <point x="494" y="1439"/>
      <point x="570" y="1483"/>
      <point x="646" y="1483" type="curve" smooth="yes"/>
      <point x="740" y="1483"/>
      <point x="771" y="1419"/>
      <point x="730" y="1291" type="curve" smooth="yes"/>
      <point x="428" y="364" type="line" smooth="yes"/>
      <point x="353" y="134"/>
      <point x="439" y="-19"/>
    </contour>
  </outline>
</glyph>
<glyph name="U.cur.ini" format="2">
  <advance width="1409"/>
  <anchor x="656" y="0" name="bottom"/>
  <anchor x="1328" y="0" name="cnct"/>
  <anchor x="1254" y="21" name="ogonek"/>
  <anchor x="1099" y="1424" name="top"/>
  <anchor x="1510" y="1509" name="topright"/>
  <outline>
    <contour>
      <point x="643" y="-19" type="curve" smooth="yes"/>
      <point x="836" y="-19"/>
      <point x="1011" y="99"/>
      <point x="1123" y="308" type="curve"/>
      <point x="1115" y="355" type="line"/>
      <point x="1003" y="139"/>
      <point x="831" y="16"/>
      <point x="644" y="16" type="curve" smooth="yes"/>
      <point x="463" y="16"/>
      <point x="398" y="153"/>
      <point x="463" y="353" type="curve" smooth="yes"/>
      <point x="766" y="1284" type="line" smooth="yes"/>
      <point x="814" y="1429"/>
      <point x="770" y="1520"/>
      <point x="651" y="1520" type="curve" smooth="yes"/>
      <point x="564" y="1520"/>
      <point x="470" y="1466"/>
      <point x="393" y="1378" type="curve" smooth="yes"/>
      <point x="383" y="1366"/>
      <point x="383" y="1359"/>
      <point x="390" y="1351" type="curve" smooth="yes"/>
      <point x="399" y="1343"/>
      <point x="409" y="1341"/>
      <point x="418" y="1351" type="curve" smooth="yes"/>
      <point x="494" y="1439"/>
      <point x="570" y="1483"/>
      <point x="646" y="1483" type="curve" smooth="yes"/>
      <point x="740" y="1483"/>
      <point x="771" y="1419"/>
      <point x="730" y="1291" type="curve" smooth="yes"/>
      <point x="428" y="364" type="line" smooth="yes"/>
      <point x="353" y="134"/>
      <point x="439" y="-19"/>
    </contour>
    <contour>
      <point x="1274" y="-17" type="curve" smooth="yes"/>
      <point x="1298" y="-17"/>
      <point x="1310" y="18"/>
      <point x="1285" y="18" type="curve" smooth="yes"/>
      <point x="1163" y="18"/>
      <point x="1068" y="99"/>
      <point x="1148" y="339" type="curve" smooth="yes"/>
      <point x="1538" y="1500" type="line" smooth="yes"/>
      <point x="1541" y="1511"/>
      <point x="1535" y="1515"/>
      <point x="1523" y="1515" type="curve" smooth="yes"/>
      <point x="1506" y="1515"/>
      <point x="1503" y="1511"/>
      <point x="1499" y="1500" type="curve" smooth="yes"/>
      <point x="1113" y="351" type="line" smooth="yes"/>
      <point x="1025" y="90"/>
      <point x="1131" y="-17"/>
    </contour>
  </outline>
</glyph>
<glyph name="X.dec_ro" format="2">
  <advance width="1454"/>
  <outline>
    <contour>
      <point x="604" y="745" type="curve" smooth="yes"/>
      <point x="1164" y="745" type="line" smooth="yes"/>
      <point x="1171" y="745"/>
      <point x="1176" y="750"/>
      <point x="1179" y="763" type="curve" smooth="yes"/>
      <point x="1181" y="774"/>
      <point x="1177" y="780"/>
      <point x="1170" y="780" type="curve" smooth="yes"/>
      <point x="610" y="780" type="line" smooth="yes"/>
      <point x="602" y="780"/>
      <point x="599" y="775"/>
      <point x="596" y="764" type="curve" smooth="yes"/>
      <point x="594" y="753"/>
      <point x="596" y="745"/>
    </contour>
    <component base="X.dec"/>
  </outline>
</glyph>
<glyph name="Y.cur" format="2">
  <advance width="1240"/>
  <anchor x="1201" y="0" name="bottom"/>
  <anchor x="1039" y="1424" name="top"/>
  <outline>
    <contour>
      <point x="449" y="-1020" type="curve" smooth="yes"/>
      <point x="596" y="-1020"/>
      <point x="706" y="-902"/>
      <point x="784" y="-666" type="curve" smooth="yes"/>
      <point x="1493" y="1500" type="line" smooth="yes"/>
      <point x="1496" y="1511"/>
      <point x="1490" y="1515"/>
      <point x="1478" y="1515" type="curve" smooth="yes"/>
      <point x="1461" y="1515"/>
      <point x="1458" y="1511"/>
      <point x="1454" y="1500" type="curve" smooth="yes"/>
      <point x="1113" y="458" type="line"/>
      <point x="995" y="244"/>
      <point x="840" y="123"/>
      <point x="660" y="123" type="curve" smooth="yes"/>
      <point x="474" y="123"/>
      <point x="425" y="254"/>
      <point x="491" y="459" type="curve" smooth="yes"/>
      <point x="760" y="1284" type="line" smooth="yes"/>
      <point x="808" y="1429"/>
      <point x="764" y="1520"/>
      <point x="645" y="1520" type="curve" smooth="yes"/>
      <point x="558" y="1520"/>
      <point x="464" y="1466"/>
      <point x="386" y="1378" type="curve" smooth="yes"/>
      <point x="378" y="1366"/>
      <point x="376" y="1359"/>
      <point x="384" y="1351" type="curve" smooth="yes"/>
      <point x="393" y="1343"/>
      <point x="403" y="1340"/>
      <point x="411" y="1351" type="curve" smooth="yes"/>
      <point x="488" y="1439"/>
      <point x="564" y="1483"/>
      <point x="640" y="1483" type="curve" smooth="yes"/>
      <point x="734" y="1483"/>
      <point x="765" y="1419"/>
      <point x="724" y="1291" type="curve" smooth="yes"/>
      <point x="456" y="470" type="line" smooth="yes"/>
      <point x="380" y="235"/>
      <point x="451" y="88"/>
      <point x="665" y="88" type="curve" smooth="yes"/>
      <point x="821" y="88"/>
      <point x="961" y="175"/>
      <point x="1073" y="334" type="curve"/>
      <point x="750" y="-652" type="line" smooth="yes"/>
      <point x="678" y="-875"/>
      <point x="576" y="-985"/>
      <point x="455" y="-985" type="curve" smooth="yes"/>
      <point x="391" y="-985"/>
      <point x="345" y="-937"/>
      <point x="345" y="-871" type="curve" smooth="yes"/>
      <point x="345" y="-671"/>
      <point x="538" y="-431"/>
      <point x="915" y="-167" type="curve" smooth="yes"/>
      <point x="1020" y="-95"/>
      <point x="1139" y="-21"/>
      <point x="1273" y="55" type="curve" smooth="yes"/>
      <point x="1284" y="61"/>
      <point x="1285" y="70"/>
      <point x="1279" y="81" type="curve" smooth="yes"/>
      <point x="1274" y="90"/>
      <point x="1265" y="93"/>
      <point x="1255" y="86" type="curve" smooth="yes"/>
      <point x="1136" y="19"/>
      <point x="1029" y="-47"/>
      <point x="933" y="-112" type="curve" smooth="yes"/>
      <point x="516" y="-399"/>
      <point x="304" y="-655"/>
      <point x="304" y="-871" type="curve" smooth="yes"/>
      <point x="304" y="-957"/>
      <point x="365" y="-1020"/>
    </contour>
  </outline>
</glyph>
